<svg width="744" height="599" viewBox="0 0 744 599" fill="none" xmlns="http://www.w3.org/2000/svg">
<path d="M1239.18 246.428C1307.01 158.513 1356.51 -6.60056 1011.84 36.2602C580.997 89.836 792.555 307.966 476.534 195.064C160.513 82.1611 -124.628 186.337 75.5167 292.34C275.661 398.343 648.031 249.768 576.728 364.333" stroke="#CACACA"/>
<path d="M1406.48 403.717C1385.75 388.628 1296.83 373.6 1107 434.2C869.725 509.949 819.767 527.373 659.127 531.385" stroke="#CACACA"/>
<path d="M1248.11 253.768C1312.22 169.68 1358.06 12.0706 1027.49 52.9823C614.851 104.099 813.016 312.385 507.524 206.301C200.902 100.578 -74.0793 200.903 113.571 302.54C301.221 404.178 653.352 262.933 581.62 372.138" stroke="#CACACA"/>
<path d="M1257.04 261.109C1317.42 180.849 1359.6 30.7429 1043.13 69.7056C648.692 118.363 833.465 316.804 538.502 217.54C241.279 118.997 -23.5441 215.47 151.612 312.742C326.769 410.013 658.661 276.099 586.499 379.944" stroke="#CACACA"/>
<path d="M1265.94 268.452C1322.61 192.019 1361.12 49.4175 1058.75 86.4312C682.518 132.629 853.898 321.226 569.464 228.781C281.64 137.418 26.9759 230.039 189.638 322.945C352.301 415.852 663.954 289.267 591.362 387.752" stroke="#CACACA"/>
<path d="M1274.83 275.797C1327.77 203.192 1362.62 68.0938 1074.35 103.159C716.326 146.897 874.314 325.649 600.409 240.023C321.984 155.84 77.4785 244.61 227.647 333.151C377.815 421.691 669.229 302.437 596.209 395.562" stroke="#CACACA"/>
<path d="M1283.7 283.146C1332.92 214.367 1364.1 86.7731 1089.93 119.889C750.114 161.169 894.709 330.076 631.333 251.269C362.308 174.266 127.96 259.184 265.635 343.359C403.309 427.534 674.484 315.61 601.034 403.375" stroke="#CACACA"/>
<path d="M1292.54 290.496C1338.04 225.545 1365.56 105.455 1105.49 136.622C783.877 175.442 915.08 334.505 662.233 262.517C402.606 192.693 178.418 273.76 303.598 353.57C428.779 433.379 679.715 328.786 605.835 411.191" stroke="#CACACA"/>
<path d="M1301.36 297.851C1343.13 236.726 1366.99 124.141 1121.02 153.359C817.611 189.72 935.421 338.938 693.103 273.769C442.876 211.126 228.846 288.341 341.533 363.785C454.219 439.229 684.916 341.965 610.607 419.011" stroke="#CACACA"/>
<path d="M1310.14 305.209C1348.18 247.912 1368.38 142.831 1136.52 170.099C851.31 204.001 955.727 343.375 723.938 285.025C483.11 229.561 279.239 302.925 379.431 374.003C479.624 445.082 690.082 355.149 615.344 426.834" stroke="#CACACA"/>
<path d="M1318.87 312.573C1353.19 259.103 1369.73 161.526 1151.97 186.845C884.965 218.288 975.99 347.817 754.73 296.287C523.301 248.003 329.588 317.515 417.287 384.228C504.985 450.941 695.204 368.337 620.037 434.663" stroke="#CACACA"/>
<path d="M1327.56 319.944C1358.15 270.301 1371.03 180.228 1167.36 203.599C918.566 232.582 996.199 352.266 785.468 307.555C563.438 266.451 379.884 332.111 455.088 394.459C530.293 456.806 700.273 381.533 624.676 442.499" stroke="#CACACA"/>
<path d="M1336.17 327.324C1363.04 281.508 1372.25 198.938 1182.69 220.36C952.099 246.884 1016.34 356.724 816.137 318.832C603.507 284.908 430.111 346.717 492.822 404.698C555.532 462.68 705.273 394.737 629.247 450.343" stroke="#CACACA"/>
<path d="M1344.7 334.713C1367.84 292.725 1373.39 217.659 1197.93 237.132C985.545 261.197 1036.39 361.192 846.719 330.119C643.488 303.375 480.251 361.332 530.467 414.948C580.684 468.565 710.186 407.952 633.73 458.198" stroke="#CACACA"/>
<path d="M1353.11 342.118C1372.53 303.956 1374.42 236.395 1213.06 253.919C1018.87 275.525 1056.33 365.675 877.186 341.421C683.353 321.857 530.275 375.962 567.997 425.213C605.72 474.464 714.983 421.181 638.098 466.067" stroke="#CACACA"/>
<path d="M1361.36 349.541C1377.06 315.207 1375.29 255.149 1228.03 270.724C1052.05 289.871 1076.11 370.176 907.495 352.742C723.062 340.357 580.142 390.612 605.371 435.497C630.599 480.382 719.623 434.429 642.309 473.955" stroke="#CACACA"/>
<path d="M1369.4 356.992C1381.37 326.485 1375.93 273.932 1242.78 287.557C1085 304.245 1095.67 374.705 937.587 364.09C762.552 358.886 629.792 405.288 642.526 445.808C655.261 486.327 724.046 447.705 646.302 481.871" stroke="#CACACA"/>
<path d="M1377.11 364.479C1385.37 337.799 1376.27 292.749 1257.21 304.426C1117.64 318.654 1114.92 379.271 967.362 375.474C801.727 377.45 679.124 420.001 679.365 456.155C679.606 492.309 728.151 461.017 649.978 489.823" stroke="#CACACA"/>
<path d="M1384.36 372.02C1388.89 349.167 1376.12 311.622 1271.17 321.35C1149.8 333.118 1133.69 383.89 996.659 386.913C840.423 396.068 727.979 434.768 715.726 466.556C703.473 498.344 731.779 474.383 653.177 497.829" stroke="#CACACA"/>
<path d="M1390.85 379.654C1391.65 360.628 1375.23 330.587 1284.38 338.366C1181.21 347.675 1151.71 388.602 1025.21 398.445C878.37 414.78 776.085 449.627 751.338 477.05C726.591 504.473 734.658 487.842 655.626 505.928" stroke="#CACACA"/>
<path d="M1396.25 387.437C1393.33 372.238 1373.24 349.701 1296.49 355.531C1211.53 362.381 1168.63 393.463 1052.66 410.125C915.224 433.64 823.097 464.636 785.856 487.693C748.615 510.75 736.443 501.449 656.982 514.175" stroke="#CACACA"/>
<path d="M1401.34 395.353C1394.7 383.981 1370.95 368.948 1308.3 372.829C1241.54 377.22 1185.25 398.458 1079.81 421.938C951.772 452.633 869.804 479.778 820.069 498.469C770.333 517.161 737.923 515.19 658.032 522.556" stroke="#CACACA"/>
</svg>
