<svg width="1053" height="731" viewBox="0 0 1053 731" fill="none" xmlns="http://www.w3.org/2000/svg">
<path d="M1512.32 300.817C1595.13 193.499 1655.56 -8.05759 1234.81 44.263C708.874 109.664 967.124 375.938 581.354 238.116C195.584 100.295 -152.49 227.464 91.8279 356.863C336.146 486.262 790.703 304.895 703.662 444.745" stroke="#CACACA"/>
<path d="M1716.55 492.822C1691.24 474.403 1582.7 456.058 1350.98 530.033C1061.33 622.501 1000.34 643.77 804.248 648.668" stroke="#CACACA"/>
<path d="M1523.23 309.777C1601.49 207.131 1657.45 14.7344 1253.91 64.6758C750.2 127.075 992.102 381.331 619.184 251.834C244.888 122.777 -90.7857 245.244 138.281 369.314C367.348 493.384 797.198 320.965 709.634 454.273" stroke="#CACACA"/>
<path d="M1534.12 318.739C1607.84 220.764 1659.32 37.5281 1273 85.0904C791.51 144.487 1017.06 386.726 656.999 265.553C294.176 145.261 -29.0968 263.026 184.719 381.767C398.534 500.508 803.678 337.037 715.589 463.802" stroke="#CACACA"/>
<path d="M1544.99 327.703C1614.16 234.4 1661.18 60.3242 1292.07 105.507C832.801 161.902 1042.01 392.124 694.795 279.275C343.445 167.747 32.5736 280.811 231.137 394.223C429.701 507.635 810.14 353.112 721.527 473.333" stroke="#CACACA"/>
<path d="M1555.85 336.669C1620.47 248.038 1663.01 83.1229 1311.12 125.927C874.071 179.319 1066.93 397.524 732.57 292.999C392.694 190.236 94.2226 298.598 277.535 406.681C460.847 514.763 816.58 369.189 727.442 482.867" stroke="#CACACA"/>
<path d="M1566.67 345.639C1626.75 261.68 1664.82 105.925 1330.14 146.349C915.316 196.74 1091.82 402.927 770.319 306.727C441.917 212.728 155.846 316.388 323.907 419.142C491.968 521.896 822.994 385.269 733.333 492.405" stroke="#CACACA"/>
<path d="M1577.47 354.612C1633 275.325 1666.6 128.73 1349.13 166.776C956.532 214.164 1116.69 408.334 808.039 320.457C491.11 235.223 217.441 334.182 370.25 431.607C523.059 529.031 829.379 401.352 739.194 501.945" stroke="#CACACA"/>
<path d="M1588.23 363.59C1639.21 288.974 1668.34 151.54 1368.09 187.206C997.711 231.593 1141.52 413.745 845.723 334.193C540.268 257.723 278.999 351.981 416.556 444.076C554.114 536.171 835.728 417.441 745.019 511.491" stroke="#CACACA"/>
<path d="M1598.94 372.573C1645.38 302.629 1670.04 174.355 1387 207.642C1038.85 249.027 1166.31 419.161 883.363 347.933C589.382 280.228 340.514 369.784 462.82 456.55C585.126 543.317 842.034 433.534 750.8 521.041" stroke="#CACACA"/>
<path d="M1609.61 381.562C1651.5 316.291 1671.69 197.177 1405.86 228.085C1079.93 266.467 1191.05 424.584 920.951 361.681C638.443 302.74 401.976 387.594 509.03 469.031C616.085 550.469 848.287 449.634 756.529 530.598" stroke="#CACACA"/>
<path d="M1620.21 390.56C1657.55 329.96 1673.27 220.006 1424.66 248.535C1120.95 283.916 1215.71 430.015 958.473 375.436C687.439 325.26 463.372 405.412 555.175 481.52C646.978 557.628 854.475 465.742 762.192 540.163" stroke="#CACACA"/>
<path d="M1630.72 399.568C1663.52 343.64 1674.77 242.846 1443.37 268.996C1161.88 301.375 1240.3 435.457 995.912 389.202C736.351 347.79 524.685 423.241 601.237 494.02C677.788 564.799 860.579 481.86 767.772 549.739" stroke="#CACACA"/>
<path d="M1641.13 408.589C1669.39 357.333 1676.16 265.699 1461.98 289.47C1202.71 318.846 1264.78 440.911 1033.24 402.98C785.156 370.333 585.891 441.082 647.191 506.532C708.491 571.982 866.575 497.992 773.245 559.327" stroke="#CACACA"/>
<path d="M1651.4 417.627C1675.11 371.043 1677.41 288.57 1480.44 309.961C1243.4 336.336 1289.12 446.383 1070.43 416.776C833.82 392.894 646.956 458.941 693.005 519.062C739.053 579.183 872.431 514.141 778.577 568.933" stroke="#CACACA"/>
<path d="M1661.47 426.689C1680.64 384.777 1678.47 311.464 1498.71 330.476C1283.89 353.849 1313.26 451.878 1107.43 430.596C882.293 415.478 707.83 476.824 738.627 531.616C769.423 586.407 878.096 530.313 783.717 578.563" stroke="#CACACA"/>
<path d="M1671.28 435.784C1685.9 398.544 1679.26 334.391 1516.72 351.024C1324.12 371.395 1337.14 457.407 1144.17 444.449C930.5 438.096 768.437 494.74 783.982 544.202C799.527 593.665 883.494 546.519 788.591 588.226" stroke="#CACACA"/>
<path d="M1680.7 444.924C1690.78 412.355 1679.67 357.363 1534.34 371.617C1363.96 388.985 1360.64 462.98 1180.51 458.346C978.32 460.757 828.658 512.7 828.952 556.833C829.246 600.967 888.506 562.769 793.079 597.932" stroke="#CACACA"/>
<path d="M1689.54 454.129C1695.07 426.232 1679.49 380.4 1551.37 392.275C1403.22 406.641 1383.55 468.619 1216.28 472.309C1025.56 483.485 888.296 530.726 873.338 569.53C858.38 608.334 892.934 579.084 796.983 607.705" stroke="#CACACA"/>
<path d="M1697.47 463.448C1698.45 440.223 1678.4 403.551 1567.5 413.047C1441.56 424.411 1405.54 474.371 1251.13 486.386C1071.88 506.326 947.02 548.865 916.81 582.341C886.601 615.816 896.449 595.514 799.974 617.592" stroke="#CACACA"/>
<path d="M1704.06 472.948C1700.5 454.395 1675.97 426.884 1582.28 434C1478.57 442.363 1426.2 480.305 1284.64 500.644C1116.87 529.349 1004.41 567.186 958.947 595.332C913.486 623.479 898.628 612.125 801.628 627.66" stroke="#CACACA"/>
<path d="M1710.27 482.612C1702.17 468.73 1673.17 450.379 1596.7 455.117C1515.21 460.477 1446.49 486.402 1317.78 515.065C1161.48 552.534 1061.42 585.67 1000.71 608.487C939.998 631.304 900.434 628.898 802.91 637.891" stroke="#CACACA"/>
</svg>
