<svg width="48" height="48" viewBox="0 0 48 48" fill="none" xmlns="http://www.w3.org/2000/svg">
<path fill-rule="evenodd" clip-rule="evenodd" d="M10.3029 10.303C11.2402 9.36578 12.7598 9.36578 13.6971 10.303L24 20.606L34.3029 10.303C35.2402 9.36578 36.7598 9.36578 37.6971 10.303C38.6343 11.2403 38.6343 12.7599 37.6971 13.6972L27.3941 24.0001L37.6971 34.303C38.6343 35.2403 38.6343 36.7599 37.6971 37.6972C36.7598 38.6344 35.2402 38.6344 34.3029 37.6972L24 27.3942L13.6971 37.6972C12.7598 38.6344 11.2402 38.6344 10.3029 37.6972C9.36569 36.7599 9.36569 35.2403 10.3029 34.303L20.6059 24.0001L10.3029 13.6972C9.36569 12.7599 9.36569 11.2403 10.3029 10.303Z" fill="#3A506F"/>
</svg>
