<svg width="48" height="48" viewBox="0 0 48 48" fill="none" xmlns="http://www.w3.org/2000/svg">
<path fill-rule="evenodd" clip-rule="evenodd" d="M7.20001 12.0001C7.20001 10.6746 8.27453 9.6001 9.60001 9.6001H38.4C39.7255 9.6001 40.8 10.6746 40.8 12.0001C40.8 13.3256 39.7255 14.4001 38.4 14.4001H9.60001C8.27453 14.4001 7.20001 13.3256 7.20001 12.0001Z" fill="#3A506F"/>
<path fill-rule="evenodd" clip-rule="evenodd" d="M7.20001 24.0001C7.20001 22.6746 8.27453 21.6001 9.60001 21.6001H38.4C39.7255 21.6001 40.8 22.6746 40.8 24.0001C40.8 25.3256 39.7255 26.4001 38.4 26.4001H9.60001C8.27453 26.4001 7.20001 25.3256 7.20001 24.0001Z" fill="#3A506F"/>
<path fill-rule="evenodd" clip-rule="evenodd" d="M7.20001 36.0001C7.20001 34.6746 8.27453 33.6001 9.60001 33.6001H38.4C39.7255 33.6001 40.8 34.6746 40.8 36.0001C40.8 37.3256 39.7255 38.4001 38.4 38.4001H9.60001C8.27453 38.4001 7.20001 37.3256 7.20001 36.0001Z" fill="#3A506F"/>
</svg>
