<svg width="336" height="66" viewBox="0 0 336 66" fill="none" xmlns="http://www.w3.org/2000/svg">
<path d="M128.952 43.752C129.144 43.752 129.336 43.792 129.528 43.872C129.72 43.936 129.904 44.056 130.08 44.232L133.296 47.616C131.888 49.456 130.12 50.848 127.992 51.792C125.88 52.72 123.376 53.184 120.48 53.184C117.824 53.184 115.44 52.736 113.328 51.84C111.232 50.928 109.448 49.68 107.976 48.096C106.52 46.496 105.4 44.608 104.616 42.432C103.832 40.24 103.44 37.864 103.44 35.304C103.44 32.696 103.864 30.304 104.712 28.128C105.56 25.936 106.752 24.048 108.288 22.464C109.824 20.88 111.664 19.648 113.808 18.768C115.952 17.888 118.312 17.448 120.888 17.448C122.2 17.448 123.432 17.568 124.584 17.808C125.752 18.032 126.84 18.352 127.848 18.768C128.856 19.168 129.784 19.656 130.632 20.232C131.48 20.808 132.232 21.432 132.888 22.104L130.152 25.776C129.976 26 129.768 26.208 129.528 26.4C129.288 26.576 128.952 26.664 128.52 26.664C128.232 26.664 127.96 26.6 127.704 26.472C127.448 26.344 127.176 26.192 126.888 26.016C126.6 25.824 126.28 25.624 125.928 25.416C125.592 25.192 125.184 24.992 124.704 24.816C124.24 24.624 123.688 24.464 123.048 24.336C122.424 24.208 121.688 24.144 120.84 24.144C119.496 24.144 118.264 24.392 117.144 24.888C116.04 25.384 115.08 26.112 114.264 27.072C113.464 28.016 112.84 29.184 112.392 30.576C111.96 31.952 111.744 33.528 111.744 35.304C111.744 37.096 111.984 38.688 112.464 40.08C112.96 41.472 113.624 42.648 114.456 43.608C115.304 44.552 116.288 45.272 117.408 45.768C118.528 46.264 119.728 46.512 121.008 46.512C121.744 46.512 122.416 46.48 123.024 46.416C123.632 46.336 124.2 46.216 124.728 46.056C125.256 45.88 125.752 45.656 126.216 45.384C126.68 45.096 127.152 44.736 127.632 44.304C127.824 44.144 128.032 44.016 128.256 43.92C128.48 43.808 128.712 43.752 128.952 43.752ZM142.933 31.752C143.701 30.408 144.581 29.352 145.573 28.584C146.581 27.816 147.733 27.432 149.029 27.432C150.149 27.432 151.061 27.696 151.765 28.224L151.285 33.696C151.205 34.048 151.069 34.288 150.877 34.416C150.701 34.544 150.453 34.608 150.133 34.608C150.005 34.608 149.837 34.6 149.629 34.584C149.421 34.568 149.205 34.552 148.981 34.536C148.757 34.504 148.525 34.48 148.285 34.464C148.061 34.432 147.853 34.416 147.661 34.416C146.573 34.416 145.701 34.704 145.045 35.28C144.405 35.856 143.861 36.656 143.413 37.68V52.8H135.973V27.912H140.389C140.757 27.912 141.061 27.944 141.301 28.008C141.557 28.072 141.765 28.176 141.925 28.32C142.101 28.448 142.229 28.624 142.309 28.848C142.405 29.072 142.485 29.344 142.549 29.664L142.933 31.752ZM166.907 42.672C165.419 42.736 164.195 42.864 163.235 43.056C162.275 43.248 161.515 43.488 160.955 43.776C160.395 44.064 160.003 44.392 159.779 44.76C159.571 45.128 159.467 45.528 159.467 45.96C159.467 46.808 159.699 47.408 160.163 47.76C160.627 48.096 161.307 48.264 162.203 48.264C163.163 48.264 164.003 48.096 164.723 47.76C165.443 47.424 166.171 46.88 166.907 46.128V42.672ZM153.515 31.368C155.019 30.04 156.683 29.056 158.507 28.416C160.347 27.76 162.315 27.432 164.411 27.432C165.915 27.432 167.267 27.68 168.467 28.176C169.683 28.656 170.707 29.336 171.539 30.216C172.387 31.08 173.035 32.112 173.483 33.312C173.931 34.512 174.155 35.824 174.155 37.248V52.8H170.747C170.043 52.8 169.507 52.704 169.139 52.512C168.787 52.32 168.491 51.92 168.251 51.312L167.723 49.944C167.099 50.472 166.499 50.936 165.923 51.336C165.347 51.736 164.747 52.08 164.123 52.368C163.515 52.64 162.859 52.84 162.155 52.968C161.467 53.112 160.699 53.184 159.851 53.184C158.715 53.184 157.683 53.04 156.755 52.752C155.827 52.448 155.035 52.008 154.379 51.432C153.739 50.856 153.243 50.144 152.891 49.296C152.539 48.432 152.363 47.44 152.363 46.32C152.363 45.424 152.587 44.52 153.035 43.608C153.483 42.68 154.259 41.84 155.363 41.088C156.467 40.32 157.955 39.68 159.827 39.168C161.699 38.656 164.059 38.368 166.907 38.304V37.248C166.907 35.792 166.603 34.744 165.995 34.104C165.403 33.448 164.555 33.12 163.451 33.12C162.571 33.12 161.851 33.216 161.291 33.408C160.731 33.6 160.227 33.816 159.779 34.056C159.347 34.296 158.923 34.512 158.507 34.704C158.091 34.896 157.595 34.992 157.019 34.992C156.507 34.992 156.075 34.864 155.723 34.608C155.371 34.352 155.083 34.048 154.859 33.696L153.515 31.368ZM186.519 27.912V52.8H179.079V27.912H186.519ZM187.287 21.096C187.287 21.688 187.167 22.248 186.927 22.776C186.687 23.288 186.359 23.744 185.943 24.144C185.527 24.528 185.039 24.84 184.479 25.08C183.935 25.304 183.351 25.416 182.727 25.416C182.119 25.416 181.551 25.304 181.023 25.08C180.495 24.84 180.023 24.528 179.607 24.144C179.207 23.744 178.887 23.288 178.647 22.776C178.423 22.248 178.311 21.688 178.311 21.096C178.311 20.488 178.423 19.92 178.647 19.392C178.887 18.864 179.207 18.4 179.607 18C180.023 17.6 180.495 17.288 181.023 17.064C181.551 16.84 182.119 16.728 182.727 16.728C183.351 16.728 183.935 16.84 184.479 17.064C185.039 17.288 185.527 17.6 185.943 18C186.359 18.4 186.687 18.864 186.927 19.392C187.167 19.92 187.287 20.488 187.287 21.096ZM215.348 27.912L202.052 59.256C201.828 59.752 201.556 60.112 201.236 60.336C200.916 60.576 200.404 60.696 199.7 60.696H194.132L198.932 50.616L188.995 27.912H195.572C196.148 27.912 196.588 28.04 196.892 28.296C197.212 28.552 197.444 28.856 197.588 29.208L201.668 39.936C202.052 40.912 202.364 41.912 202.604 42.936C202.78 42.424 202.956 41.912 203.132 41.4C203.308 40.888 203.492 40.384 203.684 39.888L207.38 29.208C207.524 28.84 207.78 28.536 208.148 28.296C208.516 28.04 208.916 27.912 209.348 27.912H215.348ZM228.164 27.528C230.052 27.528 231.772 27.824 233.324 28.416C234.876 29.008 236.204 29.856 237.308 30.96C238.428 32.064 239.292 33.408 239.9 34.992C240.524 36.56 240.836 38.328 240.836 40.296C240.836 42.28 240.524 44.072 239.9 45.672C239.292 47.256 238.428 48.608 237.308 49.728C236.204 50.832 234.876 51.688 233.324 52.296C231.772 52.888 230.052 53.184 228.164 53.184C226.26 53.184 224.524 52.888 222.956 52.296C221.404 51.688 220.06 50.832 218.924 49.728C217.804 48.608 216.932 47.256 216.308 45.672C215.7 44.072 215.396 42.28 215.396 40.296C215.396 38.328 215.7 36.56 216.308 34.992C216.932 33.408 217.804 32.064 218.924 30.96C220.06 29.856 221.404 29.008 222.956 28.416C224.524 27.824 226.26 27.528 228.164 27.528ZM228.164 47.664C229.876 47.664 231.132 47.064 231.932 45.864C232.748 44.648 233.156 42.808 233.156 40.344C233.156 37.88 232.748 36.048 231.932 34.848C231.132 33.648 229.876 33.048 228.164 33.048C226.404 33.048 225.116 33.648 224.3 34.848C223.484 36.048 223.076 37.88 223.076 40.344C223.076 42.808 223.484 44.648 224.3 45.864C225.116 47.064 226.404 47.664 228.164 47.664Z" fill="#56E39F"/>
<path d="M275.975 17.832V52.8H271.751C271.127 52.8 270.599 52.704 270.167 52.512C269.751 52.304 269.335 51.952 268.919 51.456L252.431 30.6C252.495 31.224 252.535 31.832 252.551 32.424C252.583 33 252.599 33.544 252.599 34.056V52.8H245.447V17.832H249.719C250.071 17.832 250.367 17.848 250.607 17.88C250.847 17.912 251.063 17.976 251.255 18.072C251.447 18.152 251.631 18.272 251.807 18.432C251.983 18.592 252.183 18.808 252.407 19.08L269.039 40.08C268.959 39.408 268.903 38.76 268.871 38.136C268.839 37.496 268.823 36.896 268.823 36.336V17.832H275.975ZM290.919 24.072V32.928H302.871V39.192H290.919V52.8H282.759V17.832H305.271V24.072H290.919ZM335.075 24.264H325.235V52.8H317.123V24.264H307.283V17.832H335.075V24.264Z" fill="#4C67F4"/>
<path fill-rule="evenodd" clip-rule="evenodd" d="M36.4449 3.45267C37.7874 3.88569 38.7003 5.15965 38.7003 6.6V23.1L51.6003 23.1C52.8028 23.1 53.9055 23.7846 54.4608 24.876C55.0161 25.9674 54.9319 27.2844 54.2423 28.2924L31.6673 61.2924C30.8601 62.4724 29.3982 62.9804 28.0557 62.5473C26.7132 62.1143 25.8003 60.8403 25.8003 59.4L25.8003 42.9H12.9003C11.6978 42.9 10.5951 42.2154 10.0398 41.124C9.48446 40.0326 9.56868 38.7156 10.2583 37.7076L32.8333 4.70757C33.6405 3.52759 35.1024 3.01964 36.4449 3.45267Z" fill="#4C67F4" stroke="black" stroke-width="1.5" stroke-linecap="round" stroke-linejoin="round"/>
<path fill-rule="evenodd" clip-rule="evenodd" d="M61.9449 3.45267C63.2874 3.88569 64.2003 5.15965 64.2003 6.6V23.1L77.1003 23.1C78.3028 23.1 79.4055 23.7846 79.9608 24.876C80.5161 25.9674 80.4319 27.2844 79.7423 28.2924L57.1673 61.2924C56.3601 62.4724 54.8982 62.9804 53.5557 62.5473C52.2132 62.1143 51.3003 60.8403 51.3003 59.4L51.3003 42.9H38.4003C37.1978 42.9 36.0951 42.2154 35.5398 41.124C34.9845 40.0326 35.0687 38.7156 35.7583 37.7076L58.3333 4.70757C59.1405 3.52759 60.6024 3.01964 61.9449 3.45267Z" fill="#56E39F" stroke="black" stroke-width="1.5" stroke-linecap="round" stroke-linejoin="round"/>
</svg>
