<svg width="468" height="808" viewBox="0 0 468 808" fill="none" xmlns="http://www.w3.org/2000/svg">
<mask id="mask0_92_766" style="mask-type:alpha" maskUnits="userSpaceOnUse" x="0" y="0" width="468" height="808">
<rect width="468" height="808" rx="12" fill="black"/>
</mask>
<g mask="url(#mask0_92_766)">
<path d="M358.398 213.991C358.398 213.991 318.109 187.208 272.981 187.27L269.564 195.669C310.897 202.452 330.607 215.236 351.397 231.203C316.559 216.691 282.226 203.223 224.554 207.691C166.882 212.159 135.034 230.754 102.846 250.459C120.929 231.48 141.844 213.974 178.23 202.745L173.56 194.972C126.838 203.068 93.2776 234.531 93.2776 234.531C93.2776 234.531 55.6158 299.334 57.6884 420.653C104.277 466.66 169.245 462.019 169.245 462.019L181.422 442.864C157.752 436.638 130.612 424.346 106.115 400.231C134.514 418.451 176.64 436.441 241.885 431.387C307.129 426.332 345.981 402.068 371.236 379.692C350.745 407.292 325.822 423.617 303.394 433.414L318.375 450.465C318.375 450.465 383.283 445.045 422.23 392.411C405.592 272.221 358.398 213.991 358.398 213.991ZM183.539 377.564C167.524 378.804 153.392 364.972 151.974 346.67C150.556 328.368 162.389 312.524 178.404 311.283C194.419 310.043 208.551 323.875 209.969 342.177C211.387 360.479 199.554 376.323 183.539 377.564ZM291.244 369.219C275.229 370.46 261.097 356.627 259.679 338.326C258.261 320.024 270.094 304.18 286.109 302.939C302.124 301.699 316.256 315.531 317.674 333.833C319.092 352.134 307.259 367.979 291.244 369.219Z" fill="#8C9EFF"/>
</g>
</svg>
