<svg width="204" height="148" viewBox="0 0 204 148" fill="none" xmlns="http://www.w3.org/2000/svg">
<path d="M175.75 18.5C175.75 18.5 154.544 1.9055 129.5 0L127.243 4.514C149.887 10.0547 160.275 17.9959 171.125 27.75C152.417 18.1994 133.945 9.25 101.75 9.25C69.5554 9.25 51.0831 18.1994 32.375 27.75C43.2252 17.9959 55.5832 9.18062 76.257 4.514L74 0C47.7254 2.48362 27.75 18.5 27.75 18.5C27.75 18.5 4.06537 52.8406 0 120.25C23.8742 147.783 60.125 148 60.125 148L67.7054 137.894C54.8386 133.422 40.3069 125.435 27.75 111C42.7257 122.331 65.3281 134.125 101.75 134.125C138.172 134.125 160.774 122.331 175.75 111C163.193 125.435 148.661 133.422 135.795 137.894L143.375 148C143.375 148 179.626 147.783 203.5 120.25C199.435 52.8406 175.75 18.5 175.75 18.5ZM71.6875 101.75C62.7474 101.75 55.5 93.4666 55.5 83.25C55.5 73.0334 62.7474 64.75 71.6875 64.75C80.6276 64.75 87.875 73.0334 87.875 83.25C87.875 93.4666 80.6276 101.75 71.6875 101.75ZM131.812 101.75C122.872 101.75 115.625 93.4666 115.625 83.25C115.625 73.0334 122.872 64.75 131.812 64.75C140.753 64.75 148 73.0334 148 83.25C148 93.4666 140.753 101.75 131.812 101.75Z" fill="#8C9EFF"/>
</svg>
