<svg width="468" height="808" viewBox="0 0 468 808" fill="none" xmlns="http://www.w3.org/2000/svg">
<mask id="mask0_303_713" style="mask-type:alpha" maskUnits="userSpaceOnUse" x="0" y="0" width="468" height="808">
<rect width="468" height="808" rx="12" fill="black"/>
</mask>
<g mask="url(#mask0_303_713)">
<path d="M151.346 376.039L173.303 374.338L177.33 426.318C177.856 433.108 182.939 438.885 189.794 438.353L287.18 430.809C294.033 430.278 300.027 423.643 299.501 416.853L295.474 364.874L317.169 363.193C317.184 363.192 317.198 363.191 317.207 363.19C324.062 362.659 329.205 356.881 328.679 350.089C328.402 346.514 326.622 343.568 323.989 341.511L234.97 261.924C232.435 259.661 229.071 258.477 225.667 258.741C222.265 259.004 219.921 260.476 217.766 263.103L193.893 293.077L192.54 275.62C192.038 269.137 185.261 264.373 178.268 264.915C171.276 265.457 165.313 271.206 165.815 277.69L169.21 321.513L140.843 355.9C137.704 359.727 137.128 365.281 139.438 369.645C141.744 374.008 146.385 376.424 151.346 376.039ZM228.265 292.253L286.645 344.433L280.525 344.908C273.672 345.438 267.297 348.197 267.823 354.985L271.855 407.031L203.133 412.355L199.101 360.309C198.575 353.521 189.994 351.921 183.139 352.452L178.621 352.802L228.265 292.253Z" fill="#39619B"/>
<path d="M109.397 428.475L74.9327 444.012L72.2441 438.049L87.5583 431.146L80.6103 415.735L65.2975 422.64L62.5926 416.639L97.0566 401.103L99.7613 407.102L85.4194 413.567L92.3675 428.979L106.709 422.513L109.397 428.475ZM126.495 472.213L122.736 475.8L112.023 464.573L103.609 472.601L116.135 485.727L112.338 489.35L95.2691 471.464L122.619 445.365L139.559 463.116L135.723 466.777L123.327 453.786L115.78 460.986L126.495 472.213ZM159.951 518.581L161.192 509.334L148.145 502.69L141.42 509.146L135.331 506.046L165.209 478.837L170.468 481.514L166.064 521.694L159.951 518.581ZM164.181 487.313L152.183 498.813L161.953 503.786L164.181 487.313ZM206.023 531.724L195.261 530.104L200.888 492.72L211.94 494.384C215.242 494.881 218.06 496.06 220.393 497.92C222.736 499.772 224.403 502.156 225.392 505.071C226.39 507.987 226.626 511.193 226.1 514.688L225.818 516.558C225.284 520.106 224.108 523.117 222.29 525.591C220.48 528.067 218.157 529.832 215.322 530.888C212.495 531.952 209.395 532.231 206.023 531.724ZM211.151 499.627L206.607 498.942L202.55 525.893L206.778 526.53C210.185 527.043 212.962 526.374 215.108 524.523C217.248 522.664 218.635 519.743 219.27 515.761L219.584 513.68C220.194 509.623 219.778 506.39 218.336 503.982C216.9 501.584 214.506 500.132 211.151 499.627ZM278.336 489.518L285.558 526.625L279.139 527.874L275.93 511.387L259.337 514.615L262.546 531.104L256.087 532.361L248.864 495.253L255.324 493.996L258.329 509.438L274.921 506.208L271.916 490.766L278.336 489.518ZM332.369 480.05L333.472 481.843C335.409 484.999 336.566 488.102 336.941 491.156C337.315 494.208 336.88 496.994 335.633 499.51C334.391 502.035 332.45 504.109 329.809 505.731C327.198 507.335 324.479 508.126 321.65 508.102C318.826 508.085 316.132 507.24 313.571 505.561C311.008 503.884 308.773 501.511 306.866 498.44L305.75 496.624C303.82 493.485 302.673 490.369 302.306 487.28C301.941 484.191 302.38 481.388 303.628 478.87C304.87 476.346 306.804 474.277 309.429 472.664C312.055 471.051 314.77 470.253 317.574 470.27C320.374 470.281 323.053 471.13 325.613 472.819C328.173 474.509 330.424 476.92 332.369 480.05ZM327.875 485.282L326.843 483.601C324.65 480.031 322.295 477.709 319.781 476.637C317.263 475.558 314.763 475.781 312.281 477.306C309.86 478.793 308.552 480.905 308.357 483.641C308.157 486.37 309.106 489.475 311.205 492.96L312.349 494.822C314.524 498.363 316.894 500.674 319.456 501.757C322.023 502.849 324.532 502.641 326.984 501.135C329.459 499.615 330.784 497.497 330.961 494.782C331.135 492.08 330.107 488.914 327.875 485.282ZM336.853 451.196L342.01 444.408L371.672 453.254L355.182 427.063L360.322 420.296L390.429 443.161L386.464 448.379L376.536 440.838L363.659 430.239L380.107 456.749L377.264 460.494L347.349 451.758L360.994 461.302L370.923 468.843L366.959 474.061L336.853 451.196ZM389.163 384.09L394.149 385.55L389.787 400.444L400.947 403.712L406.047 386.301L411.084 387.776L404.133 411.502L367.854 400.876L374.752 377.329L379.839 378.819L374.791 396.051L384.801 398.983L389.163 384.09Z" fill="#39619B"/>
<path d="M53.3776 281.92L89.3471 291.784L87.6394 298.015L71.6572 293.632L67.2468 309.715L83.2277 314.099L81.5156 320.342L45.5447 310.477L47.2582 304.234L62.2234 308.339L66.6349 292.254L51.6684 288.15L53.3776 281.92ZM95.9152 239.292L100.129 242.216L91.3961 254.801L100.83 261.347L111.036 246.638L115.283 249.585L101.386 269.613L70.7414 248.349L84.5407 228.464L88.8307 231.441L78.723 246.008L87.1825 251.877L95.9152 239.292ZM151.302 219.888L143.742 214.635L132.028 223.101L134.666 231.912L129.213 235.852L118.776 197.375L123.495 193.965L156.776 215.931L151.302 219.888ZM125.765 202.086L130.45 217.8L139.205 211.472L125.765 202.086ZM187.032 203.695L176.8 206.901L165.65 171.307L176.164 168.015C179.307 167.03 182.315 166.856 185.185 167.492C188.066 168.134 190.575 169.536 192.713 171.696C194.856 173.843 196.449 176.583 197.492 179.913L198.05 181.693C199.107 185.066 199.362 188.243 198.816 191.225C198.279 194.203 196.986 196.776 194.938 198.943C192.879 201.106 190.245 202.69 187.032 203.695ZM177.725 172.998L173.389 174.356L181.432 200.034L185.462 198.772C188.707 197.754 190.881 195.958 191.982 193.379C193.084 190.81 193.058 187.621 191.903 183.815L191.281 181.83C190.071 177.967 188.309 175.28 185.993 173.772C183.667 172.259 180.911 172 177.725 172.998ZM258.274 160.503L256.837 197.774L250.381 197.526L251.02 180.967L234.355 180.325L233.716 196.884L227.246 196.635L228.684 159.363L235.152 159.613L234.554 175.121L251.219 175.763L251.817 160.255L258.274 160.503ZM315.962 197.741L315.158 199.657C313.74 203.031 311.918 205.743 309.689 207.792C307.457 209.85 304.972 211.104 302.232 211.552C299.499 212.004 296.724 211.638 293.907 210.455C291.116 209.284 288.916 207.56 287.308 205.286C285.693 203.009 284.82 200.36 284.692 197.341C284.564 194.32 285.183 191.16 286.549 187.862L287.359 185.934C288.768 182.576 290.605 179.865 292.867 177.801C295.143 175.732 297.647 174.471 300.378 174.02C303.111 173.569 305.882 173.933 308.69 175.112C311.49 176.287 313.69 178.001 315.287 180.251C316.893 182.506 317.755 185.145 317.872 188.169C317.988 191.195 317.352 194.386 315.962 197.741ZM309.188 197.151L309.941 195.358C311.539 191.55 312.046 188.325 311.462 185.681C310.874 183.045 309.256 181.172 306.613 180.061C304.025 178.975 301.577 179.137 299.271 180.547C296.968 181.97 295.024 184.524 293.438 188.212L292.608 190.188C291.019 193.971 290.528 197.205 291.137 199.887C291.739 202.557 293.351 204.443 295.97 205.542C298.615 206.653 301.073 206.5 303.344 205.085C305.613 203.668 307.563 201.024 309.188 197.151ZM353.394 202.81L359.431 208.639L347.319 236.679L374.899 223.572L380.927 229.392L355.019 256.224L350.372 251.737L358.912 242.892L370.798 231.5L342.906 244.529L339.571 241.309L351.614 213.015L340.665 225.275L332.125 234.12L327.487 229.643L353.394 202.81ZM396.764 288.046L392.12 290.223L385.619 276.351L375.223 281.223L382.819 297.434L378.138 299.628L367.795 277.554L401.569 261.728L411.84 283.644L407.111 285.861L399.588 269.806L390.264 274.175L396.764 288.046Z" fill="#39619B"/>
<path d="M51.1492 365.352C50.533 357.399 56.4806 350.454 64.4324 349.838C72.3842 349.222 79.3291 355.168 79.9453 363.121C80.5613 371.073 74.6151 378.018 66.6633 378.634C58.7115 379.25 51.7652 373.304 51.1492 365.352ZM385.839 339.423C385.223 331.47 391.17 324.525 399.121 323.909C407.073 323.293 414.019 329.239 414.635 337.192C415.252 345.144 409.304 352.089 401.352 352.705C393.4 353.321 386.455 347.375 385.839 339.423Z" fill="#39619B"/>
</g>
</svg>
