<svg width="127" height="131" viewBox="0 0 127 131" fill="none" xmlns="http://www.w3.org/2000/svg">
<path d="M39.3185 72.5487H46.0219V88.4184C46.0219 90.4914 47.4288 92.364 49.5217 92.364H79.2542C81.3465 92.364 83.3216 90.4914 83.3216 88.4184V72.5487H89.9452C89.9499 72.5487 89.9539 72.5487 89.9569 72.5487C92.0497 72.5487 93.7463 70.9162 93.7463 68.8426C93.7463 67.751 93.2754 66.8151 92.5247 66.1291L67.3801 39.8826C66.6638 39.136 65.6707 38.6978 64.6315 38.6978C63.593 38.6978 62.847 39.0894 62.1313 39.836L54.1812 48.3711V43.0414C54.1812 41.0622 52.2364 39.4571 50.1016 39.4571C47.9668 39.4571 46.0219 41.0616 46.0219 43.0414V56.4208L36.6043 66.1897C35.5617 67.2772 35.2563 68.9493 35.8549 70.3282C36.4522 71.7065 37.8038 72.5487 39.3185 72.5487ZM64.6321 48.9294L81.1227 66.1378H79.2542C77.1619 66.1378 75.1623 66.825 75.1623 68.8974V84.7875H54.1812V68.8974C54.1812 66.825 51.6145 66.1378 49.5217 66.1378H48.1422L64.6321 48.9294Z" fill="#39619B"/>
<path d="M25.3552 87.476L14.5306 91.3808L13.8549 89.5081L18.6648 87.7732L16.9185 82.9328L12.109 84.6681L11.4292 82.7836L22.2537 78.8788L22.9336 80.7629L18.429 82.388L20.1753 87.2284L24.6798 85.6033L25.3552 87.476ZM29.5158 101.152L28.2907 102.152L25.3035 98.4927L22.5611 100.731L26.0541 105.009L24.8165 106.02L20.057 100.19L28.971 92.9128L33.6947 98.6981L32.4444 99.719L28.9876 95.4848L26.5282 97.4925L29.5158 101.152ZM38.579 116.01L39.173 113.233L35.3698 110.91L33.1771 112.711L31.4019 111.627L41.1092 104.072L42.6424 105.008L40.3611 117.099L38.579 116.01ZM40.5981 106.62L36.6863 109.828L39.5345 111.567L40.5981 106.62ZM52.2521 121.082L49.0242 120.338L51.6109 109.124L54.9258 109.889C55.9162 110.118 56.7436 110.542 57.408 111.161C58.0756 111.778 58.5253 112.541 58.7571 113.449C58.9912 114.357 58.9876 115.336 58.7457 116.384L58.6164 116.945C58.3708 118.009 57.9431 118.895 57.3332 119.603C56.7257 120.312 55.9793 120.793 55.0941 121.047C54.211 121.304 53.2637 121.315 52.2521 121.082ZM54.5631 111.462L53.2002 111.147L51.3352 119.231L52.6034 119.524C53.6255 119.759 54.4838 119.622 55.1787 119.111C55.8719 118.597 56.3614 117.743 56.6477 116.549L56.792 115.925C57.0726 114.708 57.0221 113.717 56.6412 112.952C56.2618 112.191 55.5694 111.694 54.5631 111.462ZM75.1905 109.973L76.5098 121.405L74.5322 121.633L73.9459 116.554L68.8343 117.144L69.4206 122.223L67.4307 122.453L66.1114 111.021L68.1012 110.791L68.6501 115.548L73.7617 114.959L73.2128 110.202L75.1905 109.973ZM91.8113 108.371L92.1036 108.941C92.6175 109.944 92.8957 110.913 92.9375 111.849C92.9794 112.784 92.7818 113.619 92.3443 114.353C91.9081 115.09 91.2701 115.674 90.4305 116.104C89.6003 116.53 88.7566 116.706 87.8987 116.632C87.042 116.56 86.2443 116.24 85.5064 115.671C84.768 115.102 84.1455 114.329 83.6389 113.352L83.3429 112.775C82.831 111.777 82.5562 110.804 82.5175 109.858C82.4793 108.912 82.6785 108.071 83.1164 107.337C83.5527 106.6 84.1882 106.017 85.0229 105.59C85.8576 105.162 86.7005 104.983 87.5511 105.055C88.4004 105.124 89.1937 105.444 89.9308 106.017C90.668 106.59 91.2945 107.375 91.8113 108.371ZM90.3244 109.853L90.0508 109.318C89.4689 108.183 88.8091 107.423 88.0711 107.039C87.3323 106.652 86.5684 106.661 85.7792 107.066C85.0095 107.46 84.5631 108.07 84.4395 108.896C84.3146 109.719 84.5297 110.684 85.0847 111.791L85.388 112.383C85.965 113.509 86.6298 114.266 87.3819 114.655C88.1353 115.046 88.9018 115.042 89.6812 114.643C90.4679 114.24 90.92 113.628 91.0376 112.809C91.1538 111.993 90.9164 111.007 90.3244 109.853ZM93.8503 99.7194L95.5751 97.7804L104.369 101.162L99.9804 92.8262L101.699 90.8933L110.299 98.5403L108.973 100.031L106.137 97.5088L102.478 93.9894L106.847 102.422L105.896 103.491L97.0225 100.137L100.939 103.354L103.775 105.876L102.45 107.366L93.8503 99.7194ZM111.303 80.5836L112.782 81.1438L111.108 85.5614L114.418 86.8157L116.376 81.6517L117.869 82.2176L115.202 89.2548L104.442 85.1767L107.089 78.1929L108.598 78.7645L106.661 83.8757L109.63 85.0007L111.303 80.5836Z" fill="#39619B"/>
<path d="M11.7996 41.6816L22.4838 45.521L21.8191 47.3718L17.0718 45.6657L15.3552 50.4431L20.1021 52.1491L19.4357 54.0035L8.75098 50.1642L9.41778 48.3098L13.863 49.9072L15.58 45.1295L11.1344 43.532L11.7996 41.6816ZM25.7113 29.7448L26.9213 30.7311L23.9752 34.3453L26.6843 36.5538L30.1277 32.3298L31.347 33.3239L26.6587 39.0754L17.8585 31.9017L22.5139 26.1912L23.7459 27.1955L20.3358 31.3788L22.7652 33.3589L25.7113 29.7448ZM42.9766 25.1581L40.8058 23.3862L37.0518 25.6802L37.645 28.4161L35.8975 29.4837L33.6349 17.5611L35.147 16.6374L44.731 24.086L42.9766 25.1581ZM35.645 19.1553L36.6973 24.0343L39.5031 22.3198L35.645 19.1553ZM54.2008 21.0842L51.0201 21.8164L48.4732 10.7521L51.7414 10.0003C52.7184 9.77505 53.6353 9.79294 54.4915 10.0536C55.3506 10.3162 56.0792 10.8005 56.6773 11.5063C57.277 12.2084 57.6962 13.0773 57.9345 14.1125L58.0618 14.6658C58.3033 15.7144 58.3061 16.6845 58.0703 17.5766C57.8373 18.4678 57.3844 19.2183 56.7119 19.8278C56.0361 20.4357 55.1994 20.8544 54.2008 21.0842ZM52.098 11.549L50.7501 11.8592L52.5875 19.8412L53.8402 19.553C54.8489 19.3204 55.5507 18.8264 55.9455 18.0697C56.3403 17.3159 56.4074 16.3475 56.1463 15.1651L56.0044 14.5483C55.7279 13.3473 55.2563 12.4906 54.5891 11.9783C53.9186 11.4644 53.0884 11.3213 52.098 11.549ZM76.8371 9.65104L75.5246 20.9284L73.5714 20.7012L74.1544 15.6908L69.112 15.1041L68.5289 20.1145L66.5712 19.8868L67.8837 8.60938L69.841 8.83706L69.2949 13.5294L74.3374 14.1161L74.8835 9.42376L76.8371 9.65104ZM93.4689 22.3084L93.1798 22.8711C92.6704 23.8615 92.0536 24.6418 91.3291 25.2114C90.6033 25.7834 89.8194 26.1055 88.9774 26.177C88.1374 26.2498 87.3038 26.0737 86.4768 25.6485C85.6572 25.2272 85.0302 24.6523 84.5956 23.9245C84.1589 23.1955 83.9564 22.371 83.9885 21.4517C84.0207 20.532 84.2829 19.5875 84.7749 18.6186L85.066 18.0527C85.5726 17.0667 86.1939 16.2873 86.929 15.714C87.6681 15.1395 88.4577 14.8159 89.2973 14.7431C90.1373 14.6703 90.9696 14.846 91.7942 15.27C92.6163 15.6925 93.2437 16.2641 93.6755 16.9846C94.1097 17.7067 94.3093 18.528 94.2736 19.4485C94.2378 20.3694 93.9698 21.3228 93.4689 22.3084ZM91.427 21.9701L91.6978 21.4436C92.2723 20.3255 92.502 19.3586 92.387 18.5426C92.2703 17.7286 91.8235 17.1224 91.0473 16.7231C90.2874 16.3324 89.5409 16.3243 88.8078 16.6979C88.0755 17.0757 87.4254 17.8051 86.8574 18.887L86.559 19.4672C85.9877 20.578 85.7629 21.5477 85.8844 22.3759C86.0044 23.2004 86.4492 23.8107 87.2185 24.2059C87.995 24.6052 88.7444 24.6165 89.4669 24.2405C90.189 23.864 90.8428 23.1073 91.427 21.9701ZM104.71 24.7267L106.405 26.6377L102.07 34.8628L110.748 31.5333L112.441 33.4414L103.947 40.9754L102.642 39.5044L105.442 37.021L109.317 33.8431L100.546 37.1413L99.6096 36.0858L103.93 27.7822L100.319 31.2455L97.5189 33.7289L96.2166 32.2611L104.71 24.7267ZM115.868 51.6145L114.407 52.1658L112.761 47.8032L109.491 49.0371L111.415 54.1357L109.943 54.6915L107.323 47.7491L117.945 43.7402L120.547 50.633L119.059 51.1945L117.154 46.1451L114.221 47.2518L115.868 51.6145Z" fill="#39619B"/>
<path d="M9.16162 66.9497C9.16162 64.5216 11.1299 62.5537 13.5576 62.5537C15.9854 62.5537 17.9532 64.5216 17.9532 66.9497C17.9532 69.3774 15.9854 71.3453 13.5576 71.3453C11.1299 71.3453 9.16162 69.3774 9.16162 66.9497ZM111.344 66.9497C111.344 64.5216 113.312 62.5537 115.74 62.5537C118.168 62.5537 120.136 64.5216 120.136 66.9497C120.136 69.3774 118.168 71.3453 115.74 71.3453C113.312 71.3453 111.344 69.3774 111.344 66.9497Z" fill="#39619B"/>
</svg>
