<svg width="468" height="808" viewBox="0 0 468 808" fill="none" xmlns="http://www.w3.org/2000/svg">
<mask id="mask0_92_5168" style="mask-type:alpha" maskUnits="userSpaceOnUse" x="0" y="0" width="468" height="808">
<rect width="468" height="808" rx="12" fill="black"/>
</mask>
<g mask="url(#mask0_92_5168)">
<path d="M223.084 243.948L216.806 244.435L216.077 235.02L212.94 235.263L214.374 213.05L223.789 212.321L212.915 194.216L149.914 196.092L149.66 192.802L142.812 193.332C142.138 191.225 141.136 189.279 139.865 187.54L144.331 182.324L137.156 176.181L132.69 181.397C130.776 180.413 128.703 179.718 126.513 179.377L125.983 172.538L116.569 173.268L117.099 180.115C114.906 180.765 113.047 181.791 111.307 183.062L106.091 178.588L99.9477 185.763L105.164 190.229C104.07 191.988 103.485 194.215 103.143 196.405L96.2959 196.936L96.5508 200.226L34.0216 208.076L22.925 227.882L32.3395 227.153L33.0689 236.567L38.1727 236.172L37.1827 248.879L30.9049 249.366L31.7602 260.406C24.5827 266.061 20.2652 275.069 21.0237 284.86C22.2323 300.46 35.7606 315.001 51.361 313.792C63.9166 312.819 85.9816 308.245 85.9816 308.245L84.885 294.09C89.0485 296.747 94.0666 298.148 99.3763 297.736C102.071 297.528 104.605 296.855 106.95 295.836C110.411 300.174 115.884 302.773 121.833 302.312C122.582 302.254 123.304 302.136 124.016 301.989C126.581 309.154 133.683 314.025 141.635 313.409C146.55 313.028 150.815 310.622 153.705 307.079L199.699 308.911L200.418 302.949C203.86 306.297 208.658 308.217 213.823 307.816C223.356 307.078 230.485 298.751 229.747 289.218C229.705 288.684 229.634 288.165 229.545 287.647L229.551 287.656L229.537 287.591C229.48 287.251 229.397 286.923 229.318 286.59L224.782 265.928L231.064 265.441L223.084 243.948Z" fill="#87643C"/>
<path d="M109.848 211.664C109.697 211.424 109.509 211.214 109.284 211.046C109.064 210.878 108.812 210.757 108.529 210.682C108.245 210.607 107.958 210.598 107.663 210.656C107.35 210.716 107.064 210.83 106.808 210.996C106.551 211.157 106.342 211.362 106.181 211.608C106.019 211.855 105.903 212.124 105.848 212.432C105.792 212.736 105.809 213.061 105.897 213.407C105.977 213.7 106.099 213.959 106.261 214.18C106.428 214.405 106.623 214.58 106.845 214.717C107.071 214.849 107.32 214.94 107.592 214.981C107.865 215.026 108.146 215.017 108.442 214.963C108.75 214.9 109.015 214.796 109.245 214.637C109.471 214.478 109.659 214.292 109.8 214.069C109.946 213.846 110.046 213.601 110.104 213.319C110.157 213.041 110.165 212.75 110.129 212.448C110.094 212.169 110.003 211.907 109.848 211.664ZM109.122 213.113C109.086 213.274 109.031 213.415 108.949 213.545C108.871 213.674 108.773 213.783 108.648 213.872C108.527 213.961 108.391 214.02 108.234 214.041C107.92 214.087 107.643 214.038 107.385 213.891C107.135 213.738 106.966 213.496 106.888 213.167C106.848 212.989 106.843 212.818 106.869 212.639C106.895 212.461 106.957 212.302 107.043 212.154C107.128 212.007 107.233 211.884 107.362 211.786C107.491 211.683 107.632 211.619 107.784 211.59C107.936 211.565 108.091 211.579 108.236 211.626C108.385 211.676 108.519 211.753 108.65 211.853C108.777 211.949 108.879 212.074 108.969 212.212C109.059 212.351 109.11 212.497 109.135 212.649C109.164 212.801 109.163 212.955 109.122 213.113ZM105.582 214.008C105.62 214.27 105.602 214.496 105.547 214.69C105.491 214.879 105.402 215.04 105.289 215.172C105.172 215.305 105.025 215.409 104.851 215.488C104.681 215.568 104.495 215.622 104.29 215.651C104.09 215.684 103.887 215.678 103.681 215.636C103.471 215.6 103.275 215.518 103.094 215.395C102.912 215.268 102.754 215.104 102.614 214.895C102.48 214.689 102.388 214.419 102.342 214.105L101.991 211.964L101.302 212.066L101.143 211.091L101.878 210.968L101.594 209.236L102.614 209.082L102.896 210.796L104.498 210.531L104.592 211.357L103.026 211.615L103.396 213.834C103.414 213.951 103.44 214.06 103.47 214.167C103.501 214.28 103.548 214.373 103.607 214.452C103.666 214.531 103.746 214.591 103.837 214.628C103.932 214.669 104.048 214.682 104.188 214.667C104.393 214.642 104.534 214.579 104.591 214.473C104.654 214.371 104.682 214.272 104.674 214.171C104.672 214.088 104.658 214.023 104.62 213.986C104.586 213.944 104.545 213.926 104.501 213.929C104.457 213.932 104.419 213.957 104.383 214.004C104.347 214.051 104.33 214.118 104.328 214.202L103.595 214.012C103.577 213.842 103.616 213.658 103.729 213.464C103.837 213.271 104.061 213.143 104.396 213.082C104.704 213.019 104.969 213.086 105.186 213.272C105.412 213.462 105.537 213.708 105.582 214.008ZM97.5661 215.608C97.4007 215.691 97.2369 215.739 97.0715 215.765C96.9535 215.779 96.8336 215.766 96.7129 215.744C96.5879 215.723 96.4786 215.679 96.3728 215.621C96.2669 215.563 96.1776 215.49 96.1048 215.404C96.0275 215.317 95.9803 215.219 95.9624 215.102L98.8044 214.582C98.7603 214.07 98.6448 213.66 98.4714 213.356C98.2893 213.053 98.0907 212.821 97.8675 212.671C97.6399 212.521 97.408 212.429 97.1718 212.395C96.9315 212.365 96.7239 212.359 96.5496 212.385C96.3363 212.42 96.117 212.489 95.9007 212.599C95.68 212.708 95.4846 212.86 95.3142 213.05C95.1438 213.239 95.0074 213.47 94.9095 213.742C94.8116 214.014 94.7828 214.325 94.8136 214.666C94.8522 215.051 94.9481 215.379 95.0969 215.649C95.2457 215.92 95.4345 216.139 95.6543 216.302C95.8745 216.47 96.1256 216.583 96.399 216.641C96.677 216.703 96.947 216.718 97.2263 216.683C97.5141 216.643 97.7685 216.57 98.006 216.451C98.2351 216.336 98.4369 216.153 98.6029 215.906L97.9474 215.296C97.8515 215.422 97.7272 215.525 97.5661 215.608ZM96.1203 213.613C96.2921 213.441 96.474 213.343 96.6694 213.306C96.8608 213.274 97.057 213.302 97.2542 213.402C97.4514 213.501 97.5836 213.672 97.6545 213.904L95.8739 214.245C95.8718 213.989 95.9526 213.78 96.1203 213.613ZM94.7268 216.788L93.1902 217.035L92.7614 214.288C92.7255 214.052 92.6425 213.891 92.5033 213.801C92.3685 213.71 92.234 213.681 92.0948 213.705C91.956 213.733 91.8391 213.817 91.7394 213.952C91.6397 214.088 91.6098 214.271 91.6403 214.493C91.731 215.152 91.8554 215.905 92.0004 216.753L92.6976 216.65L92.796 217.295L90.9427 217.606C90.8016 216.524 90.6493 215.469 90.4907 214.446C90.4657 214.294 90.3952 214.18 90.2796 214.11C90.1639 214.039 90.0389 214.018 89.9125 214.037C89.7865 214.06 89.6777 214.134 89.5901 214.256C89.5073 214.381 89.4767 214.555 89.5122 214.786C89.5308 214.912 89.5569 215.078 89.5941 215.273C89.6272 215.473 89.6755 215.756 89.7307 216.127C89.7902 216.497 89.8673 216.98 89.9627 217.585L88.2717 217.831L88.129 216.956L88.7157 216.849L88.1569 213.789L87.5399 213.903L87.4243 213.207L89.088 212.95L89.2207 213.583C89.3143 213.426 89.4417 213.306 89.5936 213.22C89.7459 213.137 89.9349 213.074 90.1566 213.035C90.3396 213.008 90.526 213.024 90.7245 213.084C90.9231 213.143 91.0633 213.247 91.1537 213.39C91.2571 213.188 91.3999 213.04 91.5946 212.937C91.7802 212.83 91.9689 212.762 92.1516 212.731C92.5515 212.66 92.9011 212.734 93.2089 212.953C93.5126 213.176 93.7015 213.51 93.7806 213.962L94.1003 216.039L94.6057 215.965L94.7268 216.788ZM87.1473 215.093C86.9965 214.853 86.8084 214.643 86.5838 214.475C86.3637 214.307 86.1119 214.186 85.8281 214.106C85.5449 214.036 85.2575 214.023 84.9623 214.081C84.6455 214.145 84.3632 214.255 84.1071 214.42C83.8511 214.586 83.6423 214.791 83.4759 215.033C83.3096 215.275 83.1985 215.548 83.1475 215.857C83.0873 216.161 83.108 216.485 83.1965 216.831C83.2722 217.125 83.398 217.384 83.5606 217.605C83.7278 217.83 83.9221 218.004 84.1439 218.137C84.3704 218.274 84.6151 218.361 84.8918 218.405C85.1642 218.45 85.4499 218.441 85.7411 218.388C86.0491 218.325 86.3139 218.216 86.5443 218.061C86.77 217.903 86.9583 217.716 87.0997 217.494C87.2455 217.271 87.3455 217.025 87.403 216.743C87.4608 216.465 87.4691 216.174 87.4285 215.877C87.3983 215.602 87.3031 215.341 87.1473 215.093ZM86.4269 216.546C86.3906 216.703 86.3314 216.848 86.2532 216.978C86.1751 217.107 86.0734 217.216 85.9525 217.305C85.8315 217.394 85.6907 217.453 85.538 217.474C85.2287 217.52 84.9473 217.471 84.6934 217.323C84.4392 217.171 84.2706 216.929 84.1966 216.599C84.1564 216.422 84.1519 216.25 84.1822 216.072C84.2084 215.898 84.2662 215.735 84.3561 215.587C84.4417 215.439 84.5467 215.316 84.6714 215.218C84.8001 215.116 84.9406 215.052 85.0969 215.022C85.2492 214.997 85.4002 215.012 85.5492 215.058C85.6985 215.108 85.8324 215.186 85.9588 215.282C86.0855 215.382 86.1918 215.502 86.2818 215.64C86.3678 215.783 86.4229 215.924 86.4435 216.077C86.4685 216.229 86.4629 216.384 86.4269 216.546ZM81.991 217.37L82.6188 217.907C82.3989 218.255 82.1504 218.516 81.8697 218.706C81.5888 218.89 81.2896 219.011 80.9715 219.057C80.6928 219.101 80.4225 219.082 80.1481 219.011C79.8738 218.94 79.6267 218.822 79.4112 218.658C79.1918 218.499 79.009 218.301 78.8589 218.071C78.7048 217.845 78.6062 217.597 78.5592 217.331C78.5102 217.04 78.5148 216.757 78.5777 216.488C78.6405 216.219 78.7536 215.972 78.9045 215.758C79.055 215.539 79.248 215.356 79.4744 215.207C79.7008 215.057 79.9579 214.962 80.2359 214.91C80.4189 214.882 80.6025 214.864 80.7875 214.863C80.9766 214.857 81.1559 214.896 81.3379 214.97L81.5334 214.421L82.4752 214.745L81.8896 216.289C81.7116 216.096 81.4894 215.959 81.2279 215.882C80.9619 215.805 80.7139 215.789 80.4841 215.838C80.1889 215.896 79.9622 216.042 79.8076 216.265C79.6534 216.493 79.6006 216.779 79.6625 217.123C79.7159 217.471 79.86 217.737 80.0987 217.917C80.3327 218.093 80.5902 218.174 80.8608 218.14C81.0663 218.12 81.2843 218.033 81.511 217.887C81.725 217.747 81.892 217.571 81.991 217.37ZM78.4741 219.361L76.3687 219.718L76.2087 218.734L76.7455 218.666L75.9201 213.53L75.2239 213.645L75.0924 212.858L76.8373 212.626L77.7673 218.543L78.3307 218.477L78.4741 219.361ZM74.2563 219.132C74.0909 219.216 73.9271 219.264 73.7613 219.285C73.6434 219.299 73.5238 219.29 73.4031 219.269C73.2781 219.248 73.1688 219.203 73.063 219.145C72.9571 219.088 72.8678 219.015 72.795 218.928C72.7177 218.842 72.6705 218.744 72.6529 218.631L75.4949 218.111C75.4508 217.599 75.3354 217.189 75.162 216.885C74.9842 216.581 74.7812 216.35 74.5584 216.205C74.3352 216.054 74.0989 215.963 73.8626 215.928C73.6223 215.898 73.4147 215.892 73.2405 215.919C73.0272 215.953 72.8079 216.023 72.5916 216.132C72.3709 216.242 72.1755 216.394 72.0051 216.583C71.8347 216.773 71.6983 217.004 71.6004 217.276C71.5025 217.548 71.4736 217.858 71.5045 218.2C71.5431 218.585 71.639 218.912 71.7878 219.183C71.9365 219.453 72.1251 219.668 72.3452 219.836C72.5697 220.003 72.8165 220.117 73.0898 220.175C73.3679 220.237 73.6379 220.251 73.9172 220.216C74.205 220.176 74.4594 220.104 74.6969 219.984C74.926 219.869 75.1278 219.686 75.2938 219.44L74.6383 218.83C74.5413 218.943 74.4174 219.049 74.2563 219.132ZM72.8105 217.138C72.9823 216.966 73.1642 216.868 73.364 216.83C73.5554 216.798 73.7516 216.827 73.9488 216.926C74.1463 217.03 74.2782 217.196 74.3494 217.433L72.5689 217.773C72.562 217.514 72.6427 217.305 72.8105 217.138ZM70.5661 214.791L69.9787 214.889L69.5188 220.5L68.3589 220.717L67.199 218.317L66.9771 221.199L64.909 221.47L64.7701 220.758L65.5162 220.66L63.6247 215.928L63.1021 216.008L62.9816 215.079L64.409 214.845L66.176 219.335L66.3908 216.476L67.4968 216.302L68.5479 218.777L68.8382 215.242L68.0314 215.353L67.8712 214.365L70.4079 214.001L70.5661 214.791Z" fill="white"/>
<path d="M127.496 284.112C126.458 283.175 125.419 282.502 124.436 281.877C122.5 280.665 120.618 279.63 119.741 278.552C119.307 278.021 119.147 277.655 119.126 277.154C119.097 276.676 119.223 275.851 119.453 275.401C119.852 274.475 120.911 273.922 122.429 273.936C123.895 273.973 125.417 274.626 125.949 275.629C126.001 275.735 126.073 277.352 126.073 277.352L130.466 276.994L129.662 267.016L125.27 267.374L125.444 269.565C124.611 269.224 123.754 268.968 122.886 268.859C121.417 268.678 119.828 268.814 118.315 269.478C116.791 270.111 115.417 271.377 114.623 272.853C113.837 274.373 113.502 275.792 113.588 277.521C113.66 279.248 114.517 280.988 115.518 282.123C117.582 284.418 119.765 285.403 121.554 286.538C123.38 287.587 124.814 288.736 125.086 289.632C125.239 290.069 125.268 290.68 125.091 291.355C124.915 291.976 124.657 292.345 124.314 292.587C123.675 293.099 122.063 293.048 121.022 292.243C119.969 291.452 119.575 290.402 119.898 289.007L115.087 287.771C114.718 289.21 114.646 290.899 115.191 292.47C115.697 294.052 116.757 295.394 118.006 296.328C120.466 298.152 124.037 298.853 127.182 296.9C128.705 295.909 129.691 294.295 130.112 292.79C130.524 291.343 130.644 289.646 130.118 287.968C129.579 286.309 128.519 285.02 127.496 284.112ZM146.047 293.962C145.009 293.024 143.97 292.351 142.987 291.727C141.051 290.515 139.168 289.479 138.291 288.402C137.858 287.871 137.697 287.504 137.676 287.004C137.648 286.525 137.773 285.7 138.003 285.251C138.403 284.325 139.462 283.771 140.979 283.786C142.445 283.822 143.968 284.476 144.499 285.479C144.552 285.585 144.624 287.201 144.624 287.201L149.017 286.843L148.213 276.866L143.82 277.224L143.994 279.414C143.161 279.073 142.304 278.818 141.436 278.709C139.968 278.527 138.379 278.664 136.865 279.327C135.341 279.961 133.967 281.227 133.174 282.703C132.388 284.223 132.053 285.641 132.138 287.371C132.21 289.097 133.068 290.838 134.068 291.972C136.132 294.267 138.315 295.253 140.104 296.388C141.931 297.436 143.364 298.586 143.636 299.481C143.789 299.919 143.819 300.529 143.642 301.204C143.465 301.826 143.207 302.194 142.865 302.437C142.226 302.949 140.613 302.898 139.572 302.092C138.519 301.301 138.125 300.252 138.449 298.856L133.632 297.612C133.264 299.051 133.192 300.74 133.736 302.311C134.242 303.894 135.303 305.235 136.552 306.169C139.011 307.993 142.583 308.695 145.728 306.741C147.251 305.75 148.236 304.136 148.658 302.631C149.07 301.185 149.19 299.487 148.663 297.809C148.13 296.163 147.069 294.87 146.047 293.962ZM82.8828 282.469C81.9612 280.13 79.8746 278.511 77.6268 277.998C76.5024 277.706 75.3286 277.744 74.2344 277.957C73.1939 278.121 71.9436 278.764 71.3594 279.131C70.9767 279.368 70.5984 279.605 70.2251 279.849L69.9786 277.691L59.8916 278.9L60.4157 283.276L64.2364 282.817L66.192 299.981L63.4769 300.262L64.001 304.637L78.1485 302.708L77.6823 298.796L72.4573 299.333L70.8546 285.301C71.6128 284.678 72.703 284.016 73.7798 283.466C74.522 283.091 74.6774 283.048 75.1572 282.984C75.5603 282.953 75.9613 282.953 76.3071 283.094C77.0214 283.325 77.5451 283.883 77.6809 284.441C77.7727 284.716 77.7637 284.999 77.6864 285.309C77.6716 285.46 77.5834 285.63 77.5262 285.802L77.0964 286.796L82.5585 288.978L82.9538 287.823C83.1264 287.263 83.2953 286.713 83.3488 286.096C83.4995 284.912 83.3681 283.613 82.8828 282.469ZM112.986 229.816C115.47 229.624 117.329 227.452 117.136 224.968C116.944 222.484 114.773 220.625 112.289 220.818C109.805 221.01 107.946 223.181 108.138 225.665C108.331 228.154 110.502 230.008 112.986 229.816ZM119.224 251.854L118.088 237.191L117.982 235.824L117.707 232.275L106.695 233.322L107.061 238.041L112.261 237.638L113.397 252.301L109.309 252.617L109.712 257.813L123.271 256.762L122.868 251.567L119.223 251.849L119.224 251.854ZM154.733 264.656C157.217 264.463 159.076 262.292 158.883 259.808C158.691 257.324 156.519 255.465 154.035 255.657C151.551 255.85 149.692 258.021 149.885 260.505C150.073 262.994 152.244 264.848 154.733 264.656ZM160.966 286.689L159.83 272.03L159.724 270.664L159.449 267.115L148.442 268.162L148.807 272.88L154.008 272.477L155.143 287.136L151.056 287.452L151.458 292.648L165.017 291.598L164.615 286.402L160.965 286.685L160.966 286.689ZM96.7367 265.601C89.4863 266.163 84.0495 272.613 84.6235 280.021C85.195 287.398 91.5604 292.934 98.8107 292.372C106.061 291.811 111.467 285.363 110.896 277.985C110.322 270.582 103.987 265.039 96.7367 265.601ZM98.378 286.787C94.4878 287.088 91.0462 283.851 90.7129 279.549C90.38 275.251 93.2816 271.519 97.1718 271.217C101.062 270.916 104.473 274.155 104.806 278.457C105.14 282.759 102.268 286.485 98.378 286.787ZM62.7343 268.491L61.1608 271.389L57.8688 277.422C56.4801 275.824 54.6822 274.575 52.58 273.949C52.191 273.82 51.8047 273.727 51.3874 273.632C44.7187 272.315 38.1194 277.185 36.6656 284.53C35.2467 291.872 39.482 298.868 46.1504 300.181C49.9674 300.925 53.8117 299.803 56.7484 297.376L59.58 303.151C56.7473 305.327 53.3497 306.696 49.7092 306.979C48.0751 307.105 46.4591 307.01 44.8568 306.693C34.6299 304.674 27.3228 296.368 29.8816 283.319C31.6473 274.31 39.2054 267.537 47.8051 266.871C49.4392 266.744 51.0552 266.839 52.6551 267.125C53.7457 267.323 54.7809 267.657 55.7897 268.05L57.199 265.478L62.7343 268.491ZM187.712 243.163C187.736 241.253 187.756 239.347 187.807 237.439L187.916 232.883C187.929 232.141 187.965 231.407 187.929 230.312C187.848 229.323 187.708 228.32 187.399 227.343C186.217 223.288 182.291 220.573 178.438 220.105C176.435 219.841 174.527 220.134 172.779 220.719C171.001 221.333 169.404 222.382 168.118 223.592L170.922 226.958C171.962 226.221 173.062 225.748 174.198 225.497C175.354 225.235 176.542 225.214 177.533 225.481C179.678 225.927 181.189 227.507 181.971 229.24C182.173 229.687 182.314 230.192 182.358 230.709C182.377 230.892 182.375 231.161 182.371 231.448C180.472 230.15 178.033 229.435 175.413 229.638C169.889 230.066 165.704 234.304 166.079 239.14C166.453 243.972 171.243 247.55 176.768 247.122C178.463 246.991 180 246.466 181.351 245.705L181.323 248.127L190.353 248.234L190.412 243.196L187.712 243.163ZM177.579 242.921C174.819 243.135 172.688 241.343 172.503 238.956C172.319 236.572 174.146 234.505 176.911 234.291C178.856 234.14 180.871 234.9 181.828 236.215L181.956 238.091C181.9 238.968 181.827 239.846 181.763 240.724C180.907 241.896 179.27 242.79 177.579 242.921ZM206.716 209.249L196.614 208.115L196.05 213.121L200.212 213.587L196.816 245.759L194.067 245.491L193.583 250.504L205.502 251.67L205.986 246.657L202.771 246.342L206.716 209.249ZM160.899 246.518L160.193 231.884C159.988 227.651 156.44 224.352 152.2 224.46C147.368 224.834 145.742 227.904 145.742 227.904C145.742 227.904 143.998 224.17 139.494 224.519C134.991 224.868 133.756 227.696 133.756 227.696L133.495 223.701L123.138 224.336L123.43 228.095L126.474 227.859L127.988 247.393L124.487 247.664L124.887 252.816L134.949 252.037L134.638 248.019L133.975 233.946C133.889 232.145 135.25 230.603 137.051 230.464C138.935 230.318 140.563 231.765 140.643 233.654L141.462 253.436L152.304 252.596L152.034 249.109L148.018 249.438L147.294 234.117C147.203 232.141 148.698 230.447 150.669 230.295C152.75 230.133 154.545 231.74 154.61 233.828L155.191 252.033L164.431 251.317L164.04 246.275L160.899 246.518ZM75.0641 232.745L74.1619 228.381L83.9063 226.278L84.567 230.312C84.567 230.312 87.0877 225.815 92.9625 225.36C97.0805 225.041 100.788 227.843 101.596 231.897L104.286 245.342L107.073 244.91L107.978 249.878L99.2478 251.537L96.0668 234.996C95.5947 232.543 93.2681 230.898 90.794 231.275C85.3877 232.43 86.2806 237.641 86.2806 237.641L89.7817 252.852L80.7393 255.029L79.8893 251.168L83.1262 250.454L78.8775 231.339L75.0641 232.745ZM165.066 278.178L165.046 274.332L174.789 274.203L174.863 278.283C174.863 278.283 178.222 274.374 184.069 275.093C188.167 275.595 191.244 279.077 191.238 283.207L191.216 296.919L194.038 297.049L193.944 302.098L185.06 301.993L185.218 285.149C185.24 282.649 183.286 280.579 180.787 280.46C175.261 280.518 175.102 285.81 175.102 285.81L175.526 301.414L166.232 301.759L166.159 297.807L169.473 297.744L169.093 278.166L165.066 278.178ZM75.7871 252.09L73.0622 252.473L57.1047 219.888L42.8703 222.401L43.7204 227.686L49.3055 226.79L46.748 257.777L42.7256 258.591L43.8772 264.297L43.9076 264.29L43.9079 264.295L52.1168 262.68L53.2249 248.483L62.0816 247.039L65.4108 253.546L59.4422 254.383L60.3414 260.188L76.6089 257.407L75.7871 252.09ZM53.8927 243.222L54.8526 231.151L60.3249 242.283L53.8927 243.222ZM222.478 291.029C222.395 290.581 222.244 290.06 222.14 289.684L221.837 288.721L216.999 273.322C215.857 269.62 214.647 265.946 213.436 262.267L215.917 261.458L214.545 257.117L206.011 259.89L207.219 263.71C204.922 262.949 202.384 262.846 199.891 263.603C193.442 265.522 189.801 272.34 191.753 278.76C193.671 285.208 200.489 288.849 206.912 286.933C209.586 286.122 211.74 284.452 213.252 282.352L215.958 290.608L216.27 291.567L216.437 292.175C216.501 292.554 216.54 292.943 216.504 293.325C216.444 294.092 216.151 294.855 215.688 295.486C214.791 296.767 213.026 297.42 211.711 297.107C211.016 296.954 210.352 296.582 209.865 296.043C208.871 294.815 208.93 293.982 209.415 293.588C209.954 293.154 210.505 293.433 210.826 293.818L214.015 291.239C212.712 289.273 210.389 288.175 208.173 288.871C206.003 289.418 204.005 291.283 203.649 293.801C203.371 296.405 204.277 298.089 205.409 299.68C206.602 301.249 208.349 302.348 210.253 302.87C214.203 303.9 218.255 302.171 220.546 299.142C221.694 297.63 222.428 295.788 222.606 293.879C222.705 292.937 222.639 291.973 222.478 291.029ZM205.436 281.366C201.48 281.673 198.075 278.843 197.78 275.044C197.488 271.277 200.422 267.956 204.374 267.65C205.596 267.555 206.781 267.78 207.83 268.232L207.861 268.23L211.073 277.897C209.957 279.817 207.885 281.177 205.436 281.366Z" fill="#4E342E"/>
<path d="M127.194 281.113C126.156 280.175 125.116 279.502 124.134 278.877C122.198 277.666 120.315 276.63 119.438 275.552C119.005 275.022 118.844 274.655 118.823 274.154C118.795 273.676 118.92 272.851 119.15 272.402C119.55 271.476 120.609 270.922 122.126 270.937C123.592 270.973 125.114 271.627 125.646 272.63C125.698 272.736 125.771 274.352 125.771 274.352L130.163 273.994L129.36 264.017L124.967 264.375L125.141 266.565C124.308 266.224 123.451 265.969 122.583 265.86C121.115 265.678 119.525 265.815 118.012 266.478C116.488 267.112 115.114 268.378 114.32 269.854C113.535 271.373 113.2 272.792 113.285 274.522C113.357 276.248 114.215 277.989 115.215 279.123C117.279 281.418 119.462 282.404 121.251 283.539C123.078 284.587 124.511 285.737 124.783 286.632C124.936 287.07 124.965 287.68 124.789 288.355C124.612 288.977 124.354 289.345 124.011 289.588C123.372 290.1 121.76 290.048 120.719 289.243C119.666 288.452 119.272 287.403 119.596 286.007L114.784 284.771C114.415 286.21 114.343 287.899 114.888 289.47C115.394 291.053 116.455 292.394 117.704 293.329C120.163 295.152 123.734 295.854 126.88 293.9C128.403 292.91 129.388 291.295 129.809 289.791C130.222 288.344 130.341 286.647 129.815 284.969C129.276 283.309 128.216 282.021 127.194 281.113ZM145.744 290.962C144.706 290.025 143.667 289.352 142.684 288.727C140.748 287.515 138.865 286.48 137.988 285.402C137.555 284.871 137.395 284.505 137.373 284.004C137.345 283.526 137.471 282.701 137.7 282.251C138.1 281.326 139.159 280.772 140.676 280.787C142.142 280.823 143.665 281.476 144.197 282.48C144.249 282.586 144.321 284.202 144.321 284.202L148.714 283.844L147.91 273.867L143.522 274.224L143.696 276.414C142.863 276.073 142.006 275.818 141.138 275.709C139.669 275.528 138.08 275.664 136.567 276.328C135.043 276.961 133.669 278.227 132.875 279.703C132.09 281.223 131.754 282.641 131.84 284.371C131.912 286.098 132.77 287.838 133.77 288.973C135.834 291.267 138.017 292.253 139.806 293.388C141.632 294.437 143.066 295.586 143.338 296.482C143.491 296.919 143.52 297.53 143.343 298.204C143.167 298.826 142.909 299.194 142.566 299.437C141.927 299.949 140.315 299.898 139.274 299.093C138.221 298.301 137.827 297.252 138.151 295.857L133.334 294.612C132.965 296.051 132.893 297.74 133.438 299.311C133.944 300.894 135.004 302.235 136.253 303.17C138.713 304.993 142.284 305.695 145.429 303.741C146.953 302.751 147.938 301.136 148.359 299.632C148.772 298.185 148.891 296.488 148.365 294.81C147.827 293.163 146.766 291.87 145.744 290.962ZM82.5801 279.47C81.6584 277.131 79.5718 275.512 77.324 274.998C76.1996 274.707 75.0259 274.745 73.9317 274.957C72.8911 275.121 71.6409 275.765 71.0567 276.132C70.674 276.369 70.2956 276.605 69.9224 276.85L69.6759 274.692L59.5889 275.901L60.113 280.276L63.9337 279.817L65.8893 296.982L63.1742 297.262L63.6983 301.638L77.8457 299.709L77.3796 295.796L72.1546 296.333L70.5518 282.301C71.3101 281.678 72.4003 281.017 73.4771 280.466C74.2193 280.091 74.3746 280.048 74.8545 279.985C75.2575 279.954 75.6586 279.953 76.0044 280.094C76.7187 280.325 77.2423 280.884 77.3781 281.442C77.4699 281.717 77.461 282 77.3836 282.31C77.3689 282.461 77.2807 282.631 77.2235 282.803L76.7937 283.797L82.2557 285.978L82.6609 284.836C82.8334 284.276 83.0023 283.725 83.0559 283.109C83.1968 281.912 83.0653 280.614 82.5801 279.47ZM112.687 226.816C115.171 226.624 117.03 224.452 116.838 221.968C116.646 219.484 114.474 217.625 111.99 217.818C109.506 218.01 107.647 220.182 107.84 222.666C108.028 225.154 110.199 227.009 112.687 226.816ZM118.921 248.854L117.785 234.191L117.679 232.824L117.404 229.276L106.392 230.323L106.758 235.041L111.958 234.638L113.094 249.301L109.007 249.618L109.409 254.813L122.968 253.763L122.565 248.567L118.921 248.85L118.921 248.854ZM154.43 261.656C156.914 261.464 158.773 259.292 158.58 256.808C158.388 254.324 156.217 252.465 153.733 252.658C151.249 252.85 149.39 255.021 149.582 257.505C149.77 259.99 151.941 261.849 154.43 261.656ZM160.663 283.689L159.527 269.031L159.421 267.664L159.147 264.116L148.139 265.162L148.505 269.881L153.705 269.478L154.84 284.136L150.753 284.453L151.156 289.649L164.714 288.598L164.312 283.402L160.663 283.685L160.663 283.689ZM96.434 262.601C89.1836 263.163 83.7468 269.613 84.3207 277.021C84.8923 284.399 91.2576 289.935 98.508 289.373C105.758 288.811 111.164 282.363 110.593 274.986C110.019 267.578 103.684 262.04 96.434 262.601ZM98.0753 283.787C94.1851 284.089 90.7435 280.852 90.4102 276.55C90.0772 272.252 92.9788 268.519 96.8691 268.218C100.759 267.916 104.17 271.156 104.504 275.458C104.837 279.76 101.966 283.486 98.0753 283.787ZM62.4313 265.487L60.8577 268.385L57.5657 274.418C56.1771 272.82 54.3791 271.571 52.2769 270.945C51.8879 270.817 51.5016 270.723 51.0844 270.628C44.4157 269.311 37.8164 274.181 36.3625 281.526C34.9437 288.868 39.1789 295.864 45.8473 297.177C49.6643 297.921 53.5086 296.799 56.4453 294.373L59.2769 300.147C56.4442 302.323 53.0466 303.693 49.4061 303.975C47.772 304.101 46.156 304.006 44.5537 303.689C34.3268 301.67 27.0197 293.364 29.5786 280.315C31.3443 271.306 38.9023 264.533 47.502 263.867C49.1361 263.74 50.7521 263.835 52.352 264.121C53.4427 264.319 54.4778 264.653 55.4867 265.046L56.896 262.474L62.4313 265.487ZM187.41 240.163C187.434 238.253 187.453 236.348 187.504 234.44L187.614 229.883C187.627 229.142 187.662 228.407 187.626 227.313C187.545 226.323 187.406 225.32 187.096 224.344C185.914 220.288 181.988 217.573 178.135 217.105C176.132 216.842 174.224 217.135 172.476 217.72C170.699 218.333 169.101 219.383 167.815 220.593L170.619 223.959C171.659 223.221 172.76 222.748 173.895 222.497C175.051 222.236 176.24 222.214 177.23 222.481C179.375 222.928 180.886 224.508 181.668 226.241C181.87 226.688 182.011 227.193 182.055 227.709C182.074 227.893 182.073 228.162 182.068 228.449C180.17 227.15 177.73 226.436 175.11 226.639C169.586 227.067 165.401 231.304 165.776 236.141C166.15 240.973 170.941 244.551 176.465 244.123C178.16 243.991 179.697 243.467 181.049 242.705L181.02 245.127L190.05 245.234L190.109 240.197L187.41 240.163ZM177.276 239.921C174.516 240.135 172.386 238.344 172.201 235.956C172.016 233.568 173.843 231.505 176.608 231.291C178.553 231.14 180.569 231.901 181.525 233.215L181.653 235.091C181.598 235.968 181.525 236.847 181.46 237.724C180.604 238.897 178.967 239.79 177.276 239.921ZM206.413 206.25L196.312 205.115L195.748 210.121L199.909 210.588L196.513 242.759L193.764 242.492L193.28 247.505L205.199 248.67L205.684 243.657L202.469 243.347L206.413 206.25ZM160.596 243.519L159.89 228.884C159.685 224.652 156.138 221.352 151.898 221.46C147.065 221.835 145.439 224.905 145.439 224.905C145.439 224.905 143.695 221.17 139.192 221.519C134.688 221.868 133.453 224.696 133.453 224.696L133.192 220.701L122.836 221.336L123.127 225.095L126.172 224.859L127.685 244.394L124.185 244.665L124.584 249.817L134.647 249.037L134.336 245.02L133.673 230.946C133.586 229.146 134.947 227.604 136.748 227.464C138.632 227.318 140.26 228.766 140.34 230.654L141.159 250.437L152.002 249.597L151.731 246.109L147.715 246.438L146.991 231.118C146.9 229.141 148.395 227.448 150.366 227.295C152.447 227.134 154.242 228.74 154.307 230.828L154.889 249.034L164.128 248.318L163.737 243.275L160.596 243.519ZM74.7613 229.746L73.8591 225.382L83.6035 223.278L84.2643 227.313C84.2643 227.313 86.785 222.816 92.6597 222.361C96.7778 222.042 100.485 224.844 101.293 228.898L103.983 242.343L106.77 241.911L107.675 246.878L98.945 248.537L95.7641 231.997C95.292 229.543 92.9654 227.899 90.4913 228.276C85.085 229.431 85.9779 234.641 85.9779 234.641L89.4789 249.852L80.4366 252.029L79.5865 248.168L82.8234 247.455L78.5748 228.34L74.7613 229.746ZM164.763 275.179L164.743 271.333L174.486 271.204L174.56 275.284C174.56 275.284 177.919 271.374 183.766 272.094C187.864 272.596 190.941 276.077 190.935 280.207L190.913 293.92L193.735 294.049L193.641 299.098L184.757 298.993L184.915 282.15C184.938 279.649 182.984 277.579 180.484 277.46C174.958 277.518 174.799 282.81 174.799 282.81L175.224 298.414L165.929 298.76L165.857 294.807L169.17 294.745L168.791 275.167L164.763 275.179ZM75.4887 249.09L72.7639 249.473L56.8064 216.888L42.5719 219.401L43.4221 224.686L49.0071 223.79L46.4496 254.777L42.4229 255.591L43.5745 261.298L43.6048 261.291L43.6052 261.295L51.8141 259.681L52.9222 245.483L61.7789 244.039L65.108 250.546L59.1394 251.383L60.0387 257.188L76.3062 254.408L75.4887 249.09ZM53.5896 240.218L54.5495 228.147L60.0218 239.279L53.5896 240.218ZM222.175 288.029C222.092 287.582 221.942 287.06 221.838 286.685L221.534 285.721L216.696 270.323C215.554 266.621 214.344 262.946 213.134 259.268L215.614 258.458L214.242 254.118L205.708 256.89L206.917 260.71C204.619 259.949 202.081 259.846 199.588 260.603C193.139 262.522 189.498 269.34 191.45 275.76C193.369 282.209 200.187 285.85 206.609 283.933C209.283 283.122 211.437 281.453 212.949 279.352L215.655 287.609L215.968 288.567L216.134 289.176C216.198 289.554 216.237 289.944 216.201 290.325C216.141 291.092 215.848 291.856 215.385 292.486C214.489 293.768 212.724 294.42 211.408 294.108C210.713 293.955 210.05 293.583 209.563 293.043C208.569 291.816 208.627 290.983 209.112 290.588C209.652 290.154 210.202 290.433 210.523 290.818L213.712 288.24C212.41 286.274 210.086 285.176 207.87 285.872C205.7 286.419 203.703 288.284 203.347 290.801C203.068 293.405 203.974 295.089 205.107 296.681C206.299 298.25 208.046 299.349 209.951 299.871C213.9 300.9 217.953 299.172 220.243 296.143C221.391 294.63 222.125 292.788 222.304 290.88C222.403 289.938 222.337 288.973 222.175 288.029ZM205.133 278.367C201.178 278.673 197.772 275.843 197.478 272.045C197.186 268.277 200.119 264.956 204.071 264.65C205.293 264.555 206.478 264.781 207.527 265.233L207.558 265.231L210.77 274.898C209.654 276.818 207.582 278.177 205.133 278.367Z" fill="#FFCA28"/>
<path d="M124.174 211.986C131.909 211.387 137.694 204.631 137.095 196.895C136.495 189.16 129.739 183.375 122.004 183.975C114.269 184.574 108.484 191.33 109.083 199.066C109.682 206.801 116.439 212.585 124.174 211.986Z" fill="#87643C"/>
<path d="M124 209.748C130.499 209.244 135.359 203.568 134.856 197.069C134.352 190.57 128.676 185.71 122.177 186.213C115.678 186.717 110.818 192.393 111.322 198.892C111.825 205.391 117.502 210.251 124 209.748Z" fill="#F7E7C1"/>
<path d="M123.195 199.356C123.955 199.297 124.523 198.633 124.464 197.874C124.406 197.114 123.742 196.546 122.982 196.605C122.223 196.663 121.654 197.327 121.713 198.087C121.772 198.847 122.436 199.415 123.195 199.356Z" fill="#87643C"/>
<path d="M122.414 189.831C121.809 189.878 121.28 189.425 121.233 188.82L121.033 186.231C120.986 185.627 121.439 185.098 122.043 185.051C122.648 185.004 123.176 185.457 123.223 186.062L123.424 188.651C123.471 189.255 123.014 189.784 122.414 189.831Z" fill="#87643C"/>
<path d="M123.092 198.593C122.488 198.64 121.959 198.187 121.912 197.583L121.596 193.504C121.549 192.899 122.002 192.371 122.607 192.324C123.211 192.277 123.74 192.73 123.787 193.334L124.103 197.413C124.15 198.017 123.693 198.546 123.092 198.593Z" fill="#87643C"/>
<path d="M120.357 202.37C120.09 202.391 119.82 202.319 119.594 202.138C119.116 201.766 119.036 201.075 119.409 200.597L122.033 197.26C122.405 196.782 123.1 196.702 123.574 197.075C124.052 197.448 124.132 198.138 123.759 198.616L121.136 201.953C120.939 202.202 120.655 202.347 120.357 202.37Z" fill="#87643C"/>
<path d="M124.044 210.872C123.439 210.919 122.91 210.466 122.863 209.862L122.663 207.277C122.616 206.673 123.069 206.144 123.674 206.097C124.278 206.05 124.807 206.503 124.854 207.107L125.054 209.692C125.101 210.297 124.644 210.826 124.044 210.872Z" fill="#87643C"/>
<path d="M134.939 198.147L132.355 198.347C131.75 198.394 131.221 197.941 131.174 197.336C131.128 196.732 131.58 196.203 132.185 196.156L134.77 195.956C135.374 195.909 135.903 196.362 135.95 196.966C135.996 197.571 135.544 198.1 134.939 198.147Z" fill="#87643C"/>
<path d="M113.898 199.777L111.309 199.977C110.704 200.024 110.176 199.572 110.129 198.967C110.082 198.362 110.535 197.834 111.139 197.787L113.728 197.586C114.333 197.54 114.862 197.992 114.908 198.597C114.955 199.201 114.503 199.73 113.898 199.777Z" fill="#87643C"/>
<path d="M129.146 192.024C128.865 192.046 128.577 191.963 128.345 191.765C127.883 191.368 127.829 190.676 128.225 190.214L129.91 188.245C130.307 187.783 130.999 187.729 131.461 188.125C131.924 188.521 131.978 189.213 131.581 189.676L129.896 191.644C129.698 191.876 129.426 192.003 129.146 192.024Z" fill="#87643C"/>
<path d="M116.099 193.035C115.823 193.057 115.53 192.974 115.299 192.776L113.326 191.091C112.864 190.694 112.81 190.002 113.206 189.54C113.598 189.077 114.29 189.024 114.757 189.42L116.73 191.105C117.192 191.501 117.246 192.193 116.85 192.655C116.647 192.887 116.38 193.014 116.099 193.035Z" fill="#87643C"/>
<path d="M132.125 206.765C131.845 206.786 131.556 206.703 131.325 206.505L129.357 204.82C128.894 204.424 128.841 203.731 129.237 203.269C129.633 202.806 130.325 202.753 130.787 203.149L132.756 204.834C133.218 205.23 133.272 205.922 132.876 206.385C132.678 206.612 132.406 206.743 132.125 206.765Z" fill="#87643C"/>
<path d="M120.749 200.938C120.749 200.938 120.417 198.245 118.367 198.813C116.323 199.386 117.086 201.275 117.17 202.022C117.25 202.769 117.209 204.857 116.46 206.048C117.474 205.26 119.09 204.385 120.297 204.548C121.504 204.71 123.039 204.053 123.157 203.008C123.274 201.963 122.317 200.702 120.749 200.938Z" fill="#87643C"/>
<path d="M413.281 200.014L406.928 207.434L413.063 286.63L398.49 277.368L396.355 249.821L390.536 264.128L382.582 250.888L383.916 268.105L369.342 258.842L365.339 207.164C365.193 205.277 366.603 203.63 368.49 203.484L378.848 202.681L386.534 212.478L392.621 201.614L413.281 200.014Z" fill="#BE1622"/>
<path d="M282.272 210.16L248 212.805L255.421 219.172L261.557 298.368L293.856 268.154L289.867 216.666C289.565 212.771 286.167 209.862 282.272 210.16ZM282.192 251.737L272.396 259.424L269.728 224.991L280.058 224.191L282.192 251.737Z" fill="#BE1622"/>
<path d="M320.311 207.216L299.651 208.817C295.846 209.112 293.003 212.432 293.298 216.237L297.032 264.444L322.47 279.793L331.999 268.663L327.731 213.57C327.436 209.765 324.116 206.922 320.311 207.216ZM320.602 255.69L309.739 249.603L307.605 222.057L317.935 221.257L320.602 255.69Z" fill="#BE1622"/>
<path d="M354.744 204.549L337.527 205.883C333.722 206.178 330.879 209.498 331.174 213.303L335.442 268.396L346.573 277.926L365.899 259.109L362.164 210.902C361.869 207.097 358.549 204.254 354.744 204.549ZM354.502 246.136L344.705 253.822L342.038 219.389L352.368 218.589L354.502 246.136Z" fill="#BE1622"/>
</g>
</svg>
