<svg width="148" height="148" viewBox="0 0 148 148" fill="none" xmlns="http://www.w3.org/2000/svg">
<path fill-rule="evenodd" clip-rule="evenodd" d="M89.0919 18.6629C91.5562 19.335 93.0091 21.8775 92.337 24.3419L64.587 126.092C63.9149 128.556 61.3724 130.009 58.9081 129.337C56.4438 128.665 54.9909 126.122 55.663 123.658L83.413 21.908C84.0851 19.4437 86.6276 17.9908 89.0919 18.6629ZM103.105 38.3546C104.911 36.5484 107.839 36.5484 109.645 38.3546L142.02 70.7296C143.827 72.5357 143.827 75.4641 142.02 77.2703L109.645 109.645C107.839 111.451 104.911 111.451 103.105 109.645C101.298 107.839 101.298 104.911 103.105 103.105L132.209 73.9999L103.105 44.8953C101.298 43.0891 101.298 40.1607 103.105 38.3546ZM44.8954 38.3546C46.7015 40.1607 46.7015 43.0891 44.8954 44.8953L15.7907 73.9999L44.8954 103.105C46.7015 104.911 46.7015 107.839 44.8954 109.645C43.0892 111.451 40.1608 111.451 38.3546 109.645L5.97963 77.2703C4.17346 75.4641 4.17346 72.5357 5.97963 70.7296L38.3546 38.3546C40.1608 36.5484 43.0892 36.5484 44.8954 38.3546Z" fill="#0F172A"/>
</svg>
