<svg width="148" height="148" viewBox="0 0 148 148" fill="none" xmlns="http://www.w3.org/2000/svg">
<path fill-rule="evenodd" clip-rule="evenodd" d="M9.25 34.6875C9.25 28.3017 14.4267 23.125 20.8125 23.125H127.188C133.573 23.125 138.75 28.3017 138.75 34.6875V113.312C138.75 119.698 133.573 124.875 127.188 124.875H20.8125C14.4267 124.875 9.25 119.698 9.25 113.312V34.6875ZM18.5 34.6875V43.9375C18.5 45.2147 19.5353 46.25 20.8125 46.25H30.0625C31.3397 46.25 32.375 45.2147 32.375 43.9375V34.6875C32.375 33.4103 31.3397 32.375 30.0625 32.375H20.8125C19.5353 32.375 18.5 33.4103 18.5 34.6875ZM117.938 32.375C116.66 32.375 115.625 33.4103 115.625 34.6875V43.9375C115.625 45.2147 116.66 46.25 117.938 46.25H127.188C128.465 46.25 129.5 45.2147 129.5 43.9375V34.6875C129.5 33.4103 128.465 32.375 127.188 32.375H117.938ZM129.5 57.8125C129.5 56.5353 128.465 55.5 127.188 55.5H117.938C116.66 55.5 115.625 56.5353 115.625 57.8125V67.0625C115.625 68.3397 116.66 69.375 117.938 69.375H127.188C128.465 69.375 129.5 68.3397 129.5 67.0625V57.8125ZM129.5 80.9375C129.5 79.6603 128.465 78.625 127.188 78.625H117.938C116.66 78.625 115.625 79.6603 115.625 80.9375V90.1875C115.625 91.4647 116.66 92.5 117.938 92.5H127.188C128.465 92.5 129.5 91.4647 129.5 90.1875V80.9375ZM129.5 104.062C129.5 102.785 128.465 101.75 127.188 101.75H117.938C116.66 101.75 115.625 102.785 115.625 104.062V113.312C115.625 114.59 116.66 115.625 117.938 115.625H127.188C128.465 115.625 129.5 114.59 129.5 113.312V104.062ZM30.0625 115.625C31.3397 115.625 32.375 114.59 32.375 113.312V104.062C32.375 102.785 31.3397 101.75 30.0625 101.75H20.8125C19.5353 101.75 18.5 102.785 18.5 104.062V113.312C18.5 114.59 19.5353 115.625 20.8125 115.625H30.0625ZM20.8125 92.5H30.0625C31.3397 92.5 32.375 91.4647 32.375 90.1875V80.9375C32.375 79.6603 31.3397 78.625 30.0625 78.625H20.8125C19.5353 78.625 18.5 79.6603 18.5 80.9375V90.1875C18.5 91.4647 19.5353 92.5 20.8125 92.5ZM20.8125 69.375H30.0625C31.3397 69.375 32.375 68.3397 32.375 67.0625V57.8125C32.375 56.5353 31.3397 55.5 30.0625 55.5H20.8125C19.5353 55.5 18.5 56.5353 18.5 57.8125V67.0625C18.5 68.3397 19.5353 69.375 20.8125 69.375ZM46.25 69.375C43.6957 69.375 41.625 71.4457 41.625 74C41.625 76.5543 43.6957 78.625 46.25 78.625H101.75C104.304 78.625 106.375 76.5543 106.375 74C106.375 71.4457 104.304 69.375 101.75 69.375H46.25Z" fill="#0F172A"/>
</svg>
