<svg width="148" height="148" viewBox="0 0 148 148" fill="none" xmlns="http://www.w3.org/2000/svg">
<path fill-rule="evenodd" clip-rule="evenodd" d="M74 13.875C40.7939 13.875 13.875 40.7939 13.875 74C13.875 107.206 40.7939 134.125 74 134.125C107.206 134.125 134.125 107.206 134.125 74C134.125 40.7939 107.206 13.875 74 13.875ZM78.625 37C78.625 34.4457 76.5543 32.375 74 32.375C71.4457 32.375 69.375 34.4457 69.375 37V74C69.375 76.5543 71.4457 78.625 74 78.625H101.75C104.304 78.625 106.375 76.5543 106.375 74C106.375 71.4457 104.304 69.375 101.75 69.375H78.625V37Z" fill="#0F172A"/>
</svg>
