<svg width="148" height="148" viewBox="0 0 148 148" fill="none" xmlns="http://www.w3.org/2000/svg">
<path d="M138.75 79.5592C138.75 73.1613 133.471 67.9567 126.981 67.9567C126.962 67.9567 126.947 67.9628 126.928 67.9628C134.319 64.1672 134.02 52.4197 134.014 52.2902L134.005 52.0652L133.82 51.9326C133.579 51.763 133.32 51.5873 133.043 51.3961C132.26 50.8627 131.276 50.1843 130.086 49.1822L130.126 46.5614C131.06 47.2675 132.818 47.2768 133.847 46.1945C134.316 45.7012 134.581 44.9396 134.544 44.1533C134.501 43.2684 134.094 42.3465 133.422 41.6959C129.623 38.0329 126.25 34.373 126.25 34.373C125.902 33.8303 125.356 33.4357 125.041 33.3031C124.576 33.0842 122.923 32.338 121.665 34.2281C120.722 35.6464 120.688 37.4995 120.823 38.6095C120.823 38.6064 120.82 38.6064 120.82 38.6033C117.95 34.5827 109.332 24.1117 94.6552 18.4013C93.6439 12.0558 89.9347 10.7978 88.0662 10.7978C85.0507 10.7978 82.029 12.4043 78.9734 14.7599C78.9426 14.7568 78.9056 14.7599 78.8747 14.7568L78.7175 14.3837C77.3886 11.4885 75.7112 9.25 74.2867 9.25C73.1644 9.25 71.1818 10.7362 68.9988 14.7537C68.9341 14.7599 68.8663 14.7568 68.8046 14.763C65.7583 12.4073 62.7304 10.8009 59.718 10.8009C57.8526 10.8009 54.1341 12.062 53.1351 18.3828C38.8962 23.9051 30.3863 33.9167 27.2721 38.1902C27.3338 37.0647 27.2012 35.4737 26.3718 34.2342C25.123 32.3442 23.4765 33.0903 22.9955 33.3093C22.6903 33.4449 22.1352 33.8365 21.793 34.3822C21.793 34.3822 18.3582 38.1162 14.5749 41.7915C14.0415 42.3157 13.4526 43.2715 13.4033 44.1595C13.357 44.9457 13.6777 45.7351 14.1402 46.2284C15.1731 47.3168 16.9799 47.2737 17.9049 46.5645L17.9573 48.9602C16.65 50.0826 15.6017 50.801 14.763 51.3745C14.4732 51.5718 14.2049 51.7568 13.9582 51.9357L13.7732 52.0682L13.764 52.2933C13.7578 52.4228 13.4402 64.195 20.8618 67.9783C14.4454 68.0615 9.25 73.2261 9.25 79.5839C9.25 85.9911 14.5287 91.205 21.0191 91.205C21.7097 91.205 22.3758 91.1156 23.0356 91.0046C22.533 91.3838 22.0489 91.7908 21.6203 92.2533C20.1989 93.795 18.5832 96.4837 18.9687 100.541C19.5021 106.064 27.4139 118.052 40.3207 125.282C45.1554 127.998 50.1473 130.07 55.2595 131.55C56.4034 134.356 58.4168 137.353 62.2278 137.353C65.3081 137.353 67.2321 135.861 68.3174 134.569C69.0266 136.046 70.7779 138.75 74.1912 138.75C77.6568 138.75 79.3681 136.012 80.1173 134.273C81.0732 135.679 82.9478 137.353 86.3087 137.353C90.2276 137.353 92.241 134.165 93.3726 131.288C98.1795 129.824 102.879 127.841 107.436 125.282C120.343 118.055 128.26 106.067 128.797 100.541C129.182 96.4868 127.57 93.7981 126.148 92.2564C125.704 91.7754 125.202 91.3468 124.678 90.9583C125.424 91.1063 126.195 91.1896 126.984 91.1896C133.471 91.1834 138.75 85.9695 138.75 79.5592ZM14.6952 52.5462C14.8832 52.4136 15.0837 52.2779 15.2933 52.133C17.5873 50.5636 21.4292 47.9366 27.7253 39.1367C31.6812 33.5837 46.694 15.4691 73.8797 15.4691C101.041 15.4691 116.084 33.5867 120.05 39.1367C126.37 47.9797 130.215 50.5944 132.512 52.1577C132.713 52.2933 132.901 52.4228 133.083 52.5462C133.089 54.3037 132.799 65.8168 124.567 67.895C119.439 69.1715 114.25 66.2423 108.706 58.9379C108.496 58.6635 108.225 58.2842 107.892 57.8156C106.316 55.6048 103.369 51.4917 99.0952 47.471V47.4124L98.5433 46.9283C98.0777 46.5152 97.4857 45.9972 96.866 45.4915C96.8691 45.4915 96.8691 45.4946 96.8722 45.4946C91.1649 40.7339 83.5028 36.5868 73.8797 36.5868C64.9412 36.5868 57.7077 40.1697 52.1484 44.4925C51.0014 45.3312 49.1946 46.8358 48.8246 47.2243L48.6982 47.3569V47.4309C44.3938 51.4701 41.4338 55.611 39.8552 57.8341C39.5283 58.2935 39.2632 58.6666 39.0566 58.9379C33.5035 66.2423 28.3143 69.1715 23.199 67.895C14.9603 65.8168 14.689 54.3006 14.6952 52.5462ZM98.1579 47.8626L98.1209 98.309L77.4533 111.419C76.2539 111.546 75.0514 111.672 73.8797 111.672C72.7081 111.672 71.5056 111.546 70.3062 111.419L49.6386 98.309V47.8256C51.0014 46.5676 52.4999 45.3312 54.1279 44.1687C53.7055 44.4709 53.3047 44.7823 52.9007 45.0937H94.7693C95.2596 45.4052 95.7961 45.8214 96.3141 46.2469C95.4631 45.5347 94.572 44.8409 93.6316 44.1687H54.1279C59.3542 40.4348 65.9371 37.5149 73.8828 37.5149C92.2872 37.5149 103.458 53.1967 107.127 58.349C107.47 58.8269 107.747 59.2154 107.96 59.496C112.773 65.8384 117.389 68.9957 121.986 69.0975C117.999 70.9567 115.215 74.9312 115.215 79.5623C115.215 83.4782 117.197 86.9284 120.21 89.0374C119.726 88.9542 119.242 88.8647 118.764 88.8647C114.37 88.8647 112.409 91.0786 111.237 92.3982L111.071 92.5863C102.175 102.576 90.5729 109.304 79.6517 111.129L99.0613 98.8177L99.0983 48.7691C98.7838 48.4669 98.4817 48.1647 98.1579 47.8626ZM79.6456 111.126C78.9087 111.25 78.181 111.342 77.4533 111.419C78.1841 111.342 78.9117 111.25 79.6456 111.126ZM68.1139 111.129C57.1866 109.307 45.5902 102.579 36.704 92.5863L36.5467 92.4106C35.372 91.0847 33.4079 88.8647 28.9957 88.8647C28.6226 88.8647 28.2403 88.948 27.861 89.0004C30.8303 86.8883 32.7851 83.4658 32.7851 79.5839C32.7851 74.9127 29.9638 70.9043 25.9339 69.0574C30.4757 68.8878 35.0421 65.7675 39.8089 59.496C40.0186 59.2216 40.2899 58.8392 40.6229 58.3706C42.0998 56.2955 44.8101 52.5122 48.7012 48.7321V98.8147L68.1139 111.129ZM21.0191 90.28C15.0467 90.28 10.1873 85.4823 10.1873 79.5808C10.1873 73.6824 15.0467 68.8817 21.0191 68.8817C26.9915 68.8817 31.8508 73.6824 31.8508 79.5808C31.8508 85.4823 26.9915 90.28 21.0191 90.28ZM125.452 92.8762C126.747 94.2791 128.214 96.7334 127.863 100.452C127.345 105.78 119.606 117.401 106.97 124.477C96.5608 130.329 85.4299 133.296 73.8797 133.296C62.3327 133.296 51.1987 130.329 40.7832 124.477C28.1478 117.401 20.4147 105.783 19.8998 100.455C19.5452 96.7365 21.016 94.2822 22.311 92.8762C24.0654 90.9737 26.6277 89.7897 28.9926 89.7897C32.9824 89.7897 34.7707 91.8124 35.8376 93.018L35.9948 93.1968C46.6354 105.163 61.1517 112.6 73.8736 112.6C86.5892 112.6 101.109 105.166 111.765 93.1999L111.934 93.0118C113.001 91.8093 114.789 89.7928 118.758 89.7928C121.132 89.7897 123.694 90.9707 125.452 92.8762ZM116.149 79.5592C116.149 73.6701 121.008 68.8786 126.981 68.8786C132.953 68.8786 137.813 73.6701 137.813 79.5592C137.813 85.4577 132.953 90.2584 126.981 90.2584C121.008 90.2584 116.149 85.4607 116.149 79.5592Z" fill="black"/>
<path d="M137.813 79.5593C137.813 85.4577 132.953 90.2584 126.981 90.2584C121.009 90.2584 116.149 85.4577 116.149 79.5593C116.149 73.6701 121.009 68.8786 126.981 68.8786C132.953 68.8786 137.813 73.6732 137.813 79.5593ZM21.0192 90.28C26.9917 90.28 31.851 85.4823 31.851 79.5808C31.851 73.6824 26.9917 68.8817 21.0192 68.8817C15.0468 68.8817 10.1875 73.6824 10.1875 79.5808C10.1875 85.4823 15.0468 90.28 21.0192 90.28ZM40.7865 124.474C51.202 130.326 62.3359 133.293 73.883 133.293C85.4332 133.293 96.5671 130.326 106.973 124.474C119.609 117.401 127.348 105.78 127.866 100.449C128.221 96.7303 126.75 94.276 125.455 92.8731C123.697 90.9676 121.135 89.7867 118.764 89.7867C114.796 89.7867 113.01 91.8032 111.941 93.0057L111.771 93.1938C101.115 105.16 86.5956 112.594 73.8799 112.594C61.155 112.594 46.6417 105.16 36.0012 93.1907L35.8439 93.0118C34.774 91.8032 32.9857 89.7836 28.9989 89.7836C26.634 89.7836 24.0717 90.9676 22.3173 92.87C21.0223 94.2729 19.5516 96.7273 19.9062 100.449C20.418 105.78 28.1479 117.401 40.7865 124.474ZM120.05 39.1368C116.085 33.5837 101.041 15.4691 73.8799 15.4691C46.6973 15.4691 31.6814 33.5868 27.7255 39.1368C21.4293 47.9366 17.5906 50.5636 15.2935 52.133C15.0838 52.2779 14.8834 52.4136 14.6953 52.5462C14.6892 54.3006 14.9574 65.8168 23.2023 67.8981C28.3175 69.1746 33.5098 66.2454 39.0598 58.941C39.2664 58.6697 39.5316 58.2966 39.8584 57.8372C43.5954 52.5832 54.9698 36.5899 73.8799 36.5899C92.7715 36.5899 104.152 52.5647 107.892 57.8156C108.225 58.2843 108.497 58.6635 108.706 58.9379C114.25 66.2423 119.439 69.1715 124.567 67.895C132.799 65.8168 133.086 54.3037 133.083 52.5462C132.904 52.4198 132.713 52.2933 132.513 52.1577C130.216 50.5944 126.371 47.9828 120.05 39.1368ZM93.5485 18.019C89.1486 16.5637 85.8217 15.4321 80.4042 14.9573C82.9017 13.246 85.1187 11.7968 87.6686 11.7968C89.0098 11.7968 90.1537 12.3025 90.4189 13.2275C90.6656 14.0693 89.9934 14.4362 89.7529 14.3776C89.5032 14.3128 89.3243 14.2419 89.386 14.0138C89.4508 13.7733 89.2627 13.1597 88.4086 13.1597C87.5422 13.1597 87.2153 13.9521 87.2153 14.4948C87.2153 15.0374 88.0879 15.947 89.6974 15.947C91.273 15.947 92.0808 14.911 92.0192 13.9521C92.7808 15.0498 93.2217 16.1628 93.5485 18.019ZM74.0865 12.3179C73.9477 13.1473 72.9796 13.9428 72.0022 13.9428C71.0217 13.9428 70.7287 13.7856 70.7287 13.7856C70.5807 14.0138 70.4482 14.1895 70.294 14.4362C71.182 14.4023 73.2448 14.3468 74.0711 14.3468C74.8943 14.3468 77.1822 14.4639 77.6755 14.4978C76.88 12.6571 75.3476 10.1103 74.2869 10.1103C74.2499 10.1103 74.2037 10.1072 74.1482 10.1072C73.9015 10.1072 73.0412 10.841 72.5818 11.4885C71.9775 12.3364 74.0865 12.3179 74.0865 12.3179ZM129.004 48.3806L129.013 45.9787C124.86 42.2139 122.905 38.4338 122.905 38.4338C122.905 38.4338 124.431 37.8664 125.113 37.0093C125.452 36.5313 125.581 35.8808 125.523 35.446C125.39 34.6258 124.743 34.2127 124.524 34.1171C124.046 33.9136 123.158 33.4542 122.171 34.7954C121.12 36.2477 121.397 39.0042 121.542 39.6363C121.542 39.6363 123.478 42.9601 129.004 48.3806ZM54.2298 18.019C58.6297 16.5637 61.9567 15.4321 67.3741 14.9573C64.8766 13.246 62.6597 11.7968 60.1098 11.7968C58.7685 11.7968 57.6246 12.3025 57.3594 13.2275C57.1127 14.0693 57.7849 14.4362 58.0254 14.3776C58.2752 14.3128 58.454 14.2419 58.3923 14.0138C58.3276 13.7733 58.5157 13.1597 59.3697 13.1597C60.2362 13.1597 60.563 13.9521 60.563 14.4948C60.563 15.0374 59.6904 15.947 58.0809 15.947C56.5053 15.947 55.6975 14.911 55.7592 13.9521C55.0007 15.0498 54.5567 16.1628 54.2298 18.019ZM91.9976 131.951C89.571 132.586 87.8382 133.123 83.7528 133.613C83.7528 133.613 83.8822 134.02 84.7733 133.989C85.1125 133.968 85.1587 133.885 85.2759 133.863C85.538 133.817 85.9172 134.079 85.8802 134.517C85.8402 134.825 85.5781 135.207 84.6716 135.207C83.7651 135.207 82.7075 134.48 82.1741 133.798C82.1741 133.798 81.6314 133.925 81.0672 133.949C81.0672 133.949 82.8123 136.357 86.2441 136.357C90.0088 136.354 91.4118 133.018 91.9976 131.951ZM18.7777 48.3806L18.7684 45.9787C22.9217 42.2139 24.8765 38.4338 24.8765 38.4338C24.8765 38.4338 23.3503 37.8664 22.6688 37.0093C22.3297 36.5313 22.2002 35.8808 22.2588 35.446C22.3913 34.6258 23.0388 34.2127 23.2578 34.1171C23.7357 33.9136 24.6237 33.4542 25.6103 34.7954C26.6617 36.2477 26.3843 39.0042 26.2393 39.6363C26.2393 39.6363 24.303 42.9601 18.7777 48.3806ZM23.3718 38.8716C22.8107 39.8367 21.3985 42.1646 17.828 45.4699C17.236 46.0188 15.756 46.4843 14.9143 45.5563C14.5998 45.1955 14.3932 44.6898 14.424 44.1009C14.4641 43.4226 14.8773 42.6302 15.2935 42.2818C16.0119 41.6805 19.0829 38.6218 21.2628 36.2168C21.3245 36.6547 21.7068 37.3885 21.7068 37.3885C22.0059 37.7986 22.3759 38.3875 23.3718 38.8716ZM77.4134 133.814C76.7875 134.699 76.3682 134.652 75.6282 134.652C75.2458 134.652 74.6939 134.958 74.7001 135.519C74.7155 135.96 75.0824 136.32 75.6837 136.32C77.0496 136.32 78.0948 134.452 78.3723 133.656C78.3723 133.656 79.174 133.622 79.4053 133.601C79.4053 133.601 77.9715 137.828 74.2438 137.828C70.5098 137.828 68.9867 133.65 68.9867 133.65C68.9867 133.65 72.1348 133.838 73.9293 133.838C75.7268 133.841 76.8708 133.823 77.4134 133.814ZM56.5639 131.951C58.9905 132.586 60.7233 133.123 64.8087 133.613C64.8087 133.613 64.6792 134.02 63.7882 133.989C63.449 133.968 63.4027 133.885 63.2856 133.863C63.0235 133.817 62.6443 134.079 62.6813 134.517C62.7213 134.825 62.9834 135.207 63.8899 135.207C64.7964 135.207 65.854 134.48 66.3874 133.798C66.3874 133.798 66.9301 133.925 67.4943 133.949C67.4943 133.949 65.7492 136.357 62.3174 136.357C58.5496 136.354 57.1467 133.018 56.5639 131.951ZM124.41 38.8716C124.971 39.8367 126.383 42.1646 129.953 45.4699C130.545 46.0188 132.025 46.4843 132.867 45.5563C133.182 45.1955 133.388 44.6898 133.357 44.1009C133.317 43.4226 132.904 42.6302 132.488 42.2818C131.769 41.6805 128.698 38.6218 126.519 36.2168C126.457 36.6547 126.075 37.3885 126.075 37.3885C125.772 37.7986 125.405 38.3875 124.41 38.8716ZM77.4535 111.419L98.1211 98.309L98.1581 47.8626C98.3215 48.0137 98.4726 48.1648 98.6267 48.3128C97.3009 47.0548 95.8487 45.8091 94.2577 44.6282H94.2268C94.9422 45.1585 95.6513 45.6888 96.3112 46.2438C95.7932 45.8214 95.2567 45.4021 94.7664 45.0907H52.9194C51.7601 45.9787 50.6501 46.8883 49.6388 47.8225V98.3059L70.3063 111.416C71.5058 111.543 72.7083 111.669 73.8799 111.669C75.0547 111.675 76.2541 111.546 77.4535 111.419ZM76.7875 112.394C75.8162 112.477 74.8358 112.6 73.8799 112.6C72.9241 112.6 71.9467 112.477 70.9754 112.394L73.883 114.238L76.7875 112.394Z" fill="#FFE500"/>
<path d="M98.6636 48.3529C98.5033 48.1987 98.3214 48.0507 98.158 47.8996V47.8657C98.3337 48.026 98.4971 48.1895 98.6636 48.3529ZM70.3062 111.419L49.6386 98.309V47.8256C50.1073 47.394 50.6099 46.9685 51.1125 46.546V46.4597H51.2111C51.2759 46.4042 51.3376 46.3487 51.4054 46.2932V46.4597H96.3974V46.3148C96.4529 46.361 96.5022 46.4104 96.5577 46.4597H96.6965V46.583C97.2052 47.0178 97.6862 47.4556 98.1611 47.8965L98.124 98.306L77.4565 111.416C76.2571 111.543 75.0545 111.669 73.8829 111.669C72.7081 111.675 71.5056 111.546 70.3062 111.419ZM72.1686 74.7246C72.1686 74.7246 72.5509 76.1553 73.3834 77.4688C74.2066 76.1245 74.552 74.7246 74.552 74.7246H72.1686ZM74.5982 71.4378C74.9867 71.6382 75.4862 71.37 75.6096 70.6885C75.6774 70.2815 75.81 69.4429 75.625 69.3689C75.4554 69.2949 74.8418 69.7851 74.552 70.2199C74.2745 70.6639 74.2005 71.222 74.5982 71.4378ZM71.9435 70.2168C71.6629 69.779 71.0832 69.2918 70.9075 69.3658C70.7255 69.4398 70.8396 70.2785 70.9013 70.6855C70.9969 71.373 71.5149 71.6382 71.9126 71.4347C72.3042 71.222 72.2364 70.6639 71.9435 70.2168ZM58.9441 55.1455L62.4345 55.9934L64.3184 50.8103V49.4968L58.9441 55.1455ZM57.1466 55.4199L58.1887 58.201H87.7116V56.6039H84.4186V55.2626H87.1104V49.3457H84.6283L83.7804 47.7177L82.951 49.3457H80.4627V55.2626H83.1668V56.6039H76.6856V55.2626H79.3805V49.3457H76.8984L76.0597 47.7177L75.2118 49.3457H72.7359V55.2626H75.443V56.6039H68.8293V55.2626H71.5303V49.3457H69.042L68.2095 47.7177L67.3555 49.3457H64.8765V55.2626H67.5867V56.6039L62.3543 56.6193L57.1466 55.4199ZM51.4023 58.6975V60.2607H54.4702V60.7571H93.3356V60.2607H96.382V58.6975H51.4023ZM51.4023 97.3594L69.5755 108.888C69.5755 108.879 69.5786 108.869 69.5786 108.863C69.7173 108.086 69.7173 107.611 69.668 106.93C69.6217 106.233 68.9742 105.268 68.077 104.115C67.189 102.956 67.189 101.898 67.559 99.2125C67.932 96.53 67.8426 94.8187 67.8426 94.8187C67.8426 94.8187 66.9053 94.8557 65.5486 94.8187C64.1981 94.7694 63.0758 93.9924 62.9802 90.7549C62.8877 87.5266 62.8106 79.8152 62.5856 79.0074C62.3697 78.2088 61.494 78.0608 61.124 77.9529C60.7417 77.8573 60.7232 77.3115 61.0932 77.1173C62.0706 76.6486 63.2423 75.4646 62.8076 74.7277C62.3697 73.9908 60.6492 74.1419 59.496 74.7C58.3398 75.2519 57.1219 76.4605 56.8105 76.7905C56.5083 77.1173 56.2462 77.1173 56.2771 76.7658C56.3171 76.3896 56.0643 74.626 55.9163 74.0124C55.7498 73.3957 55.1917 72.2302 55.0036 71.9219C54.8186 71.6105 55.0036 71.4933 55.3181 71.6105C55.6203 71.7338 56.3141 72.0175 56.9677 72.1901C57.6245 72.3844 58.2504 72.0668 58.5495 71.4625C58.8609 70.8365 59.4714 69.52 59.7828 68.931C60.0881 68.3483 60.5845 68.4809 60.9915 68.5672C61.3954 68.6628 61.7715 68.9095 62.1415 69.0544C62.5115 69.2055 62.823 69.1777 62.9555 68.9896C63.082 68.8108 63.2361 68.746 63.4612 68.2835C63.6801 67.8241 63.9515 68.043 63.9854 68.225C65.1016 74.8541 68.0122 75.1563 68.0122 75.1563C67.5744 76.2601 66.5507 78.0207 66.3071 78.4647C66.045 78.881 65.9464 79.4699 65.8816 79.9293C65.8323 80.3856 66.042 84.764 66.3534 86.3673C66.6679 87.9737 67.6638 87.3478 67.9845 86.8575C68.2835 86.3673 69.2579 84.3292 69.2579 84.3292C69.2579 84.3292 69.4984 83.7742 69.4984 83.3148C69.4984 82.8492 68.6906 81.844 68.5056 81.5295C68.3113 81.212 67.6299 80.5984 67.6299 79.0567C67.6299 77.5181 69.0328 76.4544 69.5385 76.0505C70.038 75.6465 70.038 75.0854 69.9701 74.7493C69.7512 73.5591 68.4716 71.0585 67.858 70.0996C67.229 69.1438 66.0111 67.3308 66.0111 67.3308H68.5395L70.1675 63.9946L71.9373 67.3462L73.7873 67.3616L75.6959 64.0686L77.1913 67.3616H79.6703C78.178 68.743 77.5706 70.8335 77.5706 72.2271V73.7472C77.5706 74.3916 77.2406 75.4615 77.2406 75.4615C77.2406 75.4615 79.3928 77.0803 79.7227 77.3609C79.8615 77.4688 80.0125 77.5335 79.9108 77.8141C79.7412 78.2859 78.2797 78.9395 78.1286 79.0598C77.7987 79.3496 77.7124 79.5254 77.7987 79.809C77.9036 80.0835 78.178 80.1359 78.736 79.9385C79.3003 79.7597 80.472 79.1523 81.4555 78.736C82.433 78.3167 83.7465 78.4215 83.7465 78.4215V76.5623H80.0434V70.6577L79.3897 69.6186L81.0208 66.748L82.6611 69.6371L82.0136 70.6608V73.7441H83.9006V70.6608L83.25 69.6371L84.8873 66.7696L86.5184 69.6371L85.874 70.6608V73.7441H87.7733V70.6608L87.1011 69.6371L88.7445 66.7696L90.3818 69.6371L89.7281 70.6608L89.759 76.5561H86.0281V79.2818C86.876 80.068 87.6746 81.844 87.6746 82.8893C87.6746 83.9592 86.9685 84.4125 86.9685 84.4125C87.206 85.2542 87.1597 85.6026 87.058 86.3642C86.9686 87.1381 85.9881 88.3468 85.9881 88.3468V102.438C85.9881 103.393 83.7434 103.301 83.7434 102.484V88.6644C82.4731 87.2923 79.0135 86.2131 79.0135 86.2131C77.7432 87.465 76.9631 89.6418 76.9631 89.6418C77.5151 90.021 78.3722 89.6418 78.696 89.2718C79.0136 88.9018 79.6641 88.8062 80.0434 89.0405C80.4134 89.2718 80.5028 89.3612 80.3764 89.9039C80.2315 90.4774 80.0002 91.3931 80.0002 92.0314C80.0002 92.6881 80.7464 92.5401 81.3045 92.5895C82.433 92.6881 82.618 93.9307 82.5224 94.6245C82.4299 95.3213 82.1 96.8044 82.1 97.7232C82.1 98.6359 82.1493 99.5547 82.2418 100.079C82.3405 100.581 82.5224 101.14 82.47 101.79C82.4145 102.666 81.8687 102.805 81.3014 102.243C80.7433 101.691 72.9271 93.462 72.9271 93.462C72.406 95.1363 74.5705 97.9884 75.2673 98.8702C75.9703 99.7521 75.9241 100.4 75.3105 101.001C74.7092 101.596 73.5345 101.917 73.3063 102.478C73.0689 103.02 73.8675 104.698 75.5109 106.773C77.0001 108.66 74.2344 109.973 72.1408 110.51L73.8675 111.604L96.345 97.344L96.3696 63.3194H51.4023V97.3594ZM83.7557 84.1473V82.251C83.7557 82.251 83.2439 81.471 81.9797 81.471C80.7186 81.471 79.9632 81.8471 79.9632 82.1585C79.9632 82.6735 81.0948 84.1473 83.7557 84.1473ZM38.4955 39.4821L40.4626 43.216L42.3774 41.1841L38.4955 39.4821ZM21.0808 88.9635C15.8299 88.9635 11.5811 84.767 11.5811 79.584C11.5811 74.404 15.833 70.2045 21.0808 70.2045C26.3286 70.2045 30.5867 74.404 30.5867 79.584C30.5867 84.764 26.3256 88.9635 21.0808 88.9635ZM25.6904 73.4913C25.2803 73.9507 24.491 74.2868 23.6739 74.5088C23.6739 74.5088 23.2854 74.7277 23.0603 75.0823C22.7088 75.6311 21.4878 78.551 21.4385 80.2438C21.4169 80.8235 21.9226 81.3045 22.7026 81.1904C23.4827 81.0794 24.8579 81.1195 27.0532 79.0814C27.5404 78.6405 29.1992 76.7226 28.6627 75.4585C28.2341 74.4533 27.4972 73.6177 26.6832 72.8808C26.6832 72.8808 26.2701 72.5509 26.1128 72.4245C26.1128 72.4245 26.0912 73.0226 25.6904 73.4913ZM17.7107 72.076C17.7107 72.3381 17.9296 72.9147 18.941 73.2261C19.9554 73.5468 21.3891 74 22.5516 74C23.7078 74 25.4561 73.63 25.4561 72.5262C25.4561 72.187 25.3697 71.9589 25.0645 71.7615C23.8774 71.0154 22.456 70.7502 20.9945 70.7502C20.0325 70.7502 19.0982 70.9105 18.2226 71.1973C17.9081 71.3021 17.7107 71.8263 17.7107 72.076ZM14.7908 84.1905C14.6921 83.731 14.4054 80.9961 14.7261 78.9395C14.8031 78.3784 13.8874 77.6908 13.7116 77.401C13.5544 77.1111 13.3601 76.8922 13.2183 76.6733C13.0333 76.3773 12.8236 76.7257 12.8236 76.7257C12.5955 77.5027 12.466 78.3198 12.466 79.1739C12.466 81.3723 13.3077 83.4628 14.4917 84.6129C14.7507 84.838 14.8771 84.6437 14.7908 84.1905ZM15.2687 77.2684C15.5616 76.1491 16.7025 74.1542 16.9676 73.8335C17.2205 73.516 17.1372 73.109 17.1372 72.9116C17.1341 72.7143 17.0262 72.409 17.0262 72.2086C17.0262 71.8386 16.8073 71.851 16.6501 71.9188C15.3766 72.5015 14.3869 73.6177 13.687 74.8233C13.5236 75.0946 13.5236 75.7329 13.6376 75.9549C13.8072 76.2663 14.3067 77.327 14.7261 77.5459C15.1423 77.7802 15.2194 77.5181 15.2687 77.2684ZM21.3491 86.4444C20.8557 85.1278 20.5659 82.9818 20.6615 80.8235C20.7601 78.437 21.7499 76.4266 22.0397 75.588C22.3326 74.7524 21.8455 74.6568 21.3922 74.552C20.939 74.4718 20.3346 74.3515 20.0356 74.256C19.4621 74.0864 19.2863 74 18.7899 73.8582C18.312 73.7318 17.6583 73.7842 17.3654 74.3084C17.0694 74.8233 15.2379 77.4441 15.2379 81.8471C15.2379 83.2007 15.6356 85.874 16.6901 86.4413C17.7107 87.0148 19.4312 87.6037 20.9914 87.6037C21.0469 87.6037 21.1178 87.5975 21.1764 87.5975C21.6728 87.616 21.6728 87.2954 21.3491 86.4444ZM29.5353 79.1739C29.5353 78.6035 29.4243 78.0762 29.3657 77.7802C29.3133 77.4287 29.0235 77.3825 28.9032 77.6384C28.7799 77.8665 28.1786 79.1523 26.7911 80.2715C25.4006 81.4124 23.8866 82.0198 21.7653 82.0599C21.5125 82.0691 21.383 82.4576 21.383 82.8091C21.383 83.1606 21.6081 85.8215 22.4899 86.8205C22.715 87.0672 22.9308 87.4095 23.4272 87.2553C26.9176 86.136 29.5353 83.0065 29.5353 79.1739ZM136.512 79.547C136.512 84.7424 132.26 88.9265 127.006 88.9265C121.761 88.9265 117.509 84.7424 117.509 79.547C117.509 74.3793 121.761 70.1798 127.006 70.1798C132.26 70.1798 136.512 74.3793 136.512 79.547ZM122.637 72.4923C122.637 73.59 124.379 73.9661 125.55 73.9661C126.713 73.9661 128.14 73.5067 129.155 73.1984C130.172 72.8839 130.388 72.3011 130.388 72.0452C130.388 71.7862 130.197 71.2682 129.873 71.1695C128.991 70.8828 128.069 70.7194 127.098 70.7194C125.634 70.7194 124.231 70.9815 123.028 71.7338C122.723 71.9188 122.637 72.1593 122.637 72.4923ZM121.039 79.0567C123.235 81.0825 124.607 81.0578 125.387 81.1626C126.167 81.2736 126.666 80.7926 126.651 80.2099C126.599 78.5048 125.387 75.588 125.023 75.0545C124.795 74.7 124.409 74.4718 124.409 74.4718C123.595 74.259 122.809 73.9045 122.405 73.4512C121.998 73.001 121.967 72.4029 121.967 72.4029C121.81 72.52 121.406 72.8592 121.406 72.8592C120.592 73.5776 119.852 74.4286 119.433 75.4338C118.896 76.698 120.555 78.6127 121.039 79.0567ZM125.621 86.7835C126.497 85.7907 126.716 83.139 126.716 82.7814C126.716 82.4206 126.596 82.0445 126.337 82.0321C124.203 81.989 122.701 81.3692 121.301 80.2407C119.92 79.1153 119.31 77.8326 119.189 77.5983C119.054 77.3393 118.789 77.3979 118.721 77.7494C118.674 78.0546 118.563 78.5757 118.563 79.14C118.563 82.9695 121.175 86.099 124.681 87.2214C125.165 87.3848 125.39 87.0395 125.621 86.7835ZM132.855 81.8194C132.855 77.4256 131.023 74.7894 130.733 74.2683C130.437 73.7595 129.787 73.6979 129.306 73.8212C128.809 73.96 128.627 74.0463 128.066 74.2159C127.767 74.3115 127.166 74.441 126.71 74.5304C126.25 74.626 125.76 74.7277 126.053 75.5633C126.355 76.405 127.329 78.3969 127.431 80.7926C127.53 82.9448 127.231 85.1 126.753 86.4074C126.423 87.2553 126.432 87.5883 126.916 87.576H127.098C128.668 87.576 130.388 86.9809 131.409 86.4166C132.454 85.837 132.855 83.1668 132.855 81.8194ZM133.37 77.5181C133.795 77.293 134.295 76.2324 134.458 75.9179C134.575 75.702 134.569 75.0669 134.415 74.7894C133.709 73.5715 132.725 72.4738 131.443 71.891C131.288 71.8232 131.073 71.817 131.073 72.1716C131.073 72.3751 130.958 72.6896 130.958 72.8839C130.955 73.0812 130.872 73.4913 131.134 73.7996C131.393 74.1172 132.54 76.1245 132.836 77.2375C132.882 77.478 132.944 77.7463 133.37 77.5181ZM135.627 79.1369C135.627 78.2859 135.509 77.4657 135.266 76.6795C135.266 76.6795 135.065 76.3372 134.877 76.6425C134.742 76.8521 134.547 77.0772 134.381 77.367C134.211 77.66 133.293 78.3475 133.37 78.9056C133.69 80.9622 133.404 83.7064 133.317 84.1535C133.212 84.6036 133.351 84.8164 133.601 84.5728C134.773 83.4258 135.627 81.3445 135.627 79.1369ZM120.475 52.8021C121.366 52.0251 121.354 51.0261 120.586 50.1875L119.939 49.4814L117.167 51.9542L117.657 52.4969C118.499 53.4095 119.609 53.5915 120.475 52.8021ZM124.366 93.718C125.47 94.9174 126.734 97.0325 126.42 100.276C126 104.707 118.878 116.174 106.205 123.293C95.9873 129.031 85.0785 131.93 73.7688 131.93C62.4715 131.93 51.5626 129.031 41.3445 123.293C28.6689 116.171 21.5556 104.707 21.1209 100.276C20.8187 97.0325 22.0736 94.9174 23.1929 93.718C24.6791 92.1023 26.9176 91.057 28.894 91.057C32.2764 91.057 33.6978 92.6696 34.814 93.9215C45.7845 106.255 60.68 113.883 73.7688 113.883C86.8606 113.883 101.775 106.258 112.736 93.9215C113.843 92.6696 115.261 91.057 118.659 91.057C120.629 91.0601 122.874 92.1054 124.366 93.718ZM50.1998 119.177L53.684 112.986L51.0354 111.54L47.7701 117.367C46.7835 119.118 45.7691 120.228 44.1041 119.288C42.4637 118.372 42.843 117.046 43.8512 115.237L47.1257 109.403L44.4864 107.957L41.0269 114.123C39.1214 117.518 41.5202 119.621 43.3949 120.642C45.396 121.73 48.3097 122.544 50.1998 119.177ZM66.9546 116.889L64.3893 116.22L62.3759 123.654L58.605 114.691L56.2586 114.068L53.4003 124.591L55.9533 125.26L57.9852 117.765L61.8116 126.805L64.1056 127.416L66.9546 116.889ZM73.1706 117.549L70.2785 117.392L69.6988 128.27L72.5941 128.421L73.1706 117.549ZM81.952 118.061L84.9952 117.645L84.7855 116.205L75.7884 117.46L75.9888 118.878L79.0783 118.446L80.4134 127.807L83.284 127.413L81.952 118.061ZM97.4735 123.654L97.0264 122.273L93.0211 123.543L91.9204 120.201L95.198 119.155L94.7447 117.765L91.464 118.813L90.5298 115.955L93.8845 114.87L93.4312 113.494L87.2923 115.465L90.7055 125.819L97.4735 123.654ZM108.25 111.447C106.427 108.29 103.415 108.216 100.033 110.143L96.2956 112.27L101.827 121.742L105.549 119.618C109.4 117.426 109.764 114.108 108.25 111.447ZM100.655 111.463L99.5485 112.095L103.609 119.023L104.639 118.431C106.797 117.21 107.081 115.443 105.681 113.02C104.716 111.302 103.245 109.995 100.655 111.463ZM16.0766 53.3047L16.0642 53.2091L16.1567 53.1351C18.3243 51.6675 22.3696 48.9171 28.8015 39.8984C32.668 34.4779 47.3693 16.7795 73.8798 16.7795C100.396 16.7795 115.085 34.4779 118.955 39.8984C125.442 48.9757 129.312 51.5996 131.624 53.1814L131.698 53.2369V53.3448C131.609 56.0427 130.795 64.9628 124.231 66.6124C119.689 67.7532 114.962 64.9751 109.378 57.6183C105.16 51.6921 93.4929 35.2641 73.8767 35.2641C54.2698 35.2641 42.5932 51.6921 38.3783 57.6183C32.8098 64.9751 28.0738 67.7532 23.5259 66.6124C16.9831 64.9751 16.166 56.0088 16.0766 53.3047ZM110.898 53.6685L112.835 55.7899L116.097 52.9008L117.037 53.9491L114.971 58.5495L117.444 60.5012L119.122 55.5494C119.143 55.5771 120.824 56.3973 122.689 54.7415C124.249 53.3571 123.728 51.4578 122.097 49.6756L119.091 46.3765L110.898 53.6685ZM113.242 39.1399L104.796 46.1421L109.357 51.5164L110.494 50.5821L107.796 47.4032L110.541 45.1524L112.742 47.7393L113.88 46.802L111.666 44.2027L113.988 42.2725L116.257 44.9396L117.383 44.0146L113.242 39.1399ZM103.649 32.1037L105.962 34.1695L99.5485 41.1934L101.713 43.1143L108.117 36.0905L110.402 38.1224L111.382 37.0555L104.633 31.043L103.649 32.1037ZM92.0468 33.3062L90.5884 33.9229C90.909 35.0298 91.6645 36.1737 93.3295 37.1665C95.3891 38.3906 97.6338 38.181 98.6852 36.4635C99.4499 35.2641 99.456 34.2651 98.5372 32.4799C98.2998 31.9742 97.9915 31.6104 97.7818 31.151C97.3748 30.4048 97.0017 29.7943 97.3501 29.2146C97.7355 28.5887 98.6266 28.5363 99.4375 29.0235C100.285 29.5291 100.634 30.3647 100.813 30.9351L102.142 30.3709C101.735 29.2948 101.13 28.3266 99.749 27.5219C97.3902 26.119 95.4693 26.489 94.6707 27.8025C93.8598 29.1252 94.091 30.226 94.7015 31.3514C94.7015 31.3514 95.0808 31.9927 95.2997 32.4275C95.8331 33.3093 96.456 34.4193 96.0181 35.113C95.4878 35.9887 94.5782 36.1799 93.6902 35.6341C92.5494 34.9311 92.2842 34.1079 92.0468 33.3062ZM82.5193 32.1839L89.241 34.4563L89.7189 33.0811L85.7506 31.7275L86.9192 28.4068L90.169 29.5137L90.6531 28.1324L87.4002 27.0285L88.39 24.1826L91.7385 25.3142L92.2071 23.939L86.1083 21.867L82.5193 32.1839ZM70.1798 31.7275L73.0843 31.7892L73.1768 26.7973L77.5058 26.8744L77.4226 31.857L80.3209 31.9002L80.509 21.0099L77.6106 20.9667L77.5274 25.4067L73.2046 25.345L73.2693 20.8896L70.371 20.8372L70.1798 31.7275ZM58.0315 28.4654C58.4816 30.3832 60.2176 33.9136 65.6997 32.7605C67.2229 32.4737 68.0461 31.8755 68.8416 31.1232L67.8426 29.9916C67.4665 30.4048 66.9053 31.006 65.6411 31.265C62.9864 31.817 61.4108 29.6987 61.0161 27.8703C60.4334 25.16 62.0306 23.2915 63.8374 22.9061C65.1293 22.6255 65.9094 22.9709 66.4058 23.162H66.4212L66.7573 21.7745C65.8878 21.4292 64.8426 21.201 63.2176 21.5433C59.6256 22.2925 57.2545 24.9134 58.0315 28.4654ZM43.6878 30.7871L49.5369 40.0371L51.7631 38.6527L47.5944 32.0667L56.9153 35.483L58.9287 34.2374L53.0673 24.9905L50.8226 26.3934L54.9666 32.9115L45.7413 29.5137L43.6878 30.7871ZM36.035 38.2426L41.3229 48.6211L42.6148 47.2583L41.178 44.4987L43.731 41.7885L46.6262 43.0002L48.7537 40.7525L37.9251 36.2477L36.035 38.2426ZM23.4766 52.4876L31.928 59.493L33.2106 57.9883L27.2382 53.0241L35.2456 55.5987L36.0874 54.612L32.2702 47.061L38.2704 52.0251L40.142 49.836L31.6906 42.8306L29.6371 45.2449L33.4727 53.0765L25.2464 50.4156L23.4766 52.4876Z" fill="#DA020E"/>
</svg>
