<svg width="468" height="808" viewBox="0 0 468 808" fill="none" xmlns="http://www.w3.org/2000/svg">
<mask id="mask0_303_914" style="mask-type:alpha" maskUnits="userSpaceOnUse" x="0" y="0" width="468" height="808">
<rect width="468" height="808" rx="12" fill="black"/>
</mask>
<g mask="url(#mask0_303_914)">
</g>
<path d="M409.552 319.119C408.199 301.655 392.69 288.565 374.974 289.937C374.923 289.941 374.883 289.961 374.832 289.965C394.203 278.042 390.903 246.04 390.858 245.688L390.786 245.075L390.253 244.752C389.56 244.34 388.816 243.915 388.018 243.452C385.768 242.162 382.939 240.518 379.479 238.035L379.034 230.872C381.734 232.602 386.533 232.256 389.115 229.084C390.29 227.638 390.853 225.503 390.585 223.365C390.28 220.959 388.974 218.528 387.002 216.895C375.859 207.7 365.878 198.423 365.878 198.423C364.812 197.015 363.239 196.053 362.352 195.758C361.035 195.259 356.366 193.572 353.332 198.997C351.057 203.068 351.356 208.133 351.961 211.134C351.96 211.126 351.952 211.127 351.951 211.118C343.266 200.75 317.528 173.992 276.259 161.508C272.157 144.402 261.766 141.752 256.666 142.147C248.435 142.785 240.527 147.809 232.685 154.885C232.6 154.883 232.5 154.899 232.415 154.898L231.907 153.912C227.667 146.291 222.615 140.535 218.727 140.836C215.664 141.074 210.566 145.55 205.457 156.978C205.282 157.008 205.096 157.014 204.929 157.044C196.116 151.258 187.511 147.514 179.289 148.151C174.197 148.545 164.314 152.774 162.923 170.238C125.225 188.322 104.114 217.449 96.517 229.773C96.4474 226.688 95.749 222.373 93.223 219.165C89.4147 214.27 85.0783 216.655 83.8116 217.354C83.0071 217.789 81.575 218.975 80.7562 220.537C80.7562 220.537 72.1702 231.456 62.6208 242.288C61.2756 243.831 59.8703 246.565 59.9234 248.999C59.9634 251.155 61.0056 253.242 62.3724 254.491C65.4219 257.243 70.3447 256.743 72.7196 254.612L73.3693 261.14C70.0381 264.48 67.3286 266.663 65.1606 268.406C64.4113 269.005 63.7182 269.567 63.0827 270.107L62.6058 270.508L62.6281 271.125C62.6387 271.48 64.2612 303.68 85.319 312.437C67.8225 314.021 54.7334 329.217 56.0779 346.571C57.4328 364.06 72.9438 377.175 90.6599 375.803C92.5451 375.657 94.3441 375.272 96.1217 374.829C94.8301 375.971 93.5948 377.184 92.5227 378.537C88.9689 383.046 85.1274 390.726 87.0375 401.721C89.6612 416.681 113.792 447.73 150.551 464.737C164.322 471.129 178.386 475.729 192.653 478.688C196.369 486.105 202.499 493.859 212.901 493.053C221.309 492.402 226.245 487.922 228.934 484.166C231.182 488.047 236.534 495.058 245.851 494.336C255.311 493.603 259.403 485.768 261.08 480.863C263.987 484.498 269.458 488.672 278.631 487.961C289.328 487.132 294.15 478.004 296.63 469.913C309.441 464.899 321.848 458.493 333.746 450.544C367.448 428.087 386.526 393.691 386.822 378.496C387.016 367.347 382.046 360.349 377.84 356.441C376.527 355.222 375.064 354.159 373.551 353.209C375.619 353.455 377.741 353.52 379.895 353.353C397.602 351.964 410.908 336.616 409.552 319.119ZM65.2233 271.618C65.7086 271.216 66.227 270.804 66.7686 270.364C72.6984 265.595 82.6294 257.612 97.9544 232.261C107.578 216.267 144.726 163.647 218.931 157.898C293.069 152.154 337.963 198.426 349.96 212.737C369.083 235.538 380.131 241.862 386.732 245.643C387.307 245.971 387.848 246.285 388.371 246.583C388.759 251.379 390.403 282.866 368.371 290.28C354.645 294.848 339.861 287.95 323.184 269.185C322.554 268.48 321.733 267.502 320.725 266.293C315.957 260.592 307.041 249.988 294.526 239.917L294.514 239.757L292.905 238.553C291.547 237.523 289.821 236.235 288.023 234.985C288.031 234.985 288.032 234.993 288.04 234.993C271.455 223.205 249.664 213.505 223.397 215.54C198.998 217.431 180.012 228.74 165.751 241.715C162.798 244.247 158.184 248.736 157.257 249.874L156.94 250.263L156.955 250.465C146.06 262.401 138.856 274.329 135.017 280.731C134.223 282.054 133.578 283.129 133.071 283.913C119.458 305.025 105.913 314.118 91.6808 311.715C68.7534 307.785 65.5774 276.408 65.2233 271.618ZM292.05 241.184L302.617 378.889L248.976 419.045C245.729 419.644 242.473 420.243 239.275 420.491C236.077 420.739 232.768 420.648 229.467 420.557L170.281 389.142L159.606 251.343C163.059 247.621 166.888 243.93 171.086 240.413C169.997 241.327 168.969 242.261 167.932 243.197L282.215 234.343C283.619 235.089 285.172 236.112 286.676 237.164C284.202 235.4 281.623 233.695 278.914 232.059L171.086 240.413C184.562 229.115 201.913 219.753 223.602 218.073C273.838 214.181 307.646 254.623 318.751 267.911C319.786 269.143 320.625 270.145 321.265 270.866C335.744 287.16 349.011 294.802 361.581 294.108C351.092 300.026 344.333 311.463 345.312 324.104C346.14 334.793 352.281 343.791 360.95 348.911C359.611 348.786 358.271 348.644 356.966 348.745C344.973 349.674 340.089 356.132 337.17 359.982L336.755 360.53C314.587 389.68 284.339 410.497 254.915 417.789L305.292 380.079L294.809 243.46C293.887 242.701 292.998 241.941 292.05 241.184ZM254.898 417.782C252.912 418.275 250.946 418.681 248.976 419.045C250.954 418.68 252.921 418.274 254.898 417.782ZM223.422 420.229C193.21 417.566 160.134 401.654 133.765 376.256L133.299 375.81C129.812 372.439 123.981 366.795 111.938 367.728C110.919 367.807 109.893 368.115 108.869 368.338C116.527 361.945 121.139 352.19 120.319 341.594C119.331 328.844 110.782 318.499 99.3918 314.31C111.753 312.887 123.557 303.404 135.243 285.277C135.757 284.484 136.417 283.383 137.227 282.033C140.819 276.057 147.417 265.157 157.239 254.016L167.83 390.72L223.422 420.229ZM90.4643 373.278C74.1622 374.541 59.8837 362.473 58.6357 346.364C57.3884 330.264 69.6371 316.133 85.9393 314.87C102.241 313.607 116.52 325.683 117.768 341.783C119.016 357.892 106.766 372.015 90.4643 373.278ZM376.069 358.28C379.901 361.836 384.426 368.225 384.253 378.449C383.965 393.102 365.298 426.459 332.305 448.446C305.13 466.621 275.375 477.071 243.848 479.514C212.329 481.956 181.311 476.214 151.644 462.442C115.658 445.799 92.0931 415.722 89.5609 401.288C87.8067 391.213 91.3022 384.203 94.5397 380.091C98.9262 374.527 105.67 370.754 112.125 370.254C123.015 369.41 128.324 374.553 131.491 377.618L131.958 378.073C163.533 408.486 204.729 425.716 239.454 423.026C274.163 420.337 312.222 396.975 338.778 362.058L339.201 361.509C341.859 358.001 346.314 352.119 357.146 351.28C363.625 350.769 370.869 353.451 376.069 358.28ZM347.862 323.898C346.616 307.823 358.867 293.717 375.169 292.454C391.471 291.191 405.748 303.242 406.994 319.317C408.241 335.417 395.992 349.549 379.69 350.812C363.388 352.075 349.109 340.007 347.862 323.898Z" fill="black"/>
<path d="M406.994 319.317C408.241 335.417 395.992 349.549 379.69 350.812C363.388 352.075 349.109 339.998 347.861 323.898C346.616 307.823 358.867 293.717 375.169 292.454C391.471 291.191 405.749 303.25 406.994 319.317ZM90.4643 373.278C106.766 372.015 119.016 357.892 117.768 341.783C116.52 325.683 102.241 313.607 85.9392 314.87C69.6371 316.133 57.3884 330.264 58.6357 346.364C59.8837 362.473 74.1621 374.541 90.4643 373.278ZM151.651 462.433C181.319 476.205 212.337 481.947 243.855 479.505C275.382 477.062 305.146 466.611 332.313 448.437C365.307 426.458 383.974 393.101 384.26 378.44C384.442 368.215 379.908 361.827 376.077 358.271C370.877 353.442 363.633 350.76 357.161 351.262C346.33 352.101 341.883 357.982 339.217 361.491L338.794 362.04C312.238 396.957 274.178 420.319 239.47 423.008C204.736 425.698 163.549 408.476 131.974 378.055L131.507 377.6C128.331 374.527 123.022 369.392 112.14 370.236C105.685 370.736 98.9417 374.509 94.5552 380.073C91.317 384.176 87.8215 391.187 89.5764 401.27C92.1008 415.713 115.658 445.799 151.651 462.433ZM349.96 212.737C337.962 198.418 293.069 152.154 218.931 157.898C144.734 163.646 107.579 216.275 97.9543 232.261C82.6294 257.612 72.7068 265.594 66.7686 270.364C66.2269 270.804 65.7086 271.216 65.2232 271.618C65.5774 276.408 68.7449 307.786 91.6899 311.723C105.922 314.126 119.476 305.033 133.08 283.921C133.587 283.137 134.232 282.062 135.027 280.739C144.116 265.608 171.781 219.548 223.398 215.549C274.963 211.554 309.406 252.751 320.725 266.293C321.733 267.502 322.554 268.48 323.184 269.185C339.861 287.95 354.645 294.848 368.371 290.28C390.403 282.866 388.751 251.38 388.371 246.583C387.856 246.276 387.307 245.971 386.732 245.643C380.131 241.862 369.084 235.547 349.96 212.737ZM273.157 160.699C260.84 157.657 251.519 155.272 236.632 155.121C243.087 149.922 248.832 145.498 255.792 144.958C259.453 144.675 262.682 145.813 263.602 148.282C264.453 150.527 262.696 151.671 262.027 151.562C261.331 151.438 260.828 151.282 260.948 150.646C261.074 149.976 260.431 148.341 258.1 148.522C255.735 148.705 255.01 150.937 255.125 152.418C255.24 153.9 257.814 156.198 262.207 155.858C266.508 155.524 268.494 152.526 268.123 149.921C270.434 152.756 271.873 155.701 273.157 160.699ZM218.829 149.253C218.625 151.546 216.151 153.922 213.483 154.129C210.807 154.336 209.974 153.969 209.974 153.969C209.618 154.623 209.293 155.131 208.925 155.837C211.341 155.556 216.96 154.969 219.216 154.794C221.463 154.62 227.732 154.456 229.086 154.444C226.525 149.588 221.804 142.96 218.909 143.185C218.808 143.192 218.681 143.194 218.53 143.205C217.856 143.258 215.663 145.443 214.546 147.307C213.076 149.749 218.829 149.253 218.829 149.253ZM376.355 236.075L375.873 229.517C363.74 220.119 357.605 210.214 357.605 210.214C357.605 210.214 361.651 208.343 363.329 205.859C364.154 204.483 364.37 202.68 364.118 201.506C363.583 199.295 361.728 198.304 361.11 198.09C359.763 197.635 357.242 196.569 354.832 200.439C352.269 204.625 353.61 212.09 354.139 213.785C354.139 213.785 360.127 222.448 376.355 236.075ZM165.834 169.013C177.536 164.111 186.378 160.318 201.065 157.877C193.886 153.734 187.528 150.247 180.568 150.786C176.907 151.07 173.891 152.692 173.363 155.273C172.868 157.623 174.78 158.482 175.424 158.271C176.092 158.042 176.566 157.81 176.349 157.201C176.121 156.558 176.505 154.843 178.836 154.663C181.201 154.479 182.261 156.573 182.376 158.055C182.49 159.536 180.301 162.203 175.908 162.543C171.607 162.877 169.183 160.22 169.149 157.589C167.31 160.746 166.334 163.878 165.834 169.013ZM293.017 472.013C286.528 474.26 281.911 476.091 270.863 478.293C270.863 478.293 271.303 479.376 273.729 479.104C274.65 478.973 274.758 478.736 275.074 478.652C275.779 478.471 276.87 479.106 276.862 480.309C276.817 481.159 276.183 482.258 273.708 482.45C271.234 482.641 268.193 480.879 266.593 479.132C266.593 479.132 265.139 479.591 263.604 479.778C263.604 479.778 268.877 485.982 278.244 485.256C288.519 484.452 291.643 475.049 293.017 472.013ZM75.4854 259.385L74.9522 252.83C85.4927 241.676 90.0291 230.944 90.0291 230.944C90.0291 230.944 85.7432 229.718 83.7019 227.523C82.6751 226.29 82.184 224.542 82.252 223.343C82.4405 221.076 84.1205 219.811 84.6978 219.504C85.9593 218.847 88.286 217.406 91.2628 220.858C94.4398 224.6 94.2653 232.182 94.0034 233.938C94.0034 233.938 89.4209 243.42 75.4854 259.385ZM86.0146 232.458C84.687 235.21 81.3246 241.863 72.2777 251.64C70.7778 253.264 66.8365 254.848 64.3426 252.492C63.4079 251.574 62.7371 250.238 62.6967 248.624C62.6627 246.764 63.6229 244.513 64.6854 243.474C66.5192 241.681 74.2549 232.683 79.6966 225.657C79.9575 226.839 81.1563 228.761 81.1563 228.761C82.0594 229.818 83.1938 231.347 86.0146 232.458ZM253.602 480.18C252.081 482.728 250.926 482.691 248.906 482.847C247.863 482.928 246.421 483.878 246.556 485.408C246.692 486.609 247.77 487.516 249.411 487.389C253.139 487.1 255.597 481.779 256.186 479.548C256.186 479.548 258.367 479.286 258.994 479.179C258.994 479.179 255.974 491.02 245.799 491.809C235.607 492.598 230.566 481.516 230.566 481.516C230.566 481.516 239.199 481.364 244.097 480.985C249.004 480.613 252.123 480.32 253.602 480.18ZM196.298 479.506C203.056 480.727 207.899 481.825 219.154 482.299C219.154 482.299 218.887 483.437 216.448 483.541C215.518 483.554 215.374 483.337 215.05 483.303C214.324 483.232 213.345 484.027 213.538 485.215C213.713 486.048 214.509 487.036 216.983 486.844C219.458 486.653 222.191 484.443 223.503 482.47C223.503 482.47 225.011 482.7 226.556 482.648C226.556 482.648 222.302 489.59 212.934 490.316C202.649 491.104 198.114 482.295 196.298 479.506ZM361.804 211.091C363.54 213.607 367.887 219.663 378.332 227.93C380.064 229.303 384.202 230.26 386.303 227.549C387.086 226.498 387.543 225.074 387.334 223.473C387.081 221.63 385.786 219.554 384.576 218.691C382.488 217.202 373.458 209.503 367 203.399C366.924 204.607 366.035 206.691 366.035 206.691C365.297 207.874 364.42 209.559 361.804 211.091ZM248.976 419.045L302.617 378.889L292.05 241.184C292.528 241.562 292.973 241.943 293.425 242.314C289.54 239.161 285.312 236.067 280.72 233.181L280.636 233.187C282.7 234.483 284.748 235.781 286.667 237.156C285.163 236.113 283.61 235.082 282.206 234.335L167.982 243.185C165.005 245.854 162.168 248.571 159.605 251.335L170.28 389.133L229.466 420.548C232.767 420.64 236.076 420.73 239.274 420.483C242.482 420.251 245.729 419.644 248.976 419.045ZM247.364 421.846C244.73 422.278 242.08 422.822 239.471 423.024C236.862 423.227 234.168 423.097 231.499 423.075L239.826 427.493L247.364 421.846Z" fill="#FFE500"/>
<path d="M293.534 242.416C293.064 242.029 292.536 241.663 292.058 241.285L292.051 241.193C292.565 241.593 293.045 242.005 293.534 242.416ZM229.467 420.557L170.281 389.142L159.606 251.344C160.793 250.066 162.075 248.798 163.358 247.539L163.34 247.303L163.609 247.283C163.774 247.117 163.931 246.953 164.104 246.787L164.139 247.242L286.948 237.727L286.917 237.332C287.079 237.446 287.224 237.57 287.386 237.693L287.764 237.664L287.79 238.001C289.271 239.08 290.677 240.173 292.066 241.276L302.625 378.88L248.984 419.036C245.736 419.635 242.481 420.234 239.283 420.482C236.077 420.747 232.768 420.648 229.467 420.557ZM226.791 320.002C226.791 320.002 228.137 323.826 230.687 327.235C232.65 323.392 233.296 319.498 233.296 319.498L226.791 320.002ZM232.728 310.516C233.83 310.981 235.137 310.144 235.33 308.257C235.429 307.132 235.613 304.815 235.093 304.652C234.614 304.486 233.043 305.954 232.344 307.202C231.68 308.472 231.596 310.011 232.728 310.516ZM225.223 307.745C224.365 306.609 222.679 305.402 222.215 305.641C221.734 305.882 222.223 308.147 222.478 309.245C222.884 311.101 224.354 311.716 225.397 311.076C226.42 310.412 226.117 308.903 225.223 307.745ZM186.553 269.356L196.26 270.932L200.306 256.386L200.028 252.801L186.553 269.356ZM181.705 270.485L185.138 277.856L265.723 271.613L265.385 267.253L256.396 267.95L256.113 264.289L263.46 263.719L262.209 247.569L255.434 248.094L252.775 243.829L250.855 248.448L244.063 248.974L245.315 265.125L252.696 264.553L252.979 268.214L235.289 269.585L235.005 265.924L242.361 265.354L241.109 249.203L234.334 249.728L231.701 245.462L229.731 250.085L222.973 250.608L224.224 266.759L231.613 266.187L231.897 269.848L213.844 271.246L213.56 267.585L220.933 267.014L219.682 250.863L212.89 251.39L210.273 247.122L208.286 251.746L201.52 252.27L202.771 268.421L210.169 267.848L210.452 271.509L196.173 272.658L181.705 270.485ZM166.719 280.646L167.049 284.913L175.423 284.264L175.528 285.619L281.614 277.4L281.509 276.045L289.824 275.401L289.494 271.134L166.719 280.646ZM174.894 386.176L226.937 413.801C226.935 413.776 226.942 413.75 226.94 413.734C227.155 411.583 227.054 410.287 226.776 408.438C226.502 406.545 224.531 404.048 221.838 401.09C219.169 398.113 218.945 395.227 219.387 387.818C219.838 380.417 219.232 375.765 219.232 375.765C219.232 375.765 216.681 376.064 212.97 376.25C209.274 376.401 206.046 374.517 205.1 365.701C204.165 356.908 202.324 335.876 201.539 333.718C200.781 331.584 198.359 331.366 197.327 331.149C196.263 330.969 196.097 329.483 197.066 328.875C199.635 327.389 202.582 323.909 201.24 321.99C199.889 320.071 195.225 320.847 192.195 322.614C189.156 324.365 186.087 327.922 185.307 328.888C184.551 329.845 183.836 329.9 183.845 328.934C183.875 327.899 182.812 323.138 182.278 321.495C181.694 319.847 179.924 316.783 179.345 315.981C178.774 315.171 179.255 314.812 180.138 315.065C180.989 315.338 182.942 315.965 184.763 316.298C186.597 316.69 188.238 315.69 188.927 313.978C189.644 312.203 191.032 308.48 191.758 306.807C192.468 305.152 193.851 305.409 194.98 305.558C196.103 305.734 197.182 306.328 198.222 306.645C199.264 306.979 200.108 306.837 200.43 306.296C200.738 305.781 201.145 305.572 201.661 304.262C202.162 302.962 202.949 303.502 203.08 303.991C207.528 321.85 215.537 322.059 215.537 322.059C214.575 325.165 212.154 330.187 211.583 331.45C210.955 332.642 210.81 334.27 210.731 335.538C210.693 336.794 212.191 348.701 213.38 353.011C214.578 357.329 217.164 355.41 217.936 354.004C218.648 352.603 220.877 346.834 220.877 346.834C220.877 346.834 221.416 345.268 221.319 344.014C221.22 342.743 218.803 340.17 218.231 339.351C217.634 338.525 215.644 336.995 215.318 332.786C214.993 328.587 218.597 325.387 219.892 324.177C221.17 322.969 221.051 321.437 220.795 320.534C219.946 317.332 215.925 310.777 214.047 308.289C212.128 305.813 208.42 301.122 208.42 301.122L215.321 300.587L219.06 291.137L224.599 299.911L229.652 299.562L234.165 290.17L238.944 298.842L245.71 298.318C241.929 302.404 240.713 308.238 241.008 312.042L241.329 316.192C241.465 317.951 240.791 320.941 240.791 320.941C240.791 320.941 247.008 324.904 247.968 325.6C248.369 325.866 248.796 326.01 248.577 326.798C248.214 328.121 244.363 330.215 243.976 330.575C243.137 331.436 242.938 331.934 243.234 332.69C243.578 333.416 244.338 333.502 245.82 332.845C247.322 332.237 250.392 330.332 252.989 328.987C255.568 327.636 259.175 327.645 259.175 327.645L258.782 322.57L248.674 323.353L247.426 307.236L245.422 304.538L249.267 296.357L254.355 303.896L252.804 306.827L253.456 315.244L258.607 314.845L257.955 306.428L255.963 303.772L259.825 295.599L264.884 303.081L263.341 306.011L263.993 314.427L269.178 314.026L268.526 305.61L266.474 302.957L270.354 294.783L275.429 302.264L273.862 305.196L275.192 321.281L265.009 322.07L265.585 329.51C268.066 331.477 270.621 336.156 270.842 339.009C271.069 341.929 269.237 343.316 269.237 343.316C270.063 345.563 270.011 346.524 269.894 348.624C269.813 350.756 267.393 354.262 267.393 354.262L270.372 392.724C270.575 395.333 264.428 395.555 264.255 393.325L261.333 355.604C257.575 352.127 247.904 349.913 247.904 349.913C244.701 353.599 243.032 359.705 243.032 359.705C244.619 360.624 246.879 359.408 247.684 358.329C248.473 357.252 250.228 356.854 251.313 357.413C252.372 357.966 252.635 358.191 252.405 359.699C252.13 361.295 251.693 363.844 251.828 365.586C251.967 367.378 253.972 366.817 255.506 366.833C258.607 366.864 259.375 370.217 259.26 372.13C259.155 374.052 258.568 378.17 258.763 380.678C258.956 383.169 259.285 385.667 259.648 387.078C260.024 388.429 260.638 389.914 260.633 391.701C260.666 394.103 259.206 394.597 257.539 393.185C255.899 391.797 232.823 370.987 232.823 370.987C231.755 375.667 238.266 382.994 240.355 385.254C242.46 387.512 242.471 389.289 240.923 391.06C239.408 392.812 236.269 393.935 235.765 395.515C235.232 397.047 237.766 401.456 242.691 406.773C247.155 411.609 239.884 415.779 234.282 417.686L239.227 420.309L297.565 376.63L290.438 283.753L167.696 293.262L174.894 386.176ZM260.411 343.271L260.01 338.096C260.01 338.096 258.448 336.074 254.998 336.342C251.555 336.608 249.573 337.795 249.639 338.645C249.748 340.051 253.148 343.834 260.411 343.271ZM127.425 230.926L133.584 240.702L138.381 234.751L127.425 230.926ZM90.3542 369.671C76.0214 370.782 63.5365 360.226 62.4405 346.078C61.3451 331.939 72.0629 319.577 86.3873 318.467C100.712 317.357 113.222 327.92 114.318 342.059C115.413 356.198 104.67 368.562 90.3542 369.671ZM99.6645 326.464C98.6423 327.805 96.5588 328.889 94.3755 329.668C94.3755 329.668 93.3613 330.347 92.8219 331.363C91.9786 332.935 89.2632 341.164 89.4865 345.795C89.5502 347.381 91.0322 348.587 93.1373 348.111C95.2431 347.643 99.0052 347.462 104.567 341.434C105.803 340.128 109.925 334.542 108.194 331.205C106.811 328.552 104.623 326.427 102.245 324.588C102.245 324.588 101.048 323.775 100.592 323.463C100.592 323.463 100.659 325.1 99.6645 326.464ZM77.5842 324.288C77.6396 325.004 78.3591 326.531 81.1854 327.168C84.0221 327.828 88.0315 328.762 91.2044 328.516C94.3605 328.272 99.0542 326.892 98.8208 323.879C98.7491 322.954 98.4652 322.349 97.5902 321.875C94.1922 320.089 90.2563 319.666 86.267 319.975C83.6412 320.179 81.125 320.814 78.7954 321.782C77.9591 322.134 77.5313 323.607 77.5842 324.288ZM72.1758 357.973C71.8094 356.74 70.4483 349.335 70.8887 343.654C70.9804 342.106 68.3354 340.423 67.7944 339.669C67.3039 338.911 66.7274 338.355 66.294 337.787C65.7264 337.018 65.2278 338.013 65.2278 338.013C64.7693 340.183 64.5886 342.44 64.7692 344.772C65.2341 350.772 67.9738 356.3 71.4488 359.189C72.2033 359.749 72.5073 359.192 72.1758 357.973ZM72.0166 338.978C72.5794 335.861 75.2715 330.174 75.9275 329.243C76.5505 328.322 76.2372 327.229 76.1954 326.69C76.1453 326.153 75.7862 325.342 75.7438 324.795C75.6656 323.785 75.0706 323.865 74.6557 324.084C71.3031 325.943 68.8375 329.199 67.182 332.638C66.7933 333.413 66.9283 335.155 67.2866 335.737C67.8154 336.551 69.4031 339.341 70.594 339.85C71.7797 340.402 71.9347 339.67 72.0166 338.978ZM90.5537 362.738C88.9287 359.249 87.6837 353.453 87.4882 347.541C87.2529 341.006 89.5293 335.31 90.1431 332.959C90.766 330.616 89.416 330.458 88.1566 330.268C86.9025 330.145 85.2275 329.945 84.3909 329.747C82.7897 329.405 82.2917 329.207 80.9067 328.925C79.5754 328.681 77.8023 328.962 77.1136 330.455C76.4145 331.923 71.9696 339.464 72.9006 351.482C73.1869 355.177 74.8379 362.39 77.8362 363.715C80.7432 365.065 85.564 366.308 89.8226 365.979C89.974 365.967 90.1663 365.935 90.3262 365.923C91.6851 365.868 91.6173 364.993 90.5537 362.738ZM111.361 341.162C111.241 339.605 110.826 338.189 110.604 337.394C110.386 336.445 109.585 336.38 109.311 337.104C109.023 337.753 107.653 341.39 104.103 344.738C100.548 348.146 96.5445 350.125 90.7627 350.683C90.0745 350.761 89.8032 351.849 89.8775 352.809C89.9518 353.768 91.1289 360.984 93.7472 363.524C94.4137 364.15 95.0753 365.038 96.3977 364.512C105.688 360.719 112.172 351.623 111.361 341.162ZM403.439 319.558C404.538 333.74 393.817 346.06 379.476 347.171C365.16 348.28 352.669 337.758 351.57 323.577C350.478 309.471 361.196 297.109 375.511 296C389.853 294.889 402.347 305.453 403.439 319.558ZM364.075 303.236C364.307 306.232 369.142 306.891 372.34 306.643C375.513 306.397 379.312 304.841 382.016 303.785C384.727 302.712 385.193 301.075 385.138 300.377C385.084 299.67 384.452 298.296 383.548 298.095C381.08 297.499 378.529 297.248 375.878 297.454C371.88 297.763 368.106 298.775 364.983 301.083C364.189 301.653 364.004 302.327 364.075 303.236ZM361.103 321.492C367.524 326.557 371.264 326.2 373.415 326.321C375.568 326.459 376.83 325.04 376.665 323.453C376.161 318.81 372.237 311.105 371.131 309.725C370.433 308.806 369.333 308.265 369.333 308.265C367.066 307.856 364.845 307.054 363.646 305.903C362.44 304.76 362.229 303.134 362.229 303.134C361.825 303.487 360.794 304.498 360.794 304.498C358.724 306.631 356.884 309.11 355.952 311.943C354.755 315.507 359.688 320.383 361.103 321.492ZM375.244 341.614C377.424 338.719 377.461 331.435 377.385 330.458C377.309 329.474 376.901 328.472 376.191 328.494C370.358 328.827 366.129 327.453 362.069 324.668C358.061 321.889 356.123 318.517 355.745 317.902C355.32 317.224 354.609 317.44 354.498 318.414C354.436 319.257 354.243 320.703 354.363 322.243C355.172 332.696 362.963 340.686 372.769 343.008C374.125 343.352 374.667 342.362 375.244 341.614ZM393.938 326.534C393.009 314.541 387.452 307.733 386.551 306.372C385.636 305.046 383.847 305.015 382.56 305.453C381.234 305.937 380.756 306.211 379.26 306.793C378.464 307.117 376.85 307.598 375.623 307.938C374.39 308.296 373.073 308.678 374.049 310.896C375.052 313.13 378.133 318.361 378.917 324.879C379.642 330.732 379.281 336.679 378.253 340.348C377.532 342.732 377.627 343.639 378.946 343.503L379.443 343.465C383.726 343.133 388.297 341.145 390.963 339.389C393.694 337.585 394.223 330.212 393.938 326.534ZM394.434 314.685C395.548 313.981 396.687 310.98 397.067 310.087C397.341 309.473 397.19 307.74 396.71 307.016C394.525 303.841 391.609 301.052 387.984 299.733C387.549 299.58 386.959 299.609 387.034 300.577C387.077 301.133 386.832 302.015 386.873 302.545C386.906 303.085 386.766 304.222 387.546 305.008C388.32 305.82 391.876 311.056 392.919 314.032C393.096 314.679 393.321 315.398 394.434 314.685ZM400.937 318.626C400.757 316.303 400.264 314.089 399.433 311.995C399.433 311.995 398.813 311.103 398.365 311.976C398.039 312.577 397.556 313.232 397.163 314.059C396.762 314.894 394.399 316.965 394.728 318.472C396.038 324.018 395.835 331.569 395.694 332.808C395.503 334.059 395.927 334.61 396.557 333.892C399.513 330.514 401.404 324.652 400.937 318.626ZM354.011 249.948C356.279 247.638 356.034 244.914 353.761 242.787L351.844 240.997L344.801 248.333L346.254 249.71C348.745 252.024 351.813 252.285 354.011 249.948ZM373.285 360.807C376.551 363.848 380.449 369.354 380.277 378.274C380.069 390.457 363.053 423.263 329.968 445.376C303.29 463.199 274.126 473.417 243.256 475.809C212.419 478.198 182.03 472.593 152.925 459.092C116.82 442.331 94.9795 412.544 92.8558 400.542C91.3451 391.752 94.3232 385.713 97.1247 382.202C100.84 377.478 106.729 374.151 112.123 373.734C121.356 373.018 125.577 377.119 128.888 380.3C161.441 411.645 203.713 429.317 239.439 426.549C275.175 423.78 314.271 399.813 341.582 363.822C344.339 360.171 347.869 355.47 357.144 354.751C362.522 354.343 368.87 356.721 373.285 360.807ZM176.226 445.984L184.427 428.347L176.891 424.96L169.211 441.557C166.888 446.546 164.354 449.79 159.61 447.576C154.939 445.423 155.694 441.724 158.064 436.57L165.768 419.954L158.258 416.565L150.119 434.129C145.636 443.798 152.628 449.031 157.961 451.42C163.653 453.968 171.779 455.574 176.226 445.984ZM221.475 436.196L214.332 434.912L210.408 455.629L198.22 431.961L191.683 430.757L186.107 460.086L193.217 461.372L197.178 440.483L209.534 464.35L215.925 465.531L221.475 436.196ZM238.582 436.682L230.654 436.865L231.372 466.68L239.307 466.48L238.582 436.682ZM262.659 436.222L270.878 434.443L270.001 430.557L245.708 435.885L246.555 439.714L254.897 437.882L260.521 463.151L268.273 461.467L262.659 436.222ZM306.209 448.207L304.697 444.531L294.033 448.846L290.321 439.955L299.047 436.409L297.516 432.709L288.782 436.264L285.628 428.66L294.555 424.988L293.027 421.331L276.687 428.007L288.193 455.546L306.209 448.207ZM333.042 412.609C327.401 404.376 319.163 404.811 310.338 410.786L300.587 417.384L317.689 442.068L327.398 435.483C337.446 428.684 337.738 419.552 333.042 412.609ZM312.317 414.257L309.429 416.216L321.978 434.268L324.664 432.435C330.297 428.646 330.698 423.763 326.364 417.444C323.367 412.96 319.076 409.703 312.317 414.257ZM69.1541 273.396L69.1002 273.138L69.337 272.916C74.9432 268.452 85.4037 260.089 101.053 234.112C110.46 218.499 146.846 167.081 219.208 161.475C291.587 155.867 335.425 201.07 347.133 215.047C366.76 238.453 377.878 244.797 384.524 248.625L384.738 248.761L384.761 249.056C385.087 256.439 384.752 280.959 367.182 286.85C355.027 290.924 341.537 284.341 324.74 265.44C311.973 250.156 276.652 207.782 223.109 211.93C169.59 216.077 141.192 263.387 130.94 280.454C117.297 301.713 104.957 310.298 92.3017 308.145C74.0963 305.06 69.97 280.758 69.1541 273.396ZM328.054 254.338L333.788 259.719L342.081 251.143L344.87 253.805L340.204 266.799L347.366 271.604L350.897 257.733C350.962 257.804 355.722 259.687 360.464 254.773C364.43 250.664 362.606 245.59 357.777 241.071L348.873 232.701L328.054 254.338ZM331.378 214.185L309.806 235.084L323.391 248.789L326.299 245.999L318.262 237.892L325.277 231.168L331.833 237.764L334.74 234.964L328.148 228.338L334.077 222.578L340.835 229.378L343.711 226.616L331.378 214.185ZM303.707 197.008L310.456 202.158L294.436 222.686L300.75 227.472L316.745 206.945L323.411 212.008L325.862 208.889L306.168 193.905L303.707 197.008ZM272.291 202.744L268.441 204.735C269.55 207.689 271.854 210.652 276.609 213.01C282.49 215.915 288.572 214.868 291.079 209.958C292.913 206.523 292.718 203.794 289.833 199.116C289.078 197.786 288.159 196.858 287.49 195.648C286.221 193.697 285.073 192.11 285.902 190.454C286.821 188.664 289.243 188.333 291.559 189.491C293.981 190.692 295.108 192.899 295.717 194.418L299.225 192.597C297.887 189.746 296.032 187.231 292.092 185.326C285.357 181.996 280.192 183.412 278.29 187.166C276.356 190.948 277.22 193.904 279.124 196.847C279.124 196.847 280.295 198.517 280.984 199.657C282.627 201.952 284.562 204.85 283.513 206.836C282.251 209.338 279.809 210.052 277.269 208.75C274.007 207.073 273.109 204.882 272.291 202.744ZM246.048 201.695L264.876 206.476L265.889 202.622L254.772 199.766L257.259 190.455L266.364 192.789L267.393 188.916L258.281 186.591L260.38 178.614L269.76 180.994L270.748 177.142L253.663 172.776L246.048 201.695ZM212.27 203.059L220.211 202.613L219.408 188.968L231.24 188.263L232.067 201.881L239.987 201.386L238.198 171.62L230.277 172.115L230.989 184.252L219.176 184.998L218.411 172.823L210.489 173.293L212.27 203.059ZM178.42 196.724C180.055 201.863 185.539 211.133 200.26 206.826C204.357 205.721 206.477 203.914 208.489 201.692L205.523 198.815C204.584 200.022 203.179 201.782 199.783 202.756C192.654 204.824 187.905 199.375 186.441 194.468C184.278 187.193 188.242 181.756 193.092 180.321C196.559 179.282 198.762 180.06 200.157 180.477L200.199 180.474L200.823 176.615C198.377 175.856 195.475 175.455 191.113 176.732C181.466 179.537 175.548 187.192 178.42 196.724ZM139.759 206.094L157.681 230.106L163.464 225.856L150.693 208.761L176.858 216.115L182.09 212.289L164.135 188.288L158.305 192.592L170.995 209.508L145.095 202.184L139.759 206.094ZM120.447 228.063L137.075 255.273L140.313 251.28L135.808 244.052L142.203 236.114L150.362 238.809L155.694 232.224L125.184 222.218L120.447 228.063ZM89.1801 269.601L113.73 286.936L116.913 282.557L99.5613 270.27L121.963 275.604L124.052 272.733L112.035 252.929L129.463 265.21L134.109 258.839L109.559 241.505L104.464 248.529L116.59 269.095L93.5728 263.571L89.1801 269.601Z" fill="#DA020E"/>
</svg>
