<svg width="148" height="148" viewBox="0 0 148 148" fill="none" xmlns="http://www.w3.org/2000/svg">
<path d="M70.9165 12.3333C50.5141 12.3333 33.9165 34.7492 33.9165 62.2987C33.9165 77.2036 38.7943 90.5698 46.4903 99.7181C46.3423 100.375 46.2498 101.05 46.2498 101.75C46.2498 106.859 50.3908 111 55.4998 111C60.6089 111 64.7498 106.859 64.7498 101.75C64.7498 96.6409 60.6089 92.5 55.4998 92.5C54.5286 92.5 53.6128 92.6912 52.7341 92.9687C46.885 85.5039 43.1665 74.5396 43.1665 62.2987C43.1665 39.849 55.6139 21.5833 70.9165 21.5833C82.7473 21.5833 92.8421 32.5199 96.8288 47.8472C100.288 48.914 103.726 50.2583 107.096 51.8802C103.535 29.3163 88.6734 12.3333 70.9165 12.3333Z" fill="#7E57C2"/>
<path d="M109.48 61.9257C97.31 54.5503 83.6601 51.3128 71.9188 52.8021C70.2229 50.7023 67.6576 49.3333 64.75 49.3333C59.6409 49.3333 55.5 53.4743 55.5 58.5833C55.5 63.6924 59.6409 67.8333 64.75 67.8333C68.672 67.8333 72.0051 65.3821 73.3494 61.938C82.9632 60.7694 94.3531 63.5753 104.685 69.8406C124.428 81.807 134.501 102.428 127.138 115.816C124.588 120.454 120.09 123.747 114.133 125.344C107.084 127.228 98.6944 126.559 90.3077 123.716C87.7208 126.096 84.915 128.335 81.9057 130.4C89.7743 133.844 97.9267 135.654 105.552 135.654C109.375 135.654 113.069 135.201 116.525 134.276C124.977 132.016 131.452 127.172 135.244 120.272C144.966 102.601 133.407 76.4266 109.48 61.9257Z" fill="#7E57C2"/>
<path d="M107.917 89.392C107.917 84.2983 103.776 80.1667 98.6666 80.1667C93.5575 80.1667 89.4166 84.2983 89.4166 89.392C89.4166 91.4547 90.1196 93.3417 91.2666 94.8772C87.323 103.517 79.7226 112.042 69.4921 118.243C57.575 125.47 44.255 128.116 33.8642 125.341C27.9072 123.743 23.4086 120.45 20.8587 115.813C15.6108 106.273 19.2522 93.0704 28.9062 81.9334C27.9102 78.4061 27.1733 74.7184 26.7293 70.9105C11.0968 85.7012 4.80991 105.823 12.7557 120.272C16.5482 127.172 23.0232 132.016 31.4746 134.276C34.931 135.201 38.6217 135.654 42.4482 135.654C52.765 135.654 64.0531 132.361 74.2867 126.158C86.1143 118.989 94.8926 108.962 99.5977 98.5248C104.263 98.0531 107.917 94.1681 107.917 89.392Z" fill="#7E57C2"/>
</svg>
