<svg width="265" height="148" viewBox="0 0 265 148" fill="none" xmlns="http://www.w3.org/2000/svg">
<path fill-rule="evenodd" clip-rule="evenodd" d="M36.0947 1.23077C55.6903 1.23077 71.5751 17.1418 71.5751 36.7692V111.846C71.5751 131.474 55.6903 147.385 36.0947 147.385C16.499 147.385 0.614258 131.474 0.614258 111.846V36.7692C0.614258 17.1418 16.499 1.23077 36.0947 1.23077Z" fill="#FD0183"/>
<path fill-rule="evenodd" clip-rule="evenodd" d="M132.552 1.23077C152.148 1.23077 168.033 17.1418 168.033 36.7692V111.846C168.033 131.474 152.148 147.385 132.552 147.385C112.957 147.385 97.0718 131.474 97.0718 111.846V36.7692C97.0718 17.1418 112.957 1.23077 132.552 1.23077Z" fill="#FD0183"/>
<path fill-rule="evenodd" clip-rule="evenodd" d="M228.395 1.23077C247.991 1.23077 263.876 17.1418 263.876 36.7692V111.846C263.876 131.474 247.991 147.385 228.395 147.385C208.8 147.385 192.915 131.474 192.915 111.846V36.7692C192.915 17.1418 208.8 1.23077 228.395 1.23077Z" fill="#FD0183"/>
</svg>
