<svg width="468" height="808" viewBox="0 0 468 808" fill="none" xmlns="http://www.w3.org/2000/svg">
<mask id="mask0_92_1061" style="mask-type:alpha" maskUnits="userSpaceOnUse" x="0" y="0" width="468" height="808">
<rect width="468" height="808" rx="12" fill="black"/>
</mask>
<g mask="url(#mask0_92_1061)">
<path fill-rule="evenodd" clip-rule="evenodd" d="M86.8963 203.672C121.634 200.292 151.457 224.472 153.511 257.679L161.365 384.699C163.418 417.907 136.924 447.565 102.187 450.945C67.4494 454.324 37.6258 430.145 35.5724 396.937L27.718 269.917C25.6646 236.71 52.159 207.051 86.8963 203.672Z" fill="#FD0183"/>
<path fill-rule="evenodd" clip-rule="evenodd" d="M252.335 190.855C287.073 187.475 316.896 211.655 318.95 244.862L326.804 371.882C328.858 405.09 302.363 434.748 267.626 438.128C232.889 441.507 203.065 417.328 201.012 384.12L193.157 257.1C191.104 223.893 217.598 194.234 252.335 190.855Z" fill="#FD0183"/>
<path fill-rule="evenodd" clip-rule="evenodd" d="M416.721 178.119C451.458 174.74 481.282 198.919 483.335 232.126L491.19 359.147C493.243 392.354 466.749 422.013 432.011 425.392C397.274 428.772 367.451 404.592 365.397 371.385L357.543 244.365C355.489 211.158 381.984 181.499 416.721 178.119Z" fill="#FD0183"/>
</g>
</svg>
