<svg width="468" height="808" viewBox="0 0 468 808" fill="none" xmlns="http://www.w3.org/2000/svg">
<mask id="mask0_92_1169" style="mask-type:alpha" maskUnits="userSpaceOnUse" x="0" y="0" width="468" height="808">
<rect width="468" height="808" rx="12" fill="black"/>
</mask>
<g mask="url(#mask0_92_1169)">
<path d="M324.823 171.745L116.049 187.919C80.7179 190.656 54.0502 221.803 56.7874 257.134L72.9617 465.908C75.6988 501.239 106.846 527.907 142.177 525.17L350.951 508.996C386.282 506.258 412.95 475.112 410.213 439.781L394.038 231.006C391.301 195.675 360.154 169.007 324.823 171.745Z" fill="#FFCA58"/>
<path d="M409.841 434.979L412.294 466.643C392.117 484.26 382.24 495.796 377.824 506.908L115.303 527.247C109.228 516.947 91.9238 502.131 75.0431 492.776L72.4059 458.735C118.986 441.108 174.804 428.663 235.37 423.971C299.255 419.016 359.332 423.441 409.841 434.979Z" fill="#31C4F3"/>
<path d="M411.742 459.523L412.294 466.648C397.47 483.845 382.24 495.795 377.824 506.908L115.303 527.246C103.874 517.361 92.3386 507.484 75.0431 492.776L74.4911 485.651C112.412 467.263 172.688 452.716 241.166 447.411C309.724 442.1 371.442 447.195 411.742 459.523Z" fill="#3070B7"/>
<path d="M405.995 385.344L409.841 434.984C359.332 423.447 299.255 419.022 235.37 423.971C174.81 428.663 118.986 441.109 72.4059 458.735L68.5788 409.336C116.346 392.651 171.521 381.134 231.691 376.472C295.099 371.554 354.384 375.007 405.995 385.344Z" fill="#31C4F3"/>
<path d="M398.402 287.333L405.995 385.339C354.383 375.002 295.098 371.549 231.69 376.461C171.525 381.123 116.346 392.646 68.5779 409.325L61.01 311.64C110.485 296.417 165.349 286.033 224.33 281.464C286.476 276.655 345.025 278.888 398.402 287.333Z" fill="#40A6DD"/>
<path d="M391.956 204.128L398.402 287.333C345.025 278.882 286.475 276.649 224.33 281.464C165.349 286.033 110.485 296.417 61.01 311.64L54.705 230.256C69.9434 218.412 74.4671 207.291 89.1754 189.996L351.696 169.657C363.539 184.896 374.66 189.42 391.956 204.128Z" fill="#3070B7"/>
<path d="M397.47 483.845C392.021 495.738 382.24 495.796 377.824 506.908L115.303 527.247C109.228 516.947 99.635 518.39 92.3385 507.484C136.041 489.763 181.248 479.927 243.313 475.119C305.378 470.311 351.56 473.066 397.47 483.845Z" fill="#3070B7"/>
<path d="M351.366 514.349L142.591 530.523C104.155 533.501 70.5862 504.759 67.6084 466.323L51.4342 257.549C48.4564 219.113 77.1983 185.543 115.634 182.566L324.409 166.391C362.844 163.414 396.414 192.156 399.391 230.591L415.566 439.366C418.543 477.802 389.796 511.371 351.366 514.349ZM62.1405 256.719L78.3148 465.494C80.8343 498.014 109.241 522.336 141.762 519.817L350.536 503.642C383.057 501.123 407.379 472.716 404.859 440.195L388.685 231.421C386.166 198.9 357.759 174.578 325.238 177.098L116.464 193.272C83.9377 195.792 59.6211 224.199 62.1405 256.719Z" fill="#1F212B"/>
<path d="M244.075 484.958C319.465 479.118 375.847 413.267 370.006 337.876C364.165 262.486 298.314 206.105 222.924 211.946C147.534 217.786 91.1525 283.637 96.9932 359.027C102.834 434.418 168.685 490.799 244.075 484.958Z" fill="white"/>
<path d="M325.691 252.452C325.691 252.452 279.547 212.944 220.662 217.506C167.13 221.653 132.561 262.029 132.561 262.029C132.561 262.029 102.93 296.636 102.139 355.936C155.671 351.789 321.62 338.932 364.445 335.615C361.542 298.142 325.691 252.452 325.691 252.452Z" fill="#F05B6C"/>
<path d="M243.66 479.605C316.094 473.994 370.264 410.725 364.653 338.291C359.041 265.857 295.773 211.687 223.339 217.299C150.905 222.91 96.7348 286.179 102.346 358.613C107.958 431.047 171.226 485.217 243.66 479.605Z" stroke="#1F212B" stroke-width="4" stroke-miterlimit="10" stroke-linecap="round" stroke-linejoin="round"/>
<path d="M277.987 443.261C266.846 448.491 254.584 451.832 241.587 452.839" stroke="#1F212B" stroke-width="2" stroke-miterlimit="10" stroke-linecap="round" stroke-linejoin="round"/>
<path d="M337.628 359.551C334.307 391.054 316.86 418.81 291.332 435.753" stroke="#1F212B" stroke-width="2" stroke-miterlimit="10" stroke-linecap="round" stroke-linejoin="round"/>
<path d="M182.625 256.912C195.403 249.804 209.877 245.268 225.412 244.065" stroke="#1F212B" stroke-width="2" stroke-miterlimit="10" stroke-linecap="round" stroke-linejoin="round"/>
<path d="M161.525 272.408C164.55 269.54 167.756 266.847 171.117 264.352" stroke="#1F212B" stroke-width="2" stroke-miterlimit="10" stroke-linecap="round" stroke-linejoin="round"/>
<path d="M137.136 307.46C140.96 298.494 146.005 290.143 152.08 282.634" stroke="#1F212B" stroke-width="2" stroke-miterlimit="10" stroke-linecap="round" stroke-linejoin="round"/>
<path d="M104.608 353.052L361.561 333.145" stroke="#1F212B" stroke-width="2" stroke-miterlimit="10" stroke-linecap="round" stroke-linejoin="round"/>
<path d="M235.988 380.571C256.683 378.968 272.161 360.891 270.557 340.196C268.954 319.5 250.877 304.023 230.182 305.626C209.486 307.23 194.009 325.306 195.613 346.002C197.216 366.697 215.293 382.174 235.988 380.571Z" stroke="#1F212B" stroke-width="2" stroke-miterlimit="10" stroke-linecap="round" stroke-linejoin="round"/>
<path d="M235.781 377.895C254.998 376.406 269.369 359.62 267.881 340.403C266.392 321.186 249.606 306.814 230.389 308.303C211.172 309.792 196.8 326.577 198.289 345.795C199.778 365.012 216.563 379.383 235.781 377.895Z" fill="white"/>
</g>
</svg>
