<svg width="148" height="148" viewBox="0 0 148 148" fill="none" xmlns="http://www.w3.org/2000/svg">
<path d="M118.4 2.27698L29.5999 2.27698C14.5722 2.27698 2.27686 14.5724 2.27686 29.6001L2.27686 118.4C2.27686 133.428 14.5722 145.723 29.5999 145.723H118.4C133.428 145.723 145.723 133.428 145.723 118.4V29.6001C145.723 14.5724 133.428 2.27698 118.4 2.27698Z" fill="#FFCA58"/>
<path d="M145.723 116.358V129.826C136.615 136.613 132.061 141.167 129.83 145.721H18.1698C15.9384 141.167 9.10762 134.336 2.27686 129.828L2.27686 115.349C22.5483 109.422 46.5562 105.989 72.3173 105.989C99.4901 105.986 124.746 109.825 145.723 116.358Z" fill="#31C4F3"/>
<path d="M145.723 126.797V129.828C138.892 136.613 132.061 141.167 129.83 145.721H18.1698C13.6615 141.167 9.10762 136.613 2.27686 129.828V126.797C18.9121 120.265 44.8735 116.089 73.9999 116.089C103.16 116.089 129.088 120.265 145.723 126.797Z" fill="#3070B7"/>
<path d="M145.723 95.246V116.36C124.746 109.827 99.4901 105.989 72.3173 105.989C46.5585 105.989 22.5483 109.422 2.27686 115.349L2.27686 94.3375C23.0196 88.8479 46.7247 85.7854 72.3173 85.7854C99.2874 85.7831 124.24 89.1849 145.723 95.246Z" fill="#31C4F3"/>
<path d="M145.723 53.5579V95.2438C124.24 89.1826 99.2874 85.7809 72.3173 85.7809C46.7269 85.7809 23.0196 88.8456 2.27686 94.333L2.27686 52.7837C23.6936 47.968 47.2301 45.3746 72.3173 45.3746C98.7501 45.3769 123.432 48.239 145.723 53.5579Z" fill="#40A6DD"/>
<path d="M145.723 18.1676V53.5578C123.432 48.2366 98.7501 45.3745 72.3173 45.3745C47.2301 45.3745 23.6936 47.9679 2.27686 52.7836L2.27686 18.1676C9.10762 13.6593 11.3845 9.10543 18.1698 2.27466L129.83 2.27466C134.338 9.10543 138.892 11.3823 145.723 18.1676Z" fill="#3070B7"/>
<path d="M138.893 136.613C136.199 141.463 132.062 141.167 129.83 145.721H18.1701C15.9387 141.167 11.8357 141.463 9.10791 136.613C28.1658 130.552 47.6016 127.874 74.0002 127.874C100.399 127.874 119.835 130.552 138.893 136.613Z" fill="#3070B7"/>
<path d="M118.4 148H29.6C13.2517 148 0 134.748 0 118.4L0 29.6C0 13.2517 13.2517 0 29.6 0L118.4 0C134.748 0 148 13.2517 148 29.6V118.4C148 134.748 134.746 148 118.4 148ZM4.55385 29.6L4.55385 118.4C4.55385 132.232 15.7677 143.446 29.6 143.446H118.4C132.232 143.446 143.446 132.232 143.446 118.4V29.6C143.446 15.7677 132.232 4.55385 118.4 4.55385L29.6 4.55385C15.7654 4.55385 4.55385 15.7677 4.55385 29.6Z" fill="#1F212B"/>
<path d="M74 132.059C106.067 132.059 132.062 106.064 132.062 73.9978C132.062 41.9313 106.067 15.9363 74 15.9363C41.9335 15.9363 15.9385 41.9313 15.9385 73.9978C15.9385 106.064 41.9335 132.059 74 132.059Z" fill="white"/>
<path d="M116.123 36.4285C116.123 36.4285 97.9076 18.2131 72.8615 18.2131C50.0923 18.2131 34.1538 34.1516 34.1538 34.1516C34.1538 34.1516 20.4923 47.8131 18.2153 72.8593C40.9846 72.8593 111.569 72.8593 129.785 72.8593C129.785 56.9208 116.123 36.4285 116.123 36.4285Z" fill="#F05B6C"/>
<path d="M74 129.782C104.809 129.782 129.785 104.807 129.785 73.9978C129.785 43.1888 104.809 18.2131 74 18.2131C43.191 18.2131 18.2153 43.1888 18.2153 73.9978C18.2153 104.807 43.191 129.782 74 129.782Z" stroke="#1F212B" stroke-width="4" stroke-miterlimit="10" stroke-linecap="round" stroke-linejoin="round"/>
<path d="M89.7039 115.54C84.8222 117.387 79.5284 118.398 74 118.398" stroke="#1F212B" stroke-width="2" stroke-miterlimit="10" stroke-linecap="round" stroke-linejoin="round"/>
<path d="M117.663 82.1013C115.226 95.312 106.94 106.476 95.5923 112.803" stroke="#1F212B" stroke-width="2" stroke-miterlimit="10" stroke-linecap="round" stroke-linejoin="round"/>
<path d="M55.4888 33.6279C61.1242 31.0413 67.3925 29.5978 74.0002 29.5978" stroke="#1F212B" stroke-width="2" stroke-miterlimit="10" stroke-linecap="round" stroke-linejoin="round"/>
<path d="M46.0601 39.4887C47.433 38.3753 48.8766 37.3415 50.3794 36.3966" stroke="#1F212B" stroke-width="2" stroke-miterlimit="10" stroke-linecap="round" stroke-linejoin="round"/>
<path d="M34.6001 53.51C36.5104 49.8442 38.9171 46.4789 41.7314 43.5029" stroke="#1F212B" stroke-width="2" stroke-miterlimit="10" stroke-linecap="round" stroke-linejoin="round"/>
<path d="M19.354 71.7208H128.646" stroke="#1F212B" stroke-width="2" stroke-miterlimit="10" stroke-linecap="round" stroke-linejoin="round"/>
<path d="M74 87.6593C82.8026 87.6593 89.9384 80.5234 89.9384 71.7208C89.9384 62.9182 82.8026 55.7823 74 55.7823C65.1974 55.7823 58.0615 62.9182 58.0615 71.7208C58.0615 80.5234 65.1974 87.6593 74 87.6593Z" stroke="#1F212B" stroke-width="2" stroke-miterlimit="10" stroke-linecap="round" stroke-linejoin="round"/>
<path d="M74.0002 86.5209C82.174 86.5209 88.8002 79.8947 88.8002 71.7209C88.8002 63.5471 82.174 56.9209 74.0002 56.9209C65.8264 56.9209 59.2002 63.5471 59.2002 71.7209C59.2002 79.8947 65.8264 86.5209 74.0002 86.5209Z" fill="white"/>
</svg>
