<svg width="148" height="148" viewBox="0 0 148 148" fill="none" xmlns="http://www.w3.org/2000/svg">
<path d="M74 0C54.374 0 35.5518 7.79641 21.6741 21.6741C7.79641 35.5518 0 54.374 0 74C0 93.626 7.79641 112.448 21.6741 126.326C35.5518 140.204 54.374 148 74 148C93.626 148 112.448 140.204 126.326 126.326C140.204 112.448 148 93.626 148 74C148 54.374 140.204 35.5518 126.326 21.6741C112.448 7.79641 93.626 0 74 0Z" fill="#29B6F6"/>
<path d="M110.815 40.7L96.955 111.466C96.955 111.466 96.3593 114.7 92.3485 114.7C90.2173 114.7 89.1184 113.686 89.1184 113.686L59.0966 88.7741L44.4076 81.3704L25.5561 76.3569C25.5561 76.3569 22.2002 75.3875 22.2002 72.6125C22.2002 70.3 25.6523 69.1974 25.6523 69.1974L104.521 37.8658C104.518 37.8621 106.93 36.9963 108.688 37C109.768 37 111 37.4625 111 38.85C111 39.775 110.815 40.7 110.815 40.7Z" fill="white"/>
<path d="M70.3 98.0685L57.6238 110.552C57.6238 110.552 57.0725 110.978 56.3362 110.996C56.0809 111.004 55.8071 110.963 55.5259 110.837L59.0927 88.7667L70.3 98.0685Z" fill="#B0BEC5"/>
<path d="M95.8188 52.5252C95.1935 51.7112 94.0391 51.5632 93.2251 52.1811L44.3999 81.4C44.3999 81.4 52.1921 103.2 53.3798 106.974C54.5712 110.752 55.5258 110.841 55.5258 110.841L59.0926 88.7704L95.471 55.1152C96.285 54.4973 96.4367 53.3392 95.8188 52.5252Z" fill="#CFD8DC"/>
</svg>
