<svg width="468" height="808" viewBox="0 0 468 808" fill="none" xmlns="http://www.w3.org/2000/svg">
<mask id="mask0_92_1022" style="mask-type:alpha" maskUnits="userSpaceOnUse" x="0" y="0" width="468" height="808">
<rect width="468" height="808" rx="12" fill="black"/>
</mask>
<g mask="url(#mask0_92_1022)">
<path d="M222.552 186.199C184.214 189.169 148.627 207.247 123.618 236.456C98.6098 265.665 86.2287 303.612 89.1988 341.949C92.1689 380.287 110.247 415.874 139.456 440.883C168.665 465.892 206.612 478.273 244.949 475.303C283.287 472.332 318.874 454.254 343.883 425.046C368.892 395.837 381.273 357.889 378.303 319.552C375.332 281.214 357.254 245.627 328.046 220.618C298.837 195.61 260.889 183.229 222.552 186.199Z" fill="#29B6F6"/>
<path d="M300.626 260.131L284.261 400.463C284.261 400.463 283.586 406.871 275.752 407.478C271.589 407.8 269.289 405.986 269.289 405.986L206.874 361.866L177.06 349.626L139.477 342.686C139.477 342.686 132.774 341.3 132.355 335.88C132.005 331.362 138.581 328.686 138.581 328.686L287.903 255.547C287.895 255.54 292.476 253.484 295.91 253.225C298.021 253.062 300.497 253.779 300.707 256.489C300.847 258.296 300.626 260.131 300.626 260.131Z" fill="white"/>
<path d="M230.165 378.326L207.293 404.63C207.293 404.63 206.28 405.545 204.845 405.693C204.347 405.746 203.806 405.708 203.238 405.504L206.865 361.852L230.165 378.326Z" fill="#B0BEC5"/>
<path d="M273.122 285.5C271.777 284.004 269.5 283.89 268.003 285.22L177.05 349.685C177.05 349.685 195.57 391.091 198.461 398.284C201.36 405.483 203.239 405.512 203.239 405.512L206.866 361.859L272.834 290.612C274.331 289.282 274.452 286.996 273.122 285.5Z" fill="#CFD8DC"/>
</g>
</svg>
