<svg width="148" height="148" viewBox="0 0 148 148" fill="none" xmlns="http://www.w3.org/2000/svg">
<path fill-rule="evenodd" clip-rule="evenodd" d="M0 24.6608C0 11.041 11.041 0 24.6609 0H123.301C136.921 0 147.962 11.041 147.962 24.6608V123.339C147.962 136.959 136.921 148 123.301 148H24.6609C11.041 148 0 136.959 0 123.339V24.6608Z" fill="#FEFDFB"/>
<path fill-rule="evenodd" clip-rule="evenodd" d="M24.6637 0H50.0584L138.546 142.71L137.105 143.787C133.169 146.447 128.424 148 123.316 148H24.6637C11.0423 148 0 136.956 0 123.333V24.6672C0 11.0439 11.0423 0 24.6637 0Z" fill="#BCDD86"/>
<path fill-rule="evenodd" clip-rule="evenodd" d="M24.6652 0H38.7253L129.927 147.079L128.294 147.499C126.688 147.828 125.026 148 123.323 148H24.6652C11.043 148 0 136.956 0 123.333V24.6672C0 11.0439 11.043 0 24.6652 0Z" fill="#70C174"/>
<path d="M20.669 45.204V66.5136H16.4071V45.204H10.0142V40.942H27.0619V45.204H20.669ZM49.9698 58.5225L57.9609 40.942H62.7556L49.9698 68.6446L45.7079 59.4048L41.4459 68.6446L28.6602 40.942H33.4548L41.4459 58.5225L45.7079 49.1496L49.9698 58.5225Z" fill="black"/>
<path d="M20.669 86.1336V107.443H16.4071V86.1336H10.0142V81.8717H27.0619V86.1336H20.669ZM37.0175 95.3068L36.7512 94.6575L28.4937 81.8717H33.2883L39.1485 90.945L45.0087 81.8717H49.8033L41.5458 94.6575L41.2795 95.1403V107.443H37.0175V95.3068ZM58.6268 101.05H55.4304V107.443H51.1685V81.8717H60.7578C63.4104 81.8717 65.669 82.8096 67.5336 84.6853C69.4093 86.5499 70.3472 88.8085 70.3472 91.4611C70.3472 94.1137 69.4149 96.3723 67.5503 98.2369C66.3738 99.4133 65.0475 100.224 63.5714 100.667L70.3472 107.443H65.0197L58.6268 101.05ZM55.4304 86.1336V96.7885H60.7578C62.234 96.7885 63.4881 96.2724 64.5203 95.2402C65.5636 94.1969 66.0852 92.9372 66.0852 91.4611C66.0852 89.9849 65.5636 88.7308 64.5203 87.6986C63.4881 86.6553 62.234 86.1336 60.7578 86.1336H55.4304ZM88.8266 81.8717V86.1336H78.1718V92.5265H86.6957V96.7885H78.1718V103.181H88.8266V107.443H73.9099V81.8717H88.8266Z" fill="black"/>
<path fill-rule="evenodd" clip-rule="evenodd" d="M99.249 93.6106C99.249 85.8415 105.547 79.5434 113.316 79.5434C121.085 79.5434 127.383 85.8415 127.383 93.6106C127.383 101.38 121.085 107.678 113.316 107.678C105.547 107.678 99.249 101.38 99.249 93.6106ZM103.622 93.6106C103.622 98.9648 107.962 103.305 113.316 103.305C118.671 103.305 123.011 98.9648 123.011 93.6106C123.011 88.2563 118.671 83.9161 113.316 83.9161C107.962 83.9161 103.622 88.2563 103.622 93.6106Z" fill="#D9D9D9"/>
<path fill-rule="evenodd" clip-rule="evenodd" d="M73.5823 52.6429C73.5823 44.8739 79.8804 38.5757 87.6495 38.5757C95.4185 38.5757 101.717 44.8739 101.717 52.6429C101.717 60.4119 95.4185 66.7101 87.6495 66.7101C79.8804 66.7101 73.5823 60.4119 73.5823 52.6429ZM77.9551 52.6429C77.9551 57.9972 82.2952 62.3373 87.6495 62.3373C93.0038 62.3373 97.3439 57.9972 97.3439 52.6429C97.3439 47.2886 93.0038 42.9485 87.6495 42.9485C82.2952 42.9485 77.9551 47.2886 77.9551 52.6429Z" fill="black"/>
<path fill-rule="evenodd" clip-rule="evenodd" d="M113.33 79.5434C121.092 79.5434 127.383 85.8415 127.383 93.6106C127.383 101.38 121.092 107.678 113.33 107.678C111.39 107.678 109.542 107.284 107.86 106.572L107.374 106.308V101.202L107.915 101.65C109.461 102.695 111.325 103.305 113.33 103.305C118.679 103.305 123.015 98.9648 123.015 93.6106C123.015 88.2563 118.679 83.9161 113.33 83.9161C111.325 83.9161 109.461 84.5263 107.915 85.5716L107.374 86.0188V80.9129L107.86 80.649C109.542 79.9371 111.39 79.5434 113.33 79.5434Z" fill="black"/>
<path d="M111.74 81.3279H107.374V104.223H111.74V81.3279Z" fill="black"/>
<path fill-rule="evenodd" clip-rule="evenodd" d="M101.068 69.3561C101.416 69.9214 101.24 70.6611 100.675 71.0089C100.11 71.3563 99.3697 71.1801 99.022 70.6151L88.3802 53.3161C88.0324 52.7511 88.209 52.0111 88.774 51.6637C89.3389 51.3159 90.0789 51.4925 90.4263 52.0574L101.068 69.3561Z" fill="#686868"/>
<path fill-rule="evenodd" clip-rule="evenodd" d="M110.083 52.3897C110.745 52.4265 111.252 52.9934 111.215 53.6559C111.179 54.3181 110.612 54.8253 109.949 54.7885L89.6704 53.6605C89.0082 53.6236 88.5009 53.0568 88.5378 52.3942C88.5746 51.732 89.1415 51.2248 89.804 51.2616L110.083 52.3897Z" fill="#686868"/>
<path fill-rule="evenodd" clip-rule="evenodd" d="M123.355 70.1462C124.017 70.1831 124.524 70.7499 124.487 71.4125C124.451 72.0746 123.884 72.5819 123.222 72.5451L100.112 71.2594C99.449 71.2226 98.9421 70.6558 98.9789 69.9936C99.0158 69.331 99.5826 68.8238 100.245 68.8606L123.355 70.1462Z" fill="#686868"/>
<path fill-rule="evenodd" clip-rule="evenodd" d="M124.852 70.251C125.264 70.7708 125.177 71.5264 124.657 71.9383C124.137 72.3503 123.381 72.263 122.969 71.7428L109.223 54.3936C108.811 53.8735 108.898 53.1183 109.418 52.7059C109.938 52.294 110.694 52.3817 111.106 52.9015L124.852 70.251Z" fill="#686868"/>
<path fill-rule="evenodd" clip-rule="evenodd" d="M115.461 93.2218C115.159 93.8129 114.436 94.0476 113.845 93.7461C113.254 93.4446 113.019 92.7214 113.32 92.1302L127.616 64.1017C127.918 63.5109 128.641 63.2759 129.232 63.5774C129.823 63.8788 130.058 64.6025 129.756 65.1933L115.461 93.2218Z" fill="#686868"/>
<path fill-rule="evenodd" clip-rule="evenodd" d="M112.299 48.649C112.669 48.0985 113.416 47.9523 113.966 48.3225C114.517 48.6927 114.663 49.4392 114.293 49.9897L101.377 69.1967C101.006 69.7472 100.26 69.8934 99.7094 69.5232C99.1592 69.153 99.0131 68.4065 99.3833 67.856L112.299 48.649Z" fill="#686868"/>
<path fill-rule="evenodd" clip-rule="evenodd" d="M116.605 49.1456C117.097 49.591 117.135 50.3507 116.689 50.8424C116.244 51.3337 115.484 51.3713 114.993 50.926L111.416 47.6865C110.925 47.2412 110.887 46.4814 111.332 45.9897C111.778 45.498 112.538 45.4604 113.029 45.9058L116.605 49.1456Z" fill="#686868"/>
<path fill-rule="evenodd" clip-rule="evenodd" d="M133.862 65.2066C134.481 65.4458 134.789 66.1414 134.549 66.7602C134.31 67.3791 133.614 67.6867 132.996 67.4471L128.495 65.7059C127.877 65.4663 127.569 64.7707 127.808 64.1518C128.048 63.5333 128.744 63.2258 129.362 63.4654L133.862 65.2066Z" fill="#686868"/>
</svg>
