<svg width="2037" height="2218" viewBox="0 0 2037 2218" fill="none" xmlns="http://www.w3.org/2000/svg">
<path d="M1846.26 1108.67C1716.15 671.424 1651.93 136.561 1121.26 169.142C-52.5086 241.206 107.771 1347.46 454.777 1250.48C1099.7 1070.23 815.709 1307.74 1337.35 1724.31C1858.99 2140.89 2008.89 1655.23 1846.26 1108.67Z" stroke="#3A506F"/>
<path d="M1811.52 1111.77C1691.03 682.173 1636.48 158.138 1117.02 181.821C-31.9313 234.205 107.757 1318.48 448.593 1228.99C1082.05 1062.67 800.671 1290.55 1304.37 1705.96C1808.07 2121.37 1962.14 1648.76 1811.52 1111.77Z" stroke="#3A506F"/>
<path d="M1777.48 1114.39C1666.32 692.649 1621.08 179.61 1112.99 194.757C-10.8282 228.261 109.002 1290.2 443.52 1207.98C1065.24 1055.17 786.699 1273.57 1272.62 1687.36C1758.55 2101.14 1916.42 1641.58 1777.48 1114.39Z" stroke="#3A506F"/>
<path d="M1744.14 1116.57C1642.04 702.86 1605.74 200.977 1109.15 207.953C10.7791 223.382 111.49 1262.63 439.548 1187.46C1049.26 1047.76 773.791 1256.82 1242.12 1668.53C1710.45 2080.23 1871.76 1633.71 1744.14 1116.57Z" stroke="#3A506F"/>
<path d="M1711.5 1118.32C1618.19 712.818 1590.47 222.242 1105.51 221.413C32.8617 219.578 115.199 1235.81 436.659 1167.46C1034.11 1040.44 761.934 1240.32 1212.86 1649.5C1663.78 2058.68 1828.15 1625.2 1711.5 1118.32Z" stroke="#3A506F"/>
<path d="M1679.59 1119.65C1594.77 722.532 1575.26 243.408 1102.06 235.141C55.3958 216.856 120.111 1209.75 434.842 1148C1019.78 1033.24 751.123 1224.1 1184.84 1630.3C1618.56 2036.51 1785.61 1616.05 1679.59 1119.65Z" stroke="#3A506F"/>
<path d="M1648.39 1120.59C1571.78 732.013 1560.12 264.474 1098.78 249.14C78.355 215.225 126.204 1184.48 434.079 1129.1C1006.28 1026.18 741.348 1208.17 1158.07 1610.97C1574.78 2013.76 1744.16 1606.3 1648.39 1120.59Z" stroke="#3A506F"/>
<path d="M1617.93 1121.14C1549.23 741.273 1545.05 285.444 1095.67 263.415C101.711 214.69 133.455 1160.03 434.354 1110.79C993.589 1019.27 732.597 1192.57 1132.53 1591.52C1532.47 1990.47 1703.8 1595.98 1617.93 1121.14Z" stroke="#3A506F"/>
<path d="M1588.2 1121.33C1527.13 750.321 1530.06 306.319 1092.73 277.967C125.441 215.259 141.846 1136.43 435.654 1093.09C981.71 1012.54 724.864 1177.31 1108.25 1571.99C1491.63 1966.68 1664.55 1585.1 1588.2 1121.33Z" stroke="#3A506F"/>
<path d="M1559.22 1121.18C1505.48 759.167 1515.13 327.1 1089.95 292.801C149.518 216.936 151.354 1113.69 437.961 1076.02C970.634 1006 718.137 1162.42 1085.2 1552.41C1452.27 1942.41 1626.41 1573.7 1559.22 1121.18Z" stroke="#3A506F"/>
<path d="M1530.99 1120.7C1484.27 767.825 1500.29 347.791 1087.32 307.919C173.913 219.729 161.953 1091.84 441.256 1059.6C960.354 999.67 712.403 1147.92 1063.4 1532.81C1414.39 1917.7 1589.39 1561.8 1530.99 1120.7Z" stroke="#3A506F"/>
<path d="M1503.52 1119.92C1463.52 776.303 1485.52 368.393 1084.84 323.325C198.6 223.642 173.622 1070.91 445.523 1043.85C950.863 993.568 707.651 1133.83 1042.83 1513.21C1378.01 1892.59 1553.51 1549.44 1503.52 1119.92Z" stroke="#3A506F"/>
<path d="M1476.8 1118.84C1443.23 784.612 1470.83 388.907 1082.49 339.02C223.557 228.677 186.34 1050.91 450.747 1028.8C942.159 987.712 703.875 1120.17 1023.5 1493.64C1343.12 1867.11 1518.77 1536.63 1476.8 1118.84Z" stroke="#3A506F"/>
<path d="M1450.86 1117.49C1423.4 792.763 1456.22 409.336 1080.28 355.008C248.755 234.84 200.082 1031.87 456.908 1014.46C934.23 982.119 701.057 1106.96 1005.4 1474.13C1309.74 1841.3 1485.18 1523.4 1450.86 1117.49Z" stroke="#3A506F"/>
<path d="M1425.68 1115.89C1404.03 800.769 1441.7 429.682 1078.19 371.29C274.166 242.133 214.821 1013.81 463.985 1000.86C927.069 976.806 699.186 1094.24 988.524 1454.71C1277.86 1815.19 1452.75 1509.79 1425.68 1115.89Z" stroke="#3A506F"/>
<path d="M1401.28 1114.05C1385.13 808.638 1427.26 449.948 1076.22 387.869C299.765 250.559 230.535 996.747 471.963 988.016C920.669 971.791 698.25 1082 972.875 1435.41C1247.5 1788.82 1421.47 1495.82 1401.28 1114.05Z" stroke="#3A506F"/>
<path d="M1377.66 1112C1366.7 816.384 1412.91 470.134 1074.35 404.747C325.525 260.119 247.198 980.707 480.822 975.943C915.021 967.09 698.235 1070.29 958.444 1416.26C1218.65 1762.23 1391.37 1481.51 1377.66 1112Z" stroke="#3A506F"/>
<path d="M1354.83 1109.74C1348.73 824.016 1398.64 490.244 1072.59 421.926C351.418 270.816 264.783 965.708 490.538 964.663C910.113 962.721 699.126 1059.11 945.222 1397.28C1191.32 1735.44 1362.44 1466.9 1354.83 1109.74Z" stroke="#3A506F"/>
<path d="M1332.77 1107.31C1331.24 831.546 1384.47 510.279 1070.93 439.408C377.421 282.651 283.267 951.769 501.096 954.194C905.942 958.7 700.91 1048.49 933.208 1378.49C1165.51 1708.5 1334.69 1452.02 1332.77 1107.31Z" stroke="#3A506F"/>
<path d="M1311.51 1104.72C1314.22 838.984 1370.39 530.242 1069.35 457.194C403.504 295.622 302.622 938.909 512.474 944.554C902.494 955.044 703.573 1038.44 922.392 1359.94C1141.21 1681.44 1308.13 1436.88 1311.51 1104.72Z" stroke="#3A506F"/>
<path d="M1291.04 1101.98C1297.67 846.344 1356.4 550.136 1067.85 475.286C429.637 309.731 322.816 927.148 524.646 935.761C899.757 951.768 707.094 1029 912.763 1341.65C1118.43 1654.3 1282.74 1421.52 1291.04 1101.98Z" stroke="#3A506F"/>
<path d="M1271.36 1099.12C1281.6 853.634 1342.5 569.961 1066.43 493.686C455.803 324.976 343.832 916.5 537.601 927.831C897.728 948.889 711.467 1020.16 904.32 1323.64C1097.17 1627.11 1258.55 1405.97 1271.36 1099.12Z" stroke="#3A506F"/>
<path d="M1252.47 1096.15C1266.01 860.867 1328.71 589.721 1065.08 512.394C481.97 341.356 365.637 906.985 551.31 920.781C896.392 946.421 716.671 1011.96 897.051 1305.94C1077.43 1599.91 1235.55 1390.26 1252.47 1096.15Z" stroke="#3A506F"/>
<path d="M1234.38 1093.1C1250.89 868.053 1315.01 609.418 1063.78 531.411C508.111 358.869 388.205 898.618 565.755 914.627C895.74 944.381 722.692 1004.42 890.947 1288.57C1059.2 1572.73 1213.74 1374.41 1234.38 1093.1Z" stroke="#3A506F"/>
<path d="M1217.09 1089.98C1236.25 875.205 1301.4 629.055 1062.54 550.738C534.2 377.512 411.505 891.416 580.91 909.386C895.758 942.784 729.509 997.538 885.996 1271.57C1042.48 1545.61 1193.13 1358.45 1217.09 1089.98Z" stroke="#3A506F"/>
<path d="M1200.59 1086.81C1222.08 882.333 1287.9 648.634 1061.34 570.377C560.212 397.284 435.512 885.393 596.757 905.072C896.438 941.645 737.11 991.349 882.192 1254.96C1027.27 1518.58 1173.72 1342.4 1200.59 1086.81Z" stroke="#3A506F"/>
<path d="M1184.89 1083.61C1208.4 889.448 1274.5 668.156 1060.18 590.327C586.119 418.179 460.195 880.564 613.269 901.699C897.766 940.979 745.475 985.865 879.52 1238.77C1013.57 1491.68 1155.5 1326.31 1184.89 1083.61Z" stroke="#3A506F"/>
<path d="M1169.98 1080.4C1195.18 896.561 1261.2 687.626 1059.04 610.589C611.896 440.194 485.525 876.944 630.425 899.283C899.73 940.799 754.586 981.102 877.97 1223.02C1001.35 1464.94 1138.47 1310.19 1169.98 1080.4Z" stroke="#3A506F"/>
<path d="M1155.87 1077.19C1182.45 903.684 1248.01 707.044 1057.94 631.163C637.517 463.325 511.474 874.546 648.203 897.836C902.319 941.122 764.427 977.078 877.531 1207.74C990.636 1438.41 1122.64 1294.08 1155.87 1077.19Z" stroke="#3A506F"/>
<path d="M1142.55 1074.01C1170.18 910.828 1234.92 726.415 1056.84 652.05C662.952 487.566 538.01 873.383 666.574 897.373C905.517 941.96 774.976 973.808 878.187 1192.96C981.398 1412.1 1108 1277.99 1142.55 1074.01Z" stroke="#3A506F"/>
<path d="M1130.02 1070.88C1158.4 918.004 1221.93 745.74 1055.75 673.249C688.181 512.911 565.107 873.467 685.521 897.906C909.316 943.326 786.218 971.309 879.929 1178.69C973.64 1386.07 1094.55 1261.97 1130.02 1070.88Z" stroke="#3A506F"/>
<path d="M1118.28 1067.8C1147.08 925.223 1209.06 765.021 1054.67 694.76C713.178 539.353 592.734 874.809 705.017 899.446C913.702 945.234 798.136 969.594 882.744 1164.96C967.352 1360.33 1082.29 1246.03 1118.28 1067.8Z" stroke="#3A506F"/>
<path d="M1107.33 1064.81C1136.24 932.496 1196.28 784.261 1053.57 716.583C737.915 566.888 620.86 877.421 725.038 902.006C918.659 947.699 810.706 968.68 886.615 1151.81C962.524 1334.93 1071.21 1230.21 1107.33 1064.81Z" stroke="#3A506F"/>
<path d="M1097.17 1061.92C1125.86 939.834 1183.62 803.463 1052.47 738.717C762.367 595.506 649.455 881.312 745.559 905.597C924.175 950.731 823.911 968.58 891.529 1139.24C959.147 1309.9 1061.31 1214.53 1097.17 1061.92Z" stroke="#3A506F"/>
<path d="M1087.79 1059.15C1115.95 947.247 1171.07 822.63 1051.34 761.161C786.508 625.2 678.486 886.492 766.555 910.229C930.234 954.345 837.729 969.309 897.469 1127.29C957.21 1285.28 1052.58 1199.02 1087.79 1059.15Z" stroke="#3A506F"/>
<path d="M1079.18 1056.51C1106.51 954.748 1158.62 841.764 1050.18 783.915C810.316 655.961 707.926 892.971 788.002 915.913C936.825 958.551 852.143 970.881 904.423 1115.99C956.703 1261.09 1045.03 1183.71 1079.18 1056.51Z" stroke="#3A506F"/>
<path d="M1071.35 1054.03C1097.52 962.347 1146.29 860.867 1048.99 806.978C833.763 687.782 737.742 900.757 809.873 922.658C943.931 963.363 867.13 973.308 912.372 1105.34C957.613 1237.37 1038.64 1168.63 1071.35 1054.03Z" stroke="#3A506F"/>
<path d="M1064.29 1051.72C1089 970.054 1134.07 879.943 1047.75 830.349C856.825 720.652 767.902 909.857 832.143 930.474C951.537 968.791 882.669 976.603 921.299 1095.38C959.928 1214.16 1033.4 1153.79 1064.29 1051.72Z" stroke="#3A506F"/>
<path d="M1057.99 1049.6C1080.93 977.881 1121.95 898.995 1046.46 854.026C879.476 754.562 798.375 920.279 854.786 939.369C959.628 974.847 898.739 980.78 931.187 1086.13C963.634 1191.49 1029.31 1139.24 1057.99 1049.6Z" stroke="#3A506F"/>
<path d="M1052.45 1047.69C1073.32 985.838 1109.96 918.023 1045.11 878.008C901.697 789.5 829.132 932.029 877.779 949.35C968.192 981.542 915.323 985.848 942.022 1077.61C968.721 1169.38 1026.37 1125 1052.45 1047.69Z" stroke="#3A506F"/>
<path d="M1047.67 1046C1066.15 993.935 1098.07 937.031 1043.7 902.293C923.459 825.456 860.139 945.112 901.094 960.425C977.211 988.887 932.395 991.821 953.783 1069.85C975.171 1147.87 1024.57 1111.08 1047.67 1046Z" stroke="#3A506F"/>
</svg>
