<svg width="48" height="48" viewBox="0 0 48 48" fill="none" xmlns="http://www.w3.org/2000/svg">
<g clip-path="url(#clip0_402_893)">
<path d="M10.86 43.647L0.4185 25.5615C-0.1395 24.5955 -0.1395 23.4045 0.4185 22.4385L10.86 4.35374C11.4172 3.38849 12.4462 2.79374 13.56 2.79224H34.4528C35.5628 2.79749 36.5865 3.39224 37.1415 4.35374L47.5815 22.4385C48.1395 23.4045 48.1395 24.5955 47.5815 25.5615L37.14 43.647C36.5828 44.6122 35.5537 45.207 34.44 45.2085H13.5525C12.4402 45.2047 11.415 44.61 10.8578 43.647H10.86Z" fill="#4386FA"/>
<path opacity="0.1" d="M30.5228 18.1763C30.5228 18.1763 33.4253 25.1385 29.4683 29.085C25.5113 33.0315 18.306 30.5055 18.306 30.5055L32.9625 45.2025H34.4505C35.565 45.201 36.594 44.6055 37.1505 43.641L44.0625 31.6725L30.5228 18.1763Z" fill="black"/>
<path d="M33.9502 32.4224L30.75 29.2147C30.7152 29.179 30.6752 29.1486 30.6315 29.1247C31.9927 27.3713 32.6343 25.1649 32.4254 22.9549C32.2165 20.745 31.1729 18.6978 29.5073 17.2305C27.8416 15.7633 25.6791 14.9862 23.4605 15.0578C21.2419 15.1293 19.134 16.044 17.5663 17.6156C15.9986 19.1871 15.0891 21.2973 15.023 23.5161C14.9569 25.7348 15.7392 27.8954 17.2106 29.5574C18.682 31.2195 20.7317 32.2581 22.9422 32.4615C25.1526 32.665 27.3574 32.018 29.1075 30.6524C29.1303 30.6937 29.1589 30.7316 29.1922 30.7649L32.4 33.9727C32.4942 34.0668 32.6219 34.1197 32.7551 34.1197C32.8883 34.1197 33.016 34.0668 33.1102 33.9727L33.9502 33.1327C34.0444 33.0385 34.0972 32.9107 34.0972 32.7776C34.0972 32.6444 34.0444 32.5167 33.9502 32.4224ZM23.73 30.3479C22.432 30.3481 21.1631 29.9633 20.0838 29.2423C19.0045 28.5212 18.1632 27.4963 17.6664 26.2972C17.1696 25.098 17.0396 23.7784 17.2928 22.5053C17.546 21.2323 18.171 20.0629 19.0889 19.1451C20.0067 18.2272 21.1761 17.6022 22.4491 17.349C23.7222 17.0958 25.0418 17.2258 26.241 17.7226C27.4401 18.2194 28.465 19.0607 29.1861 20.14C29.9071 21.2193 30.2919 22.4882 30.2917 23.7862C30.2915 25.5264 29.6002 27.1953 28.3696 28.4258C27.1391 29.6564 25.4702 30.3477 23.73 30.3479ZM19.5352 23.4359V26.1479C19.953 26.8852 20.5575 27.5002 21.2887 27.9292V23.4194L19.5352 23.4359ZM22.8165 21.1874V28.5164C23.3961 28.6233 23.9904 28.6233 24.57 28.5164V21.1874H22.8165ZM27.8895 26.1419V24.5354H26.1375V27.9104C26.8677 27.4826 27.4725 26.8701 27.891 26.1344L27.8895 26.1419Z" fill="white"/>
</g>
<defs>
<clipPath id="clip0_402_893">
<rect width="48" height="48" fill="white"/>
</clipPath>
</defs>
</svg>
