<svg width="48" height="48" viewBox="0 0 48 48" fill="none" xmlns="http://www.w3.org/2000/svg">
<path d="M10 12L13 37L4.98101 28.981C3.79201 27.792 3.47301 25.985 4.18501 24.461L10 12Z" fill="#1565C0"/>
<path d="M27.319 6.319C26.474 5.474 25.329 5 24.135 5C23.39 5 22.656 5.185 22 5.538L10 12V32.343C10 33.404 10.421 34.421 11.172 35.171L13 37H35V32L42 21L27.319 6.319Z" fill="#42A5F5"/>
<path d="M10 12H31.343C32.404 12 33.421 12.421 34.171 13.172L42 21V37H35L10 12Z" fill="#1565C0"/>
<path d="M35 37H13L19 43H35V37Z" fill="#85CBF8"/>
</svg>
