<svg width="47" height="48" viewBox="0 0 47 48" fill="none" xmlns="http://www.w3.org/2000/svg">
<g clip-path="url(#clip0_402_897)">
<path d="M34.8326 34.9428C35.1379 32.3992 35.0464 32.0262 36.9409 32.4383L37.4219 32.4805C38.8787 32.5468 40.7843 32.2462 41.9039 31.7261C44.3139 30.6079 45.7429 28.7408 43.3665 29.2314C37.9459 30.3496 37.5732 28.5142 37.5732 28.5142C43.2971 20.0214 45.6899 9.24057 43.6245 6.60165C37.9913 -0.59636 28.2402 2.80742 28.0771 2.89579L28.0251 2.90538C26.9541 2.68316 25.7554 2.55038 24.4089 2.52861C21.9559 2.4883 20.0946 3.17169 18.6827 4.24262C18.6827 4.24262 1.28734 -2.92403 2.0966 13.2554C2.26871 16.6972 7.0301 39.2992 12.7089 32.4723C14.7845 29.976 16.7904 27.8653 16.7904 27.8653C17.7864 28.527 18.9789 28.8645 20.2296 28.7433L20.3263 28.6608C20.296 28.9708 20.3094 29.274 20.365 29.6328C18.9023 31.2674 19.3321 31.5544 16.4073 32.1564C13.4482 32.7663 15.1866 33.8521 16.3214 34.1359C17.6974 34.48 20.8807 34.9675 23.0321 31.9563L22.9465 32.2999C23.5204 32.759 23.4816 35.5998 23.5629 37.6294C23.6444 39.6592 23.7803 41.5533 24.194 42.6701C24.6078 43.7866 25.096 46.663 28.9399 45.8392C32.1525 45.1508 34.6087 44.16 34.8326 34.9428Z" fill="black" stroke="black" stroke-width="4.03018"/>
<path d="M43.3671 29.2312C37.9459 30.3494 37.5732 28.514 37.5732 28.514C43.2971 20.0206 45.6899 9.23963 43.625 6.60104C37.9917 -0.596542 28.2402 2.80745 28.0775 2.89582L28.0251 2.9052C26.9541 2.68286 25.7554 2.55041 24.4083 2.52843C21.9553 2.48823 20.0946 3.1715 18.6826 4.24222C18.6826 4.24222 1.28699 -2.9241 2.09604 13.2552C2.26815 16.6973 7.02943 39.2992 12.7085 32.4723C14.7842 29.976 16.7897 27.8653 16.7897 27.8653C17.7859 28.527 18.9784 28.8646 20.2285 28.7433L20.3256 28.6609C20.2955 28.9708 20.3093 29.274 20.3645 29.6329C18.9015 31.2675 19.3314 31.5544 16.4068 32.1565C13.4475 32.7663 15.186 33.8522 16.321 34.1359C17.6971 34.48 20.8806 34.9675 23.0316 31.9563L22.9458 32.2999C23.519 32.759 23.9216 35.2864 23.8541 37.5774C23.7866 39.8686 23.7416 41.4415 24.1933 42.6701C24.6449 43.8987 25.0951 46.6631 28.9398 45.8393C32.1524 45.1508 33.8171 43.3667 34.0487 40.3908C34.2131 38.2751 34.585 38.5879 34.6085 36.6964L34.9068 35.8009C35.2508 32.933 34.9615 32.0077 36.9407 32.4381L37.4217 32.4803C38.8784 32.5466 40.785 32.246 41.904 31.7259C44.3136 30.6077 45.7427 28.7406 43.3668 29.2312H43.3671Z" fill="#336791"/>
<path d="M23.2644 30.8751C23.1151 36.2116 23.3019 41.5852 23.8241 42.8912C24.3465 44.1972 25.4647 46.7374 29.3097 45.9137C32.5219 45.225 33.6907 43.8923 34.1979 40.9507C34.5714 38.7864 35.2916 32.7757 35.3839 31.5442" stroke="white" stroke-width="1.34339" stroke-linecap="round" stroke-linejoin="round"/>
<path d="M18.6558 4.12294C18.6558 4.12294 1.24832 -2.99176 2.05758 13.1876C2.22969 16.6296 6.99129 39.2323 12.6703 32.4051C14.7455 29.9085 16.6224 27.9503 16.6224 27.9503" stroke="white" stroke-width="1.34339" stroke-linecap="round" stroke-linejoin="round"/>
<path d="M28.0584 2.82438C27.4559 3.01331 37.7416 -0.93569 43.587 6.53359C45.6518 9.17228 43.2591 19.9533 37.5353 28.4468" stroke="white" stroke-width="1.34339" stroke-linecap="round" stroke-linejoin="round"/>
<path d="M37.5352 28.4469C37.5352 28.4469 37.9082 30.2829 43.3295 29.1639C45.7048 28.6733 44.2753 30.5406 41.8663 31.6594C39.8892 32.5769 35.4566 32.8121 35.3842 31.5441C35.1979 28.2727 37.717 29.2666 37.5352 28.4469ZM37.5352 28.4469C37.3709 27.7086 36.2443 26.9841 35.4991 25.1773C34.8485 23.6002 26.576 11.5065 37.7932 13.3026C38.2042 13.2176 34.8676 2.6329 24.3699 2.46079C13.8744 2.28868 14.2188 15.3678 14.2188 15.3678" stroke="white" stroke-width="1.34339" stroke-linecap="round" stroke-linejoin="bevel"/>
<path d="M20.3263 29.5656C18.8631 31.2 19.2934 31.487 16.3686 32.0893C13.4093 32.6993 15.148 33.7849 16.2827 34.0685C17.6587 34.4128 20.8422 34.9003 22.9933 31.8884C23.6483 30.9713 22.9894 29.5081 22.0896 29.1351C21.6548 28.955 21.0735 28.7294 20.3263 29.5656Z" stroke="white" stroke-width="1.34339" stroke-linecap="round" stroke-linejoin="round"/>
<path d="M20.2305 29.5371C20.0831 28.5761 20.5463 27.4325 21.0427 26.0946C21.7887 24.0872 23.5099 22.0796 22.133 15.7119C21.1067 10.9668 14.2229 14.7244 14.2186 15.3678C14.2144 16.011 14.53 18.629 14.1036 21.6777C13.5473 25.6559 16.635 29.0204 20.1905 28.6762" stroke="white" stroke-width="1.34339" stroke-linecap="round" stroke-linejoin="round"/>
<path d="M18.5926 15.2714C18.5615 15.4912 18.9949 16.0776 19.5599 16.1559C20.124 16.2346 20.6068 15.7763 20.6374 15.5568C20.6681 15.3371 20.2352 15.095 19.67 15.0163C19.1056 14.9375 18.6225 15.0522 18.5927 15.2714H18.5926Z" fill="white" stroke="white" stroke-width="0.447794"/>
<path d="M35.7741 14.8233C35.8047 15.043 35.3719 15.6294 34.8067 15.7077C34.2422 15.7864 33.7594 15.3282 33.7284 15.1086C33.6986 14.8889 34.1315 14.6468 34.6961 14.5682C35.2608 14.4895 35.7435 14.6041 35.7741 14.8234V14.8233Z" fill="white" stroke="white" stroke-width="0.223897"/>
<path d="M37.7932 13.3026C37.8862 15.0263 37.4219 16.2004 37.3634 18.0353C37.2768 20.7025 38.635 23.7552 36.5884 26.8118" stroke="white" stroke-width="1.34339" stroke-linecap="round" stroke-linejoin="round"/>
</g>
<defs>
<clipPath id="clip0_402_897">
<rect width="46.5653" height="48" fill="white"/>
</clipPath>
</defs>
</svg>
