<svg width="48" height="48" viewBox="0 0 48 48" fill="none" xmlns="http://www.w3.org/2000/svg">
<g clip-path="url(#clip0_304_1175)">
<path d="M36.8173 33.9971C42.6795 28.1352 43.6538 19.6057 38.9933 14.9455C34.3335 10.2859 25.8044 11.26 19.9425 17.1216C14.0806 22.9833 15.7763 34.1823 17.7668 36.1731C19.3753 37.7816 30.9558 39.8586 36.8173 33.9971Z" fill="#F89939"/>
<path d="M12.7636 25.5267C9.36279 22.1259 4.41358 21.5598 1.70911 24.2641C-0.994656 26.968 -0.429359 31.9179 2.97212 35.3182C6.3736 38.72 12.8718 37.736 14.0259 36.5808C14.9599 35.6484 16.1654 28.9279 12.7636 25.5267Z" fill="#3499CD"/>
<path d="M24.4976 32.5604C23.8968 33.1134 23.3697 33.5215 22.9168 33.7837C22.4638 34.0468 22.0318 34.1782 21.6207 34.1782C21.1478 34.1782 20.7664 33.9949 20.4771 33.6281C20.1874 33.261 20.043 32.7688 20.043 32.1495C20.043 31.2215 20.2442 30.1076 20.6464 28.8087C21.048 27.5089 21.5369 26.3111 22.1112 25.2153L23.7952 24.5918C23.848 24.5742 23.8881 24.5652 23.9148 24.5652C24.0425 24.5652 24.1481 24.6593 24.2291 24.8468C24.311 25.0351 24.3522 25.2882 24.3522 25.6063C24.3522 26.5079 24.1446 27.3808 23.7287 28.2249C23.313 29.0694 22.6635 29.9706 21.7798 30.9297C21.7443 31.3894 21.7266 31.7051 21.7266 31.8777C21.7266 32.2625 21.7973 32.5669 21.9387 32.7925C22.0802 33.0183 22.2679 33.1305 22.5022 33.1305C22.7413 33.1305 22.9952 33.045 23.2648 32.8726C23.534 32.6999 23.9451 32.3423 24.4974 31.7983V32.5604H24.4976ZM21.9587 29.9687C22.5199 29.3448 22.9756 28.645 23.3246 27.8708C23.6735 27.0962 23.8478 26.43 23.8478 25.8718C23.8478 25.7091 23.8237 25.5769 23.7755 25.4775C23.7268 25.378 23.6645 25.328 23.5896 25.328C23.4267 25.328 23.1887 25.7351 22.877 26.5494C22.5652 27.3636 22.2592 28.5036 21.9587 29.9687Z" fill="#010101"/>
<path d="M29.4568 32.5603C28.8957 33.1133 28.392 33.5214 27.9454 33.7837C27.4989 34.0467 27.0066 34.1781 26.4671 34.1781C25.866 34.1781 25.381 33.9858 25.0115 33.6017C24.6426 33.2166 24.4585 32.711 24.4585 32.0833C24.4585 31.1465 24.783 30.2989 25.4334 29.541C26.0825 28.7827 26.8032 28.4038 27.5942 28.4038C28.0053 28.4038 28.3342 28.5103 28.582 28.7223C28.8296 28.9347 28.9533 29.2128 28.9533 29.5576C28.9533 30.4727 27.9811 31.2147 26.0365 31.785C26.213 32.6465 26.6748 33.0778 27.4219 33.0778C27.7137 33.0778 27.9918 32.9994 28.2568 32.8429C28.5225 32.6858 28.9222 32.3372 29.457 31.7984L29.4568 32.5603ZM25.983 31.3342C27.1141 31.0157 27.6801 30.4282 27.6801 29.5708C27.6801 29.1465 27.5252 28.9345 27.2162 28.9345C26.9244 28.9345 26.6463 29.1562 26.3813 29.6009C26.1154 30.0448 25.983 30.6223 25.983 31.3342Z" fill="#010101"/>
<path d="M36.5371 32.5603C35.8298 33.2321 35.3237 33.6702 35.0191 33.8737C34.7141 34.0769 34.4225 34.1784 34.1438 34.1784C33.4454 34.1784 33.1164 33.562 33.156 32.3288C32.7141 32.9605 32.3062 33.4268 31.9326 33.728C31.5595 34.0285 31.174 34.1784 30.7757 34.1784C30.3873 34.1784 30.0571 33.9964 29.7848 33.6317C29.5126 33.2671 29.3774 32.8198 29.3774 32.289C29.3774 31.6264 29.5593 30.9943 29.9236 30.3928C30.2887 29.7917 30.756 29.306 31.326 28.9347C31.8959 28.5635 32.4003 28.3776 32.8374 28.3776C33.39 28.3776 33.7769 28.6318 33.9979 29.1398L35.3528 28.3911H35.7246L35.1394 30.3333C34.8389 31.3103 34.6882 31.98 34.6882 32.3423C34.6882 32.7222 34.8227 32.9122 35.0925 32.9122C35.2642 32.9122 35.4542 32.8207 35.6621 32.637C35.87 32.4534 36.1611 32.1739 36.5367 31.7983V32.5603H36.5371ZM31.6843 32.9254C32.1262 32.9254 32.5426 32.5488 32.9345 31.7953C33.3256 31.0415 33.5211 30.3461 33.5211 29.7098C33.5211 29.4626 33.4653 29.269 33.3554 29.13C33.2445 28.9903 33.0965 28.921 32.9113 28.921C32.469 28.921 32.0498 29.2966 31.655 30.0482C31.2595 30.7997 31.0613 31.4914 31.0613 32.1228C31.0613 32.3618 31.1202 32.5552 31.2372 32.7033C31.3542 32.8515 31.5027 32.9254 31.6843 32.9254Z" fill="#010101"/>
<path d="M41.4896 32.5603C40.3801 33.6475 39.5247 34.1915 38.9237 34.1915C38.6539 34.1915 38.4261 34.0776 38.2409 33.8507C38.0557 33.6229 37.9624 33.3409 37.9624 33.0048C37.9624 32.3817 38.2965 31.5467 38.9637 30.4991C38.6364 30.6671 38.2788 30.7838 37.8897 30.8502C37.6024 31.3806 37.1514 31.9509 36.5372 32.5602H36.3851V31.9642C36.7295 31.6063 37.0413 31.2215 37.3198 30.8104C36.9391 30.6424 36.7494 30.3926 36.7494 30.0617C36.7494 29.7209 36.8651 29.3576 37.0977 28.9704C37.3296 28.584 37.6488 28.3909 38.0557 28.3909C38.4005 28.3909 38.5726 28.5671 38.5726 28.9209C38.5726 29.1993 38.4732 29.5969 38.274 30.1143C39.0075 30.0345 39.6485 29.4737 40.1968 28.4303L40.7998 28.4037L40.1833 30.1008C39.9271 30.8168 39.7613 31.3046 39.6864 31.5628C39.6114 31.8211 39.5735 32.0502 39.5735 32.2488C39.5735 32.4347 39.6168 32.5832 39.7026 32.6929C39.7888 32.8042 39.9051 32.8589 40.0509 32.8589C40.2098 32.8589 40.3626 32.8046 40.5083 32.6969C40.6541 32.5877 40.9812 32.2886 41.4897 31.7981V32.5603H41.4896Z" fill="#010101"/>
<path d="M48 32.5603C46.9791 33.6393 46.1035 34.1783 45.3746 34.1783C45.0785 34.1783 44.8398 34.0745 44.6586 33.8666C44.477 33.659 44.3865 33.3807 44.3865 33.0316C44.3865 32.5587 44.5812 31.8359 44.9703 30.8641C45.1778 30.3424 45.282 30.0104 45.282 29.8695C45.282 29.7279 45.2263 29.6571 45.1164 29.6571C45.0546 29.6571 44.9724 29.6883 44.871 29.7497C44.7777 29.8115 44.6695 29.8984 44.5457 30.0087C44.4355 30.1101 44.3114 30.2339 44.1745 30.3793C44.0549 30.504 43.9266 30.6453 43.7904 30.8038L43.4186 31.2352C43.2554 31.4339 43.1536 31.6435 43.114 31.8647C43.0473 32.2403 43.0034 32.5854 42.981 32.8995C42.9675 33.1332 42.9611 33.4489 42.9611 33.8475L41.496 34.1916C41.4477 33.595 41.4229 33.1507 41.4229 32.8594C41.4229 32.1478 41.5058 31.4737 41.6718 30.8374C41.8375 30.2005 42.1035 29.4849 42.4706 28.6891L44.0879 28.3777C43.7478 29.2928 43.5247 30.0128 43.4186 30.5385C44.1435 29.7298 44.7181 29.1701 45.1441 28.858C45.5694 28.5463 45.9481 28.3912 46.279 28.3912C46.5038 28.3912 46.6918 28.476 46.8415 28.6458C46.9919 28.8158 47.0667 29.0292 47.0667 29.2843C47.0667 29.7082 46.8767 30.4066 46.4971 31.3793C46.2361 32.0464 46.1056 32.4793 46.1056 32.6792C46.1056 32.9452 46.2141 33.0782 46.4312 33.0782C46.7543 33.0782 47.2777 32.6515 48 31.7986V32.5603Z" fill="#010101"/>
<path d="M27.0059 25.5336C27.0163 25.6506 27.0455 25.7403 27.0937 25.8028C27.1821 25.9159 27.3355 25.9725 27.554 25.9725C27.684 25.9725 27.7985 25.9445 27.8973 25.8886C27.9961 25.8314 28.0455 25.7436 28.0455 25.6253C28.0455 25.5355 28.0059 25.4673 27.9265 25.4204C27.8758 25.3918 27.7757 25.3587 27.6262 25.321L27.3472 25.2507C27.1691 25.2065 27.0377 25.1571 26.9532 25.1025C26.8024 25.0076 26.727 24.8762 26.727 24.7085C26.727 24.5108 26.7978 24.3509 26.9396 24.2287C27.0826 24.1064 27.2744 24.0453 27.515 24.0453C27.8297 24.0453 28.0566 24.1376 28.1957 24.3223C28.2828 24.4393 28.3251 24.5655 28.3225 24.7007H27.9909C27.9844 24.6214 27.9565 24.5492 27.907 24.4842C27.8264 24.3919 27.6866 24.3457 27.4877 24.3457C27.355 24.3457 27.2543 24.3711 27.1853 24.4218C27.1177 24.4725 27.0839 24.5394 27.0839 24.6227C27.0839 24.7137 27.1288 24.7865 27.2185 24.8411C27.2705 24.8736 27.3472 24.9023 27.4487 24.927L27.6808 24.9835C27.933 25.0446 28.1021 25.1038 28.1879 25.161C28.3245 25.2507 28.3927 25.3918 28.3927 25.5843C28.3927 25.7702 28.3219 25.9308 28.1801 26.0661C28.0397 26.2013 27.8251 26.2689 27.5364 26.2689C27.2256 26.2689 27.0052 26.1987 26.8752 26.0583C26.7465 25.9165 26.6775 25.7416 26.6684 25.5336H27.0059ZM29.6001 24.0395C29.8355 24.0395 30.0266 24.0967 30.1736 24.2111C30.3218 24.3255 30.4109 24.5225 30.4408 24.8021H30.0995C30.0787 24.6734 30.0312 24.5668 29.9571 24.4822C29.8829 24.3964 29.764 24.3535 29.6001 24.3535C29.3765 24.3535 29.2165 24.4627 29.1203 24.6812C29.0579 24.8229 29.0267 24.9978 29.0267 25.2059C29.0267 25.4152 29.0709 25.5914 29.1593 25.7345C29.2477 25.8775 29.3869 25.949 29.5767 25.949C29.7224 25.949 29.8374 25.9048 29.922 25.8164C30.0078 25.7267 30.067 25.6044 30.0995 25.4497H30.4408C30.4018 25.7267 30.3043 25.9295 30.1482 26.0583C29.9922 26.1857 29.7926 26.2494 29.5494 26.2494C29.2763 26.2494 29.0585 26.15 28.896 25.951C28.7334 25.7507 28.6522 25.5011 28.6522 25.202C28.6522 24.8353 28.7412 24.5499 28.9194 24.3457C29.0975 24.1415 29.3244 24.0395 29.6001 24.0395ZM30.7919 24.1097H31.1489V26.189H30.7919V24.1097ZM30.7919 23.3236H31.1489V23.7215H30.7919V23.3236ZM31.6736 23.3236H32.011V24.9874L32.9122 24.0999H33.3608L32.5611 24.8821L33.4056 26.189H32.957L32.3055 25.1357L32.011 25.4048V26.189H31.6736V23.3236ZM33.6787 24.1097H34.0357V26.189H33.6787V24.1097ZM33.6787 23.3236H34.0357V23.7215H33.6787V23.3236ZM34.6384 23.5167H34.9934V24.0999H35.3269V24.3867H34.9934V25.7501C34.9934 25.8229 35.0181 25.8717 35.0675 25.8964C35.0948 25.9107 35.1403 25.9178 35.2041 25.9178C35.221 25.9178 35.2392 25.9178 35.2587 25.9178C35.2782 25.9165 35.3009 25.9146 35.3269 25.912V26.189C35.2866 26.2007 35.2444 26.2091 35.2002 26.2143C35.1572 26.2195 35.1104 26.2221 35.0597 26.2221C34.8959 26.2221 34.7847 26.1805 34.7262 26.0973C34.6677 26.0128 34.6384 25.9035 34.6384 25.7696V24.3867H34.3556V24.0999H34.6384V23.5167Z" fill="white"/>
</g>
<defs>
<clipPath id="clip0_304_1175">
<rect width="48" height="25.8865" fill="white" transform="translate(0 12)"/>
</clipPath>
</defs>
</svg>
