<svg width="46" height="48" viewBox="0 0 46 48" fill="none" xmlns="http://www.w3.org/2000/svg">
<g clip-path="url(#clip0_402_911)">
<path d="M26.8078 46.8463C25.6046 48.376 23.1649 47.5379 23.1359 45.5847L22.7119 17.0178H41.7401C45.1867 17.0178 47.1089 21.0363 44.9657 23.7611L26.8078 46.8463Z" fill="url(#paint0_linear_402_911)"/>
<path d="M26.8078 46.8463C25.6046 48.376 23.1649 47.5379 23.1359 45.5847L22.7119 17.0178H41.7401C45.1867 17.0178 47.1089 21.0363 44.9657 23.7611L26.8078 46.8463Z" fill="url(#paint1_linear_402_911)" fill-opacity="0.2"/>
<path d="M19.0692 0.879746C20.2724 -0.650052 22.7122 0.188167 22.7412 2.14133L22.927 30.7082H4.13689C0.690263 30.7082 -1.23198 26.6898 0.911231 23.965L19.0692 0.879746Z" fill="#3ECF8E"/>
</g>
<defs>
<linearGradient id="paint0_linear_402_911" x1="22.7119" y1="23.3518" x2="39.6709" y2="30.3977" gradientUnits="userSpaceOnUse">
<stop stop-color="#249361"/>
<stop offset="1" stop-color="#3ECF8E"/>
</linearGradient>
<linearGradient id="paint1_linear_402_911" x1="15.2142" y1="12.9889" x2="23.0407" y2="27.5838" gradientUnits="userSpaceOnUse">
<stop/>
<stop offset="1" stop-opacity="0"/>
</linearGradient>
<clipPath id="clip0_402_911">
<rect width="45.8667" height="48" fill="white"/>
</clipPath>
</defs>
</svg>
