<svg width="705" height="1422" viewBox="0 0 705 1422" fill="none" xmlns="http://www.w3.org/2000/svg">
<path d="M-497.682 260.748C-348.409 519.775 54.765 923.75 473.272 467.438" stroke="#3A506F"/>
<path d="M-490.384 285.325C-331.179 538.369 87.3561 926.408 487.855 454.211" stroke="#3A506F"/>
<path d="M-483.085 309.903C-314.188 556.583 119.078 928.101 500.966 440.73" stroke="#3A506F"/>
<path d="M-475.787 334.48C-297.452 574.426 149.895 928.865 512.597 427.052" stroke="#3A506F"/>
<path d="M-468.488 359.058C-280.983 591.909 179.77 928.735 522.742 413.235" stroke="#3A506F"/>
<path d="M-461.19 383.636C-264.797 609.041 208.67 927.747 531.396 399.337" stroke="#3A506F"/>
<path d="M-453.892 408.213C-248.907 625.833 236.563 925.942 538.556 385.415" stroke="#3A506F"/>
<path d="M-446.594 432.791C-233.324 642.299 263.417 923.357 544.224 371.527" stroke="#3A506F"/>
<path d="M-439.295 457.369C-218.062 658.449 289.203 920.035 548.402 357.731" stroke="#3A506F"/>
<path d="M-431.997 481.946C-203.133 674.297 313.894 916.017 551.094 344.085" stroke="#3A506F"/>
<path d="M-424.698 506.524C-188.548 689.856 337.463 911.346 552.308 330.647" stroke="#3A506F"/>
<path d="M-417.4 531.102C-174.319 705.139 359.885 906.066 552.052 317.473" stroke="#3A506F"/>
<path d="M-410.102 555.679C-160.455 720.16 381.138 900.222 550.337 304.621" stroke="#3A506F"/>
<path d="M-402.803 580.257C-146.966 734.934 401.201 893.86 547.179 292.146" stroke="#3A506F"/>
<path d="M-395.504 604.834C-133.862 749.475 420.056 887.026 542.591 280.104" stroke="#3A506F"/>
<path d="M-388.207 629.412C-121.153 763.799 437.682 879.768 536.592 268.551" stroke="#3A506F"/>
<path d="M-380.908 653.99C-108.844 777.92 454.067 872.133 529.202 257.541" stroke="#3A506F"/>
<path d="M-373.609 678.567C-96.9447 791.855 469.197 864.171 520.444 247.126" stroke="#3A506F"/>
<path d="M-366.312 703.145C-85.4621 805.62 483.057 855.928 510.341 237.361" stroke="#3A506F"/>
<path d="M-359.013 727.723C-74.401 819.231 495.642 847.457 498.919 228.297" stroke="#3A506F"/>
<path d="M-351.714 752.3C-63.7684 832.703 506.94 838.805 486.207 219.983" stroke="#3A506F"/>
<path d="M-344.417 776.877C-53.5695 846.055 516.946 830.022 472.234 212.47" stroke="#3A506F"/>
<path d="M-337.118 801.456C-43.807 859.303 525.658 821.161 457.033 205.807" stroke="#3A506F"/>
<path d="M-329.819 826.033C-34.4862 872.464 533.072 812.268 440.638 200.038" stroke="#3A506F"/>
<path d="M-322.521 850.61C-25.61 885.555 539.187 803.398 423.083 195.212" stroke="#3A506F"/>
<path d="M-315.223 875.188C-17.1795 898.593 544.007 794.598 404.408 191.371" stroke="#3A506F"/>
<path d="M-307.924 899.766C-9.19776 911.597 547.534 785.919 384.65 188.559" stroke="#3A506F"/>
<path d="M-300.626 924.343C-1.66533 924.582 549.775 777.411 363.85 186.817" stroke="#3A506F"/>
<path d="M-293.328 948.921C5.41745 937.567 550.736 769.125 342.051 186.184" stroke="#3A506F"/>
<path d="M-286.029 973.499C12.0509 950.57 550.428 761.109 319.296 186.698" stroke="#3A506F"/>
<path d="M-278.73 998.076C18.2365 963.606 548.862 753.412 295.631 188.396" stroke="#3A506F"/>
<path d="M-271.433 1022.65C23.9744 976.695 546.051 746.084 271.101 191.311" stroke="#3A506F"/>
<path d="M-264.134 1047.23C29.269 989.852 542.011 739.171 245.757 195.477" stroke="#3A506F"/>
<path d="M-256.836 1071.81C34.1213 1003.1 536.757 732.722 219.644 200.924" stroke="#3A506F"/>
<path d="M-249.538 1096.39C38.5365 1016.44 530.311 726.783 192.815 207.681" stroke="#3A506F"/>
<path d="M-242.239 1120.96C42.5183 1029.91 522.691 721.399 165.321 215.775" stroke="#3A506F"/>
<path d="M-234.941 1145.54C46.0719 1043.52 513.921 716.617 137.214 225.23" stroke="#3A506F"/>
<path d="M-227.642 1170.12C49.2033 1057.27 504.025 712.48 108.547 236.069" stroke="#3A506F"/>
<path d="M-220.344 1194.7C51.9173 1071.2 493.027 709.031 79.3739 248.313" stroke="#3A506F"/>
<path d="M-213.046 1219.27C54.2223 1085.32 480.957 706.313 49.7505 261.981" stroke="#3A506F"/>
<path d="M-205.747 1243.85C56.1258 1099.63 467.844 704.366 19.7322 277.089" stroke="#3A506F"/>
<path d="M-198.449 1268.43C57.6344 1114.16 453.716 703.23 -10.6261 293.65" stroke="#3A506F"/>
<path d="M-191.15 1293.01C58.7589 1128.93 438.609 702.945 -41.266 311.678" stroke="#3A506F"/>
<path d="M-183.852 1317.59C59.5069 1143.94 422.554 703.547 -72.1318 331.182" stroke="#3A506F"/>
<path d="M-176.554 1342.16C59.8885 1159.21 405.586 705.073 -103.166 352.169" stroke="#3A506F"/>
<path d="M-169.255 1366.74C59.9153 1174.76 387.743 707.557 -134.31 374.645" stroke="#3A506F"/>
<path d="M-161.957 1391.32C59.597 1190.59 369.063 711.032 -165.507 398.614" stroke="#3A506F"/>
<path d="M-154.659 1415.9C58.9455 1206.73 349.583 715.532 -196.698 424.076" stroke="#3A506F"/>
<path d="M-147.36 1440.47C57.9727 1223.18 329.346 721.084 -227.826 451.03" stroke="#3A506F"/>
<path d="M-140.062 1465.05C56.691 1239.96 308.391 727.718 -258.834 479.472" stroke="#3A506F"/>
<path d="M-132.764 1489.63C55.1134 1257.08 286.762 735.461 -289.662 509.396" stroke="#3A506F"/>
<path d="M-125.465 1514.21C53.2532 1274.55 264.501 744.338 -320.255 540.794" stroke="#3A506F"/>
<path d="M-118.167 1538.78C51.1247 1292.37 241.655 754.374 -350.554 573.657" stroke="#3A506F"/>
<path d="M-110.868 1563.36C48.7411 1310.57 218.267 765.589 -380.504 607.971" stroke="#3A506F"/>
<path d="M-103.57 1587.94C46.1169 1329.15 194.383 778.004 -410.049 643.723" stroke="#3A506F"/>
<path d="M-96.2715 1612.52C43.2686 1348.12 170.053 791.638 -439.132 680.894" stroke="#3A506F"/>
<path d="M-88.9731 1637.09C40.2098 1367.48 145.321 806.506 -467.7 719.467" stroke="#3A506F"/>
<path d="M-81.6748 1661.67C36.9568 1387.26 120.237 822.623 -495.698 759.42" stroke="#3A506F"/>
<path d="M-74.3765 1686.25C33.5254 1407.44 94.8486 840.003 -523.073 800.73" stroke="#3A506F"/>
<path d="M-67.0786 1710.83C29.9311 1428.04 69.2057 858.655 -549.774 843.372" stroke="#3A506F"/>
<path d="M-59.7798 1735.4C26.192 1449.07 43.3587 878.589 -575.748 887.319" stroke="#3A506F"/>
<path d="M-52.4819 1759.98C22.3225 1470.53 17.3557 899.812 -600.947 932.541" stroke="#3A506F"/>
<path d="M-45.1836 1784.56C18.341 1492.43 -8.75196 922.329 -625.321 979.008" stroke="#3A506F"/>
<path d="M-37.8848 1809.14C14.2645 1514.76 -34.9139 946.142 -648.821 1026.69" stroke="#3A506F"/>
<path d="M-30.5869 1833.72C10.1085 1537.54 -61.0812 971.253 -671.404 1075.54" stroke="#3A506F"/>
<path d="M-23.2881 1858.29C5.89232 1560.76 -87.2018 997.662 -693.022 1125.54" stroke="#3A506F"/>
<path d="M-15.9897 1882.87C1.63179 1584.43 -113.227 1025.37 -713.632 1176.64" stroke="#3A506F"/>
<path d="M-8.69141 1907.45C-2.65531 1608.55 -139.105 1054.36 -733.194 1228.8" stroke="#3A506F"/>
<path d="M-1.39307 1932.03C-6.95145 1633.12 -164.788 1084.63 -751.666 1281.98" stroke="#3A506F"/>
<path d="M5.90576 1956.6C-11.2388 1658.13 -190.224 1116.18 -769.009 1336.13" stroke="#3A506F"/>
<path d="M13.2041 1981.18C-15.5008 1683.6 -215.366 1149 -785.186 1391.23" stroke="#3A506F"/>
<path d="M20.5024 2005.76C-19.7196 1709.52 -240.164 1183.07 -800.163 1447.21" stroke="#3A506F"/>
<path d="M27.8008 2030.34C-23.8779 1735.88 -264.569 1218.37 -813.906 1504.03" stroke="#3A506F"/>
<path d="M35.0991 2054.91C-27.9585 1762.68 -288.536 1254.89 -826.382 1561.64" stroke="#3A506F"/>
<path d="M42.3975 2079.49C-31.9443 1789.92 -312.015 1292.62 -837.563 1619.99" stroke="#3A506F"/>
<path d="M49.6958 2104.07C-35.8182 1817.6 -334.961 1331.53 -847.42 1679.03" stroke="#3A506F"/>
</svg>
