<svg width="2500" height="867" viewBox="0 0 2500 867" fill="none" xmlns="http://www.w3.org/2000/svg">
<path d="M1239.64 195.809H1085.26V613.612H1047.35V195.809H893.363V163.76H1239.64V195.809ZM1382.3 620.256C1353.77 620.256 1327.97 613.221 1305.3 599.151C1282.63 585.081 1264.27 565.539 1251.76 540.526C1238.86 515.512 1232.61 487.372 1232.61 456.496V443.208C1232.61 411.159 1238.86 382.237 1251.37 356.442C1263.87 330.647 1281.07 310.323 1303.35 295.863C1325.63 281.402 1349.86 273.585 1375.65 273.585C1416.3 273.585 1448.35 287.264 1472.19 315.014C1496.03 342.763 1507.76 380.674 1507.76 428.747V449.461H1268.96V456.496C1268.96 494.407 1279.9 526.065 1301.39 551.078C1323.28 576.483 1350.64 588.989 1383.47 588.989C1403.4 588.989 1420.6 585.472 1435.84 578.046C1451.08 571.011 1464.76 559.286 1477.27 543.261L1500.33 560.849C1473.75 600.323 1434.28 620.256 1382.3 620.256V620.256ZM1375.65 304.852C1347.9 304.852 1324.45 315.014 1305.3 335.337C1286.15 355.66 1274.82 383.019 1270.52 417.412H1471.02V413.504C1469.85 381.456 1460.86 355.27 1443.66 334.946C1426.46 314.623 1403.79 304.852 1375.65 304.852V304.852ZM1617.19 582.736H1834.49V614.003H1571.46V586.644L1774.31 311.496H1577.72V279.447H1820.82V307.197L1617.19 582.736ZM1887.65 441.644C1887.65 409.596 1893.9 380.674 1906.41 354.879C1918.92 329.084 1936.5 309.151 1959.17 294.69C1981.84 280.229 2007.63 273.194 2036.56 273.194C2081.11 273.194 2117.07 288.828 2144.82 320.094C2172.57 351.361 2186.25 392.79 2186.25 444.38V452.197C2186.25 484.636 2179.99 513.558 2167.49 539.353C2154.98 565.148 2137.39 585.081 2114.72 599.151C2092.06 613.221 2066.26 620.256 2037.34 620.256C1993.17 620.256 1956.83 604.623 1929.08 573.356C1901.33 542.089 1887.65 500.66 1887.65 449.07V441.644ZM1924.78 451.806C1924.78 491.671 1935.33 524.501 1955.65 550.297C1976.37 576.092 2003.34 588.598 2036.95 588.598C2070.17 588.598 2097.53 575.701 2118.24 550.297C2138.96 524.501 2149.12 490.89 2149.12 448.679V441.644C2149.12 416.24 2144.43 392.79 2135.05 371.294C2125.67 350.189 2112.38 333.774 2095.18 322.049C2077.99 310.323 2058.44 304.461 2036.56 304.461C2003.73 304.461 1976.76 317.359 1955.65 343.154C1934.94 368.949 1924.39 402.952 1924.39 444.771L1924.78 451.806ZM2462.96 528.801C2462.96 510.431 2455.53 495.58 2440.68 484.636C2425.83 473.693 2403.94 464.704 2373.85 458.45C2343.75 452.197 2321.08 444.771 2304.67 436.954C2288.25 428.747 2276.14 418.976 2268.32 407.251C2260.51 395.526 2256.21 381.456 2256.21 364.65C2256.21 338.073 2267.15 316.577 2289.43 299.38C2311.31 282.183 2339.85 273.585 2374.24 273.585C2411.37 273.585 2441.46 282.965 2464.13 301.334C2486.8 319.704 2498.13 343.935 2498.13 373.639H2461C2461 354.097 2452.8 337.682 2436.38 324.784C2419.97 311.887 2399.25 305.243 2374.24 305.243C2350.01 305.243 2330.46 310.714 2315.61 321.267C2300.76 332.21 2293.34 346.28 2293.34 363.477C2293.34 380.283 2299.59 393.181 2311.7 402.17C2323.82 411.159 2346.49 419.757 2378.93 427.574C2411.37 435.391 2435.6 443.208 2452.01 451.806C2468.04 460.404 2480.16 470.957 2487.97 483.073C2495.79 495.189 2499.7 510.04 2499.7 527.237C2499.7 555.377 2488.36 578.046 2465.69 594.852C2443.03 611.658 2413.32 620.256 2376.58 620.256C2337.5 620.256 2305.84 610.876 2282 592.116C2257.77 573.356 2245.65 549.515 2245.65 520.593H2282.78C2284.35 542.089 2293.34 558.895 2310.14 571.011C2326.95 583.127 2349.23 588.989 2376.97 588.989C2402.77 588.989 2423.48 583.127 2439.51 572.183C2455.14 560.458 2462.96 545.997 2462.96 528.801V528.801ZM620.169 639.016C611.179 479.946 411.071 407.642 391.921 400.216C391.139 399.825 391.139 399.043 391.53 398.261L597.891 191.119V168.841C597.891 165.323 594.764 162.197 591.247 162.197H210.964V0L70.6537 29.3127V50.4178H78.4704C78.4704 50.4178 112.864 50.4178 112.864 84.8113V161.806H4.21164C2.25746 161.806 0.303284 163.76 0.303284 165.714V214.569H113.255V479.946C113.255 563.194 166.799 621.038 260.6 613.221C280.532 611.658 298.902 603.841 314.535 593.679C321.57 588.989 325.869 581.563 325.869 572.965V546.779C295.384 567.102 269.589 565.93 269.589 565.93C210.182 565.93 211.354 490.499 211.354 490.499V214.569H484.939L287.958 413.113C287.567 439.299 287.177 459.623 287.177 460.014C287.177 460.795 287.567 461.186 288.349 461.186C468.915 491.671 517.77 608.531 517.77 642.534C517.77 642.534 537.311 807.857 371.988 819.191C371.988 819.191 263.726 823.881 244.576 780.499C243.794 778.935 244.576 777.372 246.139 776.59C264.117 768.383 276.233 752.359 276.233 730.863C276.233 698.814 256.691 672.628 215.654 672.628C182.433 672.628 155.074 698.814 155.074 730.863C155.074 730.863 139.441 870 371.597 866.092C636.584 861.402 620.169 639.016 620.169 639.016V639.016Z" fill="#9F9FBE"/>
</svg>
