<svg width="307" height="307" viewBox="0 0 307 307" fill="none" xmlns="http://www.w3.org/2000/svg">
<g clip-path="url(#clip0_506_455)">
<path d="M307 0H0V307H307V0Z" fill="white"/>
<path d="M196.343 67.9674C191.619 64.8966 187.736 60.6953 185.045 55.7444C182.355 50.7935 180.943 45.2494 180.937 39.6147H156.613L156.57 137.066C156.417 141.07 155.089 144.941 152.752 148.197C150.415 151.452 147.172 153.948 143.427 155.374C139.682 156.801 135.6 157.094 131.69 156.217C127.779 155.34 124.213 153.333 121.435 150.445C118.657 147.556 116.79 143.915 116.066 139.973C115.343 136.032 115.794 131.964 117.365 128.278C118.936 124.591 121.556 121.448 124.9 119.239C128.244 117.031 132.164 115.854 136.171 115.857C138.218 115.864 140.252 116.182 142.203 116.802V91.9771C140.204 91.6952 138.189 91.5493 136.171 91.5403C111.491 91.5403 91.4131 111.613 91.4131 136.296C91.4312 148.163 96.1539 159.538 104.546 167.928C112.938 176.318 124.314 181.039 136.181 181.054C160.859 181.054 180.937 160.981 180.937 136.296V86.8809C190.791 93.971 202.626 97.7798 214.766 97.7676V73.4438C208.223 73.4492 201.821 71.546 196.343 67.9674Z" fill="#0A0000"/>
<path d="M39.2275 208.5H78.4031L74.8065 219.71H64.6519V261.153H51.9798V219.706L39.2275 219.729V208.5Z" fill="#0A0000"/>
<path d="M142.587 208.5H182.672L179.075 219.71H168.023V261.153H155.339V219.706L142.587 219.729V208.5Z" fill="#0A0000"/>
<path d="M80.7949 225.248H93.3559L93.3418 261.148H80.8705L80.7949 225.248Z" fill="#0A0000"/>
<path d="M98.3389 208.354H110.886V232.871L123.319 220.669H138.298L122.564 235.934L140.181 261.148H126.363L114.605 243.673L110.886 247.286V261.158H98.3389V208.354Z" fill="#0A0000"/>
<path d="M225.924 208.354H238.471V232.871L250.907 220.669H265.886L250.156 235.934L267.773 261.148H253.948L242.19 243.673L238.471 247.286V261.158H225.924V208.354Z" fill="#0A0000"/>
<path d="M87.0718 221.144C90.5633 221.144 93.3937 218.314 93.3937 214.822C93.3937 211.331 90.5633 208.5 87.0718 208.5C83.5804 208.5 80.75 211.331 80.75 214.822C80.75 218.314 83.5804 221.144 87.0718 221.144Z" fill="#0A0000"/>
<path d="M199.333 218.166C195.082 218.166 190.928 219.426 187.394 221.788C183.86 224.149 181.105 227.505 179.479 231.432C177.852 235.359 177.427 239.68 178.256 243.849C179.085 248.017 181.132 251.846 184.137 254.852C187.142 257.857 190.972 259.904 195.14 260.733C199.309 261.562 203.63 261.137 207.557 259.51C211.483 257.884 214.84 255.129 217.201 251.595C219.562 248.061 220.823 243.906 220.823 239.656C220.823 233.957 218.559 228.49 214.528 224.46C210.498 220.43 205.032 218.166 199.333 218.166ZM199.333 250.103C197.266 250.103 195.247 249.491 193.528 248.343C191.81 247.195 190.471 245.563 189.681 243.654C188.89 241.745 188.683 239.644 189.086 237.618C189.489 235.591 190.484 233.73 191.945 232.269C193.406 230.807 195.268 229.812 197.295 229.409C199.321 229.006 201.422 229.213 203.331 230.004C205.24 230.795 206.872 232.134 208.02 233.852C209.167 235.57 209.78 237.59 209.78 239.656C209.78 242.427 208.68 245.084 206.72 247.043C204.761 249.003 202.104 250.103 199.333 250.103Z" fill="#0A0000"/>
</g>
<defs>
<clipPath id="clip0_506_455">
<rect width="307" height="307" fill="white"/>
</clipPath>
</defs>
</svg>
