<svg width="307" height="307" viewBox="0 0 307 307" fill="none" xmlns="http://www.w3.org/2000/svg">
<g clip-path="url(#clip0_505_435)">
<path d="M307 0H0V307H307V0Z" fill="#0A0000"/>
<path d="M141.613 97.1017V91.3372C139.66 91.065 137.692 90.9254 135.721 90.9192C111.612 90.9192 91.999 110.52 91.999 134.634C92.0002 141.661 93.6967 148.585 96.9445 154.817C100.192 161.049 104.896 166.406 110.655 170.432C103.377 162.62 99.06 152.154 99.06 140.663C99.0461 129.279 103.493 118.343 111.448 110.2C119.403 102.056 130.232 97.3543 141.613 97.1017Z" fill="#3DBABF"/>
<path d="M142.637 160.752C153.394 160.752 162.294 152.074 162.693 141.414L162.783 46.3499H180.022L179.996 46.2082C179.626 44.2198 179.439 42.2017 179.437 40.1792H155.689L155.651 135.38C155.535 138.751 154.564 142.037 152.831 144.931C151.097 147.825 148.657 150.231 145.74 151.924C142.822 153.617 139.522 154.541 136.15 154.61C132.777 154.679 129.443 153.891 126.458 152.319C130.088 157.337 135.982 160.752 142.637 160.752Z" fill="#3DBABF"/>
<path d="M212.491 78.8092V73.2336C206.1 73.2377 199.845 71.3781 194.494 67.8823C199.109 73.1816 205.376 77.286 212.491 78.8092Z" fill="#3DBABF"/>
<path d="M194.495 67.8824C189.251 61.8817 186.364 54.1818 186.368 46.2129H179.896C181.572 55.2599 187.053 63.0294 194.495 67.8824Z" fill="#E5004F"/>
<path d="M135.72 114.485C124.711 114.485 115.621 123.624 115.621 134.634C115.621 142.302 120.108 148.963 126.458 152.307C124.305 149.33 123.017 145.815 122.736 142.151C122.455 138.487 123.192 134.817 124.866 131.546C126.54 128.275 129.086 125.53 132.222 123.615C135.358 121.7 138.963 120.689 142.637 120.693C144.641 120.698 146.632 121.011 148.541 121.619V97.3662C146.585 97.0903 144.612 96.9475 142.637 96.9387C142.292 96.9387 141.95 96.9576 141.605 96.9647H141.515L141.456 115.326C139.6 114.748 137.664 114.464 135.72 114.485Z" fill="#E5004F"/>
<path d="M212.491 78.5259L212.38 78.5046V96.8443C200.501 96.8192 188.93 93.0622 179.302 86.1041V134.634C179.309 140.36 178.187 146.031 175.999 151.323C173.811 156.615 170.602 161.423 166.554 165.473C162.506 169.523 157.699 172.734 152.408 174.924C147.117 177.114 141.446 178.239 135.72 178.235C126.404 178.235 117.772 175.417 110.664 170.442C114.747 174.841 119.694 178.351 125.195 180.75C130.697 183.149 136.635 184.386 142.637 184.384C166.746 184.384 186.361 164.783 186.361 140.663V92.3881C195.988 99.3106 207.55 103.028 219.408 103.015V79.2603C217.083 79.2589 214.765 79.0127 212.491 78.5259Z" fill="#E5004F"/>
<path d="M179.444 134.634V86.359C189.071 93.2824 200.633 97.0003 212.492 96.986V78.5258C205.499 77.0184 199.184 73.2837 194.494 67.8824C190.739 65.4384 187.518 62.2578 185.028 58.5332C182.537 54.8085 180.828 50.6172 180.004 46.2129H162.614L162.576 141.414C162.43 145.571 160.986 149.579 158.447 152.874C155.909 156.17 152.402 158.589 148.42 159.791C144.437 160.994 140.178 160.92 136.24 159.58C132.301 158.24 128.881 155.701 126.458 152.319C122.503 150.248 119.356 146.911 117.52 142.841C115.685 138.771 115.267 134.203 116.334 129.867C117.401 125.532 119.89 121.679 123.405 118.925C126.919 116.171 131.255 114.675 135.72 114.676C137.72 114.683 139.707 114.994 141.612 115.6V96.9647C117.98 97.5173 98.9229 116.898 98.9229 140.653C98.9142 151.71 103.112 162.356 110.664 170.432C117.999 175.596 126.751 178.364 135.72 178.357C159.829 178.357 179.444 158.743 179.444 134.634Z" fill="white"/>
<path d="M40.7275 210.387H79.0364L75.5201 221.347H65.5804V261.869H53.1965V221.342L40.737 221.366L40.7275 210.387Z" fill="white"/>
<path d="M141.79 210.387H180.992L177.473 221.347H166.669V261.869H154.259V221.342L141.799 221.366L141.79 210.387Z" fill="white"/>
<path d="M81.3721 226.762H93.6544L93.6403 261.864H81.4453L81.3721 226.762Z" fill="white"/>
<path d="M98.5265 210.243H110.806V234.215L122.964 222.284H137.605L122.224 237.207L139.464 261.861H125.927L114.431 244.764L110.795 248.306V261.869H98.5146L98.5265 210.243Z" fill="white"/>
<path d="M228.517 210.243H240.797V234.215L252.957 222.284H267.598L252.213 237.209L269.438 261.864H255.921L244.425 244.766L240.788 248.309V261.871H228.508L228.517 210.243Z" fill="white"/>
<path d="M87.5097 222.75C90.9242 222.75 93.6922 219.982 93.6922 216.567C93.6922 213.153 90.9242 210.385 87.5097 210.385C84.0951 210.385 81.3271 213.153 81.3271 216.567C81.3271 219.982 84.0951 222.75 87.5097 222.75Z" fill="white"/>
<path d="M179.504 240.851C179.506 235.565 181.501 230.473 185.09 226.592C188.679 222.711 193.598 220.325 198.868 219.909C198.325 219.866 197.492 219.838 196.937 219.838C191.362 219.838 186.016 222.052 182.075 225.994C178.133 229.935 175.919 235.281 175.919 240.856C175.919 246.43 178.133 251.776 182.075 255.717C186.016 259.659 191.362 261.873 196.937 261.873C197.492 261.873 198.325 261.845 198.868 261.802C193.597 261.387 188.676 258.999 185.087 255.116C181.498 251.232 179.504 246.139 179.504 240.851Z" fill="#3DBABF"/>
<path d="M203.565 219.838C203.005 219.838 202.167 219.866 201.619 219.909C206.866 220.355 211.755 222.755 215.317 226.633C218.879 230.511 220.856 235.585 220.856 240.851C220.856 246.117 218.879 251.191 215.317 255.069C211.755 258.947 206.866 261.347 201.619 261.793C202.167 261.836 203.005 261.864 203.565 261.864C209.139 261.864 214.485 259.65 218.427 255.708C222.368 251.766 224.583 246.421 224.583 240.846C224.583 235.272 222.368 229.926 218.427 225.985C214.485 222.043 209.139 219.829 203.565 219.829V219.838Z" fill="#E5004F"/>
<path d="M200.231 219.838C196.074 219.838 192.01 221.071 188.554 223.38C185.097 225.689 182.404 228.972 180.813 232.812C179.222 236.653 178.806 240.879 179.617 244.956C180.428 249.033 182.429 252.778 185.369 255.717C188.308 258.657 192.053 260.658 196.13 261.469C200.207 262.28 204.433 261.864 208.274 260.273C212.114 258.683 215.397 255.989 217.706 252.532C220.016 249.076 221.248 245.012 221.248 240.856C221.248 235.281 219.034 229.935 215.092 225.994C211.151 222.052 205.805 219.838 200.231 219.838ZM200.231 251.065C198.21 251.065 196.235 250.465 194.555 249.343C192.875 248.22 191.565 246.624 190.792 244.757C190.019 242.891 189.817 240.836 190.211 238.855C190.605 236.873 191.579 235.053 193.008 233.624C194.437 232.195 196.257 231.222 198.239 230.829C200.221 230.435 202.275 230.637 204.142 231.411C206.008 232.184 207.604 233.494 208.726 235.175C209.848 236.855 210.447 238.83 210.447 240.851C210.447 242.192 210.182 243.521 209.669 244.76C209.155 245.999 208.403 247.125 207.454 248.074C206.506 249.022 205.379 249.775 204.14 250.288C202.9 250.801 201.572 251.065 200.231 251.065Z" fill="white"/>
</g>
<defs>
<clipPath id="clip0_505_435">
<rect width="307" height="307" fill="white"/>
</clipPath>
</defs>
</svg>
